<svg width="56" height="56" viewBox="0 0 56 56" fill="none" xmlns="http://www.w3.org/2000/svg">
<g clip-path="url(#clip0_2025_6771)">
<path d="M26.9095 55.9998C21.8373 55.9998 16.9223 54.6106 12.7084 51.9382C3.06888 45.8226 -1.88313 33.6117 0.662243 22.2408C3.3297 10.3279 12.8915 4.594 15.7587 3.12096C16.5431 2.71685 17.505 3.03157 17.9045 3.82117C18.306 4.61076 17.9933 5.57914 17.209 5.98139C15.3906 6.91624 6.19879 12.1268 3.77551 22.9466C1.52057 33.0139 5.89357 43.8169 14.4084 49.2193C24.2476 55.4616 37.842 53.3647 46.0294 44.3402C53.6415 35.9507 55.1047 22.2184 49.2241 14.3541C45.086 8.81947 37.1946 6.41902 32.4812 4.98322C29.6121 4.10982 26.6357 3.51017 23.6372 3.2029C22.7603 3.11351 22.1222 2.32391 22.2128 1.44306C22.3016 0.560351 23.0841 -0.0821286 23.9609 0.00912215C27.1629 0.338742 30.3391 0.977497 33.4043 1.91049C38.4932 3.45803 47.0098 6.05029 51.7731 12.4229C54.9641 16.6894 56.4588 22.7827 55.8761 29.1386C55.2767 35.6751 52.6166 41.8429 48.3842 46.506C44.0889 51.2399 38.1787 54.4616 31.745 55.5789C30.1282 55.8601 28.5096 55.998 26.9077 55.998L26.9095 55.9998Z" fill="#E27B14"/>
<path d="M28.0453 34.4725C27.2758 34.4725 26.5544 34.303 25.9088 33.9175C21.4488 31.247 23.7796 20.8612 27.4478 12.0341C27.7882 11.2166 28.7224 10.8311 29.5344 11.1719C30.3465 11.5145 30.7313 12.455 30.3909 13.2725C25.7848 24.3585 26.2621 30.3904 27.5403 31.1558C28.6539 31.8243 32.6255 29.8783 37.3444 25.4684C37.99 24.8651 39 24.9023 39.5994 25.5523C40.1987 26.2022 40.1617 27.219 39.5161 27.8223C36.6433 30.5096 31.7709 34.4725 28.0472 34.4725H28.0453Z" fill="#E27B14"/>
</g>
<defs>
<clipPath id="clip0_2025_6771">
<rect width="56" height="56" fill="white"/>
</clipPath>
</defs>
</svg>
