<svg width="187" height="137" viewBox="0 0 187 137" fill="none" xmlns="http://www.w3.org/2000/svg">
<path d="M42.4657 57.8247C42.8452 57.8247 43.1818 57.7531 43.4754 57.6099C43.7691 57.4595 43.9982 57.2518 44.1629 56.9868C44.3348 56.7147 44.4243 56.396 44.4315 56.0308H47.3426C47.3355 56.8472 47.117 57.5741 46.6874 58.2114C46.2577 58.8416 45.6812 59.3394 44.9579 59.7046C44.2346 60.0627 43.4253 60.2417 42.5301 60.2417C41.6278 60.2417 40.84 60.0913 40.1668 59.7905C39.5008 59.4897 38.9458 59.0744 38.5018 58.5444C38.0578 58.0073 37.7248 57.3843 37.5028 56.6753C37.2808 55.9591 37.1698 55.1929 37.1698 54.3765V54.0649C37.1698 53.2414 37.2808 52.4751 37.5028 51.7661C37.7248 51.05 38.0578 50.4269 38.5018 49.897C38.9458 49.3599 39.5008 48.9409 40.1668 48.6401C40.8329 48.3394 41.6135 48.189 42.5086 48.189C43.4611 48.189 44.2954 48.3716 45.0116 48.7368C45.7349 49.1021 46.3006 49.6248 46.7088 50.3052C47.1242 50.9784 47.3355 51.7769 47.3426 52.7007H44.4315C44.4243 52.314 44.342 51.9631 44.1844 51.6479C44.034 51.3328 43.812 51.0822 43.5184 50.896C43.232 50.7026 42.8775 50.606 42.4549 50.606C42.0038 50.606 41.6349 50.7026 41.3485 50.896C41.062 51.0822 40.84 51.34 40.6825 51.6694C40.5249 51.9917 40.4139 52.3605 40.3495 52.7759C40.2922 53.1841 40.2635 53.6138 40.2635 54.0649V54.3765C40.2635 54.8276 40.2922 55.2609 40.3495 55.6763C40.4068 56.0916 40.5142 56.4604 40.6717 56.7827C40.8364 57.105 41.062 57.3592 41.3485 57.5454C41.6349 57.7316 42.0073 57.8247 42.4657 57.8247ZM48.5424 54.3335V54.1079C48.5424 53.2557 48.6642 52.4715 48.9077 51.7554C49.1512 51.0321 49.5056 50.4054 49.9711 49.8755C50.4366 49.3455 51.0096 48.9338 51.6899 48.6401C52.3702 48.3394 53.1508 48.189 54.0317 48.189C54.9125 48.189 55.6967 48.3394 56.3842 48.6401C57.0717 48.9338 57.6482 49.3455 58.1137 49.8755C58.5864 50.4054 58.9445 51.0321 59.1879 51.7554C59.4314 52.4715 59.5532 53.2557 59.5532 54.1079V54.3335C59.5532 55.1785 59.4314 55.9627 59.1879 56.686C58.9445 57.4022 58.5864 58.0288 58.1137 58.5659C57.6482 59.0959 57.0753 59.5076 56.395 59.8013C55.7146 60.0949 54.934 60.2417 54.0532 60.2417C53.1723 60.2417 52.3881 60.0949 51.7006 59.8013C51.0203 59.5076 50.4438 59.0959 49.9711 58.5659C49.5056 58.0288 49.1512 57.4022 48.9077 56.686C48.6642 55.9627 48.5424 55.1785 48.5424 54.3335ZM51.6362 54.1079V54.3335C51.6362 54.8205 51.6792 55.2752 51.7651 55.6978C51.851 56.1203 51.9871 56.4927 52.1733 56.8149C52.3667 57.13 52.6173 57.3771 52.9252 57.5562C53.2332 57.7352 53.6092 57.8247 54.0532 57.8247C54.4829 57.8247 54.8517 57.7352 55.1596 57.5562C55.4676 57.3771 55.7146 57.13 55.9008 56.8149C56.087 56.4927 56.2231 56.1203 56.309 55.6978C56.4021 55.2752 56.4487 54.8205 56.4487 54.3335V54.1079C56.4487 53.6353 56.4021 53.1912 56.309 52.7759C56.2231 52.3534 56.0834 51.981 55.8901 51.6587C55.7039 51.3293 55.4568 51.0715 55.1489 50.8853C54.8409 50.6991 54.4685 50.606 54.0317 50.606C53.5948 50.606 53.2224 50.6991 52.9145 50.8853C52.6137 51.0715 52.3667 51.3293 52.1733 51.6587C51.9871 51.981 51.851 52.3534 51.7651 52.7759C51.6792 53.1912 51.6362 53.6353 51.6362 54.1079ZM64.4483 50.8101V60.0269H61.3438V48.4038H64.2549L64.4483 50.8101ZM64.0186 53.8071H63.1592C63.1592 52.9979 63.2559 52.2531 63.4493 51.5728C63.6498 50.8853 63.9398 50.2909 64.3194 49.7896C64.7061 49.2811 65.1823 48.8872 65.7481 48.6079C66.3139 48.3286 66.9691 48.189 67.7139 48.189C68.2295 48.189 68.7022 48.2677 69.1319 48.4253C69.5616 48.5757 69.9304 48.8156 70.2383 49.145C70.5534 49.4673 70.7969 49.8898 70.9688 50.4126C71.1407 50.9282 71.2266 51.5477 71.2266 52.271V60.0269H68.1329V52.6147C68.1329 52.0848 68.0612 51.6766 67.918 51.3901C67.7748 51.1037 67.5707 50.9032 67.3057 50.7886C67.0479 50.674 66.7364 50.6167 66.3711 50.6167C65.9701 50.6167 65.6192 50.6991 65.3184 50.8638C65.0248 51.0285 64.7813 51.2576 64.5879 51.5513C64.3946 51.8377 64.2514 52.1743 64.1583 52.561C64.0652 52.9478 64.0186 53.3631 64.0186 53.8071ZM70.9366 53.4526L69.8301 53.5923C69.8301 52.8332 69.9232 52.1278 70.1094 51.4761C70.3028 50.8244 70.5857 50.2515 70.9581 49.7573C71.3376 49.2632 71.8067 48.88 72.3653 48.6079C72.9239 48.3286 73.5684 48.189 74.2989 48.189C74.8575 48.189 75.3659 48.2713 75.8243 48.436C76.2826 48.5936 76.6729 48.8478 76.9952 49.1987C77.3246 49.5425 77.5752 49.9937 77.7471 50.5522C77.9262 51.1108 78.0157 51.7948 78.0157 52.604V60.0269H74.9112V52.604C74.9112 52.0669 74.8396 51.6587 74.6963 51.3794C74.5603 51.0929 74.3598 50.896 74.0948 50.7886C73.837 50.674 73.529 50.6167 73.1709 50.6167C72.7986 50.6167 72.4727 50.6919 72.1934 50.8423C71.9141 50.9855 71.6814 51.186 71.4952 51.4438C71.309 51.7017 71.1693 52.0024 71.0762 52.3462C70.9831 52.6828 70.9366 53.0516 70.9366 53.4526ZM83.4049 50.8101V60.0269H80.3004V48.4038H83.2116L83.4049 50.8101ZM82.9752 53.8071H82.1159C82.1159 52.9979 82.2126 52.2531 82.4059 51.5728C82.6064 50.8853 82.8965 50.2909 83.276 49.7896C83.6627 49.2811 84.139 48.8872 84.7047 48.6079C85.2705 48.3286 85.9258 48.189 86.6706 48.189C87.1862 48.189 87.6588 48.2677 88.0885 48.4253C88.5182 48.5757 88.887 48.8156 89.195 49.145C89.5101 49.4673 89.7536 49.8898 89.9254 50.4126C90.0973 50.9282 90.1833 51.5477 90.1833 52.271V60.0269H87.0895V52.6147C87.0895 52.0848 87.0179 51.6766 86.8747 51.3901C86.7314 51.1037 86.5273 50.9032 86.2624 50.7886C86.0045 50.674 85.693 50.6167 85.3278 50.6167C84.9267 50.6167 84.5758 50.6991 84.2751 50.8638C83.9814 51.0285 83.7379 51.2576 83.5446 51.5513C83.3512 51.8377 83.208 52.1743 83.1149 52.561C83.0218 52.9478 82.9752 53.3631 82.9752 53.8071ZM89.8932 53.4526L88.7868 53.5923C88.7868 52.8332 88.8799 52.1278 89.0661 51.4761C89.2594 50.8244 89.5423 50.2515 89.9147 49.7573C90.2943 49.2632 90.7633 48.88 91.3219 48.6079C91.8805 48.3286 92.5251 48.189 93.2555 48.189C93.8141 48.189 94.3226 48.2713 94.7809 48.436C95.2392 48.5936 95.6295 48.8478 95.9518 49.1987C96.2812 49.5425 96.5319 49.9937 96.7038 50.5522C96.8828 51.1108 96.9723 51.7948 96.9723 52.604V60.0269H93.8678V52.604C93.8678 52.0669 93.7962 51.6587 93.653 51.3794C93.5169 51.0929 93.3164 50.896 93.0514 50.7886C92.7936 50.674 92.4857 50.6167 92.1276 50.6167C91.7552 50.6167 91.4293 50.6919 91.1501 50.8423C90.8708 50.9855 90.638 51.186 90.4518 51.4438C90.2656 51.7017 90.126 52.0024 90.0329 52.3462C89.9398 52.6828 89.8932 53.0516 89.8932 53.4526ZM106.143 57.2446V48.4038H109.237V60.0269H106.325L106.143 57.2446ZM106.487 54.8599L107.4 54.8384C107.4 55.6118 107.31 56.3315 107.131 56.9976C106.952 57.6564 106.684 58.2293 106.325 58.7163C105.967 59.1961 105.516 59.5721 104.972 59.8442C104.428 60.1092 103.787 60.2417 103.049 60.2417C102.483 60.2417 101.961 60.1629 101.481 60.0054C101.008 59.8407 100.6 59.5864 100.256 59.2427C99.9195 58.8918 99.6545 58.4442 99.4612 57.8999C99.275 57.3485 99.1819 56.686 99.1819 55.9126V48.4038H102.276V55.9341C102.276 56.2778 102.315 56.5679 102.394 56.8042C102.48 57.0405 102.598 57.2339 102.748 57.3843C102.899 57.5347 103.074 57.6421 103.275 57.7065C103.482 57.771 103.712 57.8032 103.962 57.8032C104.6 57.8032 105.101 57.6743 105.466 57.4165C105.838 57.1587 106.1 56.8078 106.25 56.3638C106.408 55.9126 106.487 55.4113 106.487 54.8599ZM114.529 50.8853V60.0269H111.435V48.4038H114.336L114.529 50.8853ZM114.078 53.8071H113.24C113.24 52.9478 113.351 52.1743 113.573 51.4868C113.795 50.7922 114.107 50.2013 114.508 49.7144C114.909 49.2202 115.385 48.8442 115.936 48.5864C116.495 48.3215 117.118 48.189 117.806 48.189C118.35 48.189 118.848 48.2677 119.299 48.4253C119.75 48.5828 120.137 48.8335 120.459 49.1772C120.788 49.521 121.039 49.9757 121.211 50.5415C121.39 51.1073 121.479 51.7983 121.479 52.6147V60.0269H118.364V52.604C118.364 52.0884 118.292 51.6873 118.149 51.4009C118.006 51.1144 117.795 50.9139 117.515 50.7993C117.243 50.6776 116.907 50.6167 116.506 50.6167C116.09 50.6167 115.729 50.6991 115.421 50.8638C115.12 51.0285 114.869 51.2576 114.669 51.5513C114.475 51.8377 114.329 52.1743 114.228 52.561C114.128 52.9478 114.078 53.3631 114.078 53.8071ZM126.998 48.4038V60.0269H123.893V48.4038H126.998ZM123.7 45.3745C123.7 44.9233 123.857 44.5509 124.172 44.2573C124.487 43.9637 124.91 43.8169 125.44 43.8169C125.963 43.8169 126.382 43.9637 126.697 44.2573C127.019 44.5509 127.18 44.9233 127.18 45.3745C127.18 45.8257 127.019 46.1981 126.697 46.4917C126.382 46.7853 125.963 46.9321 125.44 46.9321C124.91 46.9321 124.487 46.7853 124.172 46.4917C123.857 46.1981 123.7 45.8257 123.7 45.3745ZM135.148 48.4038V50.5952H128.38V48.4038H135.148ZM130.056 45.5356H133.149V56.5249C133.149 56.8615 133.192 57.1193 133.278 57.2983C133.371 57.4774 133.508 57.6027 133.687 57.6743C133.866 57.7388 134.091 57.771 134.363 57.771C134.557 57.771 134.729 57.7638 134.879 57.7495C135.037 57.728 135.169 57.7065 135.276 57.6851L135.287 59.9624C135.022 60.0483 134.736 60.1164 134.428 60.1665C134.12 60.2166 133.78 60.2417 133.407 60.2417C132.727 60.2417 132.133 60.1307 131.624 59.9087C131.123 59.6795 130.736 59.3143 130.464 58.813C130.192 58.3117 130.056 57.6528 130.056 56.8364V45.5356ZM140.257 58.7163L143.34 48.4038H146.66L141.987 61.7778C141.887 62.0715 141.751 62.3866 141.579 62.7231C141.414 63.0597 141.188 63.3784 140.902 63.6792C140.623 63.9871 140.268 64.2378 139.839 64.4312C139.416 64.6245 138.897 64.7212 138.281 64.7212C137.987 64.7212 137.747 64.7033 137.561 64.6675C137.375 64.6317 137.153 64.5815 136.895 64.5171V62.2505C136.974 62.2505 137.056 62.2505 137.142 62.2505C137.228 62.2576 137.311 62.2612 137.389 62.2612C137.798 62.2612 138.131 62.2147 138.388 62.1216C138.646 62.0285 138.854 61.8853 139.011 61.6919C139.169 61.5057 139.294 61.2622 139.387 60.9614L140.257 58.7163ZM138.968 48.4038L141.493 56.8257L141.933 60.1021L139.828 60.3276L135.649 48.4038H138.968ZM31.5045 65.5269H34.5983V79.3628L34.2868 82.0269H31.5045V65.5269ZM41.9567 76.0972V76.3228C41.9567 77.1893 41.8636 77.9842 41.6774 78.7075C41.4984 79.4308 41.2191 80.0575 40.8395 80.5874C40.4599 81.1102 39.9873 81.5184 39.4215 81.812C38.8629 82.0985 38.2041 82.2417 37.445 82.2417C36.736 82.2417 36.1201 82.0985 35.5973 81.812C35.0817 81.5256 34.6484 81.1209 34.2975 80.5981C33.9466 80.0754 33.6637 79.4631 33.4489 78.7612C33.234 78.0594 33.0729 77.2931 32.9655 76.4624V75.9683C33.0729 75.1375 33.234 74.3713 33.4489 73.6694C33.6637 72.9676 33.9466 72.3553 34.2975 71.8325C34.6484 71.3097 35.0817 70.9051 35.5973 70.6187C36.1129 70.3322 36.7217 70.189 37.4235 70.189C38.1898 70.189 38.8558 70.3358 39.4215 70.6294C39.9944 70.9159 40.4671 71.3241 40.8395 71.854C41.2191 72.3768 41.4984 72.9998 41.6774 73.7231C41.8636 74.4393 41.9567 75.2306 41.9567 76.0972ZM38.8629 76.3228V76.0972C38.8629 75.6245 38.8271 75.1805 38.7555 74.7651C38.6911 74.3426 38.5765 73.9738 38.4118 73.6587C38.2471 73.3364 38.0215 73.0822 37.735 72.896C37.4557 72.7098 37.0941 72.6167 36.65 72.6167C36.2275 72.6167 35.8694 72.6883 35.5758 72.8315C35.2822 72.9748 35.0387 73.1753 34.8454 73.4331C34.6592 73.6909 34.5195 73.9989 34.4264 74.3569C34.3333 74.7078 34.276 75.0946 34.2545 75.5171V76.9243C34.276 77.4901 34.3691 77.9914 34.5338 78.4282C34.7057 78.8579 34.9635 79.1981 35.3073 79.4487C35.6582 79.6922 36.1129 79.814 36.6715 79.814C37.1084 79.814 37.47 79.728 37.7565 79.5562C38.043 79.3843 38.265 79.1408 38.4225 78.8257C38.5872 78.5106 38.7018 78.1418 38.7663 77.7192C38.8307 77.2896 38.8629 76.8241 38.8629 76.3228ZM50.6545 79.2446V70.4038H53.7483V82.0269H50.8372L50.6545 79.2446ZM50.9983 76.8599L51.9114 76.8384C51.9114 77.6118 51.8219 78.3315 51.6428 78.9976C51.4638 79.6564 51.1952 80.2293 50.8372 80.7163C50.4791 81.1961 50.0279 81.5721 49.4836 81.8442C48.9394 82.1092 48.2984 82.2417 47.5608 82.2417C46.995 82.2417 46.4722 82.1629 45.9924 82.0054C45.5198 81.8407 45.1116 81.5864 44.7678 81.2427C44.4312 80.8918 44.1663 80.4442 43.9729 79.8999C43.7867 79.3485 43.6936 78.686 43.6936 77.9126V70.4038H46.7874V77.9341C46.7874 78.2778 46.8267 78.5679 46.9055 78.8042C46.9915 79.0405 47.1096 79.2339 47.26 79.3843C47.4104 79.5347 47.5859 79.6421 47.7864 79.7065C47.9941 79.771 48.2232 79.8032 48.4739 79.8032C49.1112 79.8032 49.6125 79.6743 49.9778 79.4165C50.3502 79.1587 50.6116 78.8078 50.762 78.3638C50.9195 77.9126 50.9983 77.4113 50.9983 76.8599ZM59.2772 70.4038V82.0269H56.1727V70.4038H59.2772ZM55.9793 67.3745C55.9793 66.9233 56.1369 66.5509 56.452 66.2573C56.7671 65.9637 57.1896 65.8169 57.7196 65.8169C58.2424 65.8169 58.6613 65.9637 58.9764 66.2573C59.2987 66.5509 59.4598 66.9233 59.4598 67.3745C59.4598 67.8257 59.2987 68.1981 58.9764 68.4917C58.6613 68.7853 58.2424 68.9321 57.7196 68.9321C57.1896 68.9321 56.7671 68.7853 56.452 68.4917C56.1369 68.1981 55.9793 67.8257 55.9793 67.3745ZM64.9995 65.5269V82.0269H61.895V65.5269H64.9995ZM73.1495 70.4038V72.5952H66.3819V70.4038H73.1495ZM68.0577 67.5356H71.1514V78.5249C71.1514 78.8615 71.1944 79.1193 71.2803 79.2983C71.3734 79.4774 71.5095 79.6027 71.6885 79.6743C71.8676 79.7388 72.0931 79.771 72.3653 79.771C72.5586 79.771 72.7305 79.7638 72.8809 79.7495C73.0385 79.728 73.1709 79.7065 73.2784 79.6851L73.2891 81.9624C73.0241 82.0483 72.7377 82.1164 72.4297 82.1665C72.1218 82.2166 71.7816 82.2417 71.4092 82.2417C70.7289 82.2417 70.1345 82.1307 69.626 81.9087C69.1247 81.6795 68.738 81.3143 68.4659 80.813C68.1937 80.3117 68.0577 79.6528 68.0577 78.8364V67.5356ZM86.4631 79.4058V74.228C86.4631 73.8556 86.4023 73.5369 86.2805 73.272C86.1588 72.9998 85.969 72.7886 85.7112 72.6382C85.4605 72.4878 85.1347 72.4126 84.7336 72.4126C84.3899 72.4126 84.0927 72.4735 83.842 72.5952C83.5914 72.7098 83.398 72.8781 83.262 73.1001C83.1259 73.3149 83.0579 73.5692 83.0579 73.8628H79.9641C79.9641 73.3687 80.0787 72.8996 80.3079 72.4556C80.537 72.0116 80.87 71.6213 81.3069 71.2847C81.7437 70.9409 82.2629 70.6724 82.8645 70.479C83.4732 70.2856 84.1536 70.189 84.9055 70.189C85.8079 70.189 86.6099 70.3394 87.3118 70.6401C88.0136 70.9409 88.565 71.3921 88.9661 71.9937C89.3743 72.5952 89.5784 73.3472 89.5784 74.2495V79.2231C89.5784 79.8605 89.6178 80.3833 89.6965 80.7915C89.7753 81.1925 89.8899 81.5435 90.0403 81.8442V82.0269H86.9143C86.7639 81.7118 86.6493 81.3179 86.5706 80.8452C86.4989 80.3654 86.4631 79.8856 86.4631 79.4058ZM86.8713 74.9478L86.8928 76.6987H85.1633C84.7551 76.6987 84.4006 76.7453 84.0999 76.8384C83.7991 76.9315 83.552 77.064 83.3586 77.2358C83.1653 77.4006 83.0221 77.5939 82.929 77.8159C82.843 78.0379 82.8 78.2814 82.8 78.5464C82.8 78.8114 82.8609 79.0513 82.9827 79.2661C83.1044 79.4738 83.2799 79.6385 83.509 79.7603C83.7382 79.8748 84.0068 79.9321 84.3147 79.9321C84.7802 79.9321 85.1848 79.839 85.5286 79.6528C85.8723 79.4666 86.1373 79.2375 86.3235 78.9653C86.5168 78.6932 86.6171 78.4354 86.6243 78.1919L87.4407 79.5024C87.3261 79.7961 87.1685 80.1004 86.968 80.4155C86.7747 80.7306 86.5276 81.0278 86.2268 81.3071C85.926 81.5793 85.5644 81.8049 85.1418 81.9839C84.7193 82.1558 84.218 82.2417 83.6379 82.2417C82.9003 82.2417 82.2307 82.0949 81.6292 81.8013C81.0347 81.5005 80.5621 81.0887 80.2112 80.5659C79.8674 80.036 79.6956 79.4344 79.6956 78.7612C79.6956 78.1525 79.8101 77.6118 80.0393 77.1392C80.2685 76.6665 80.6051 76.269 81.0491 75.9468C81.5002 75.6174 82.0624 75.3703 82.7356 75.2056C83.4088 75.0337 84.1894 74.9478 85.0774 74.9478H86.8713ZM94.9569 72.939V82.0269H91.8631V70.4038H94.7743L94.9569 72.939ZM98.4588 70.3286L98.4051 73.1968C98.2547 73.1753 98.0721 73.1574 97.8573 73.1431C97.6496 73.1216 97.4598 73.1108 97.2879 73.1108C96.8511 73.1108 96.4715 73.1681 96.1493 73.2827C95.8342 73.3901 95.5692 73.5513 95.3543 73.7661C95.1467 73.981 94.9891 74.2424 94.8817 74.5503C94.7814 74.8582 94.7241 75.2091 94.7098 75.603L94.0868 75.4097C94.0868 74.6577 94.162 73.9666 94.3124 73.3364C94.4627 72.6991 94.6812 72.144 94.9676 71.6714C95.2612 71.1987 95.6193 70.8335 96.0418 70.5757C96.4644 70.3179 96.9478 70.189 97.492 70.189C97.6639 70.189 97.8394 70.2033 98.0184 70.2319C98.1974 70.2534 98.3443 70.2856 98.4588 70.3286ZM99.0034 76.3335V76.1079C99.0034 75.2557 99.1251 74.4715 99.3686 73.7554C99.6121 73.0321 99.9666 72.4054 100.432 71.8755C100.898 71.3455 101.47 70.9338 102.151 70.6401C102.831 70.3394 103.612 70.189 104.493 70.189C105.373 70.189 106.158 70.3394 106.845 70.6401C107.533 70.9338 108.109 71.3455 108.575 71.8755C109.047 72.4054 109.405 73.0321 109.649 73.7554C109.892 74.4715 110.014 75.2557 110.014 76.1079V76.3335C110.014 77.1785 109.892 77.9627 109.649 78.686C109.405 79.4022 109.047 80.0288 108.575 80.5659C108.109 81.0959 107.536 81.5076 106.856 81.8013C106.176 82.0949 105.395 82.2417 104.514 82.2417C103.633 82.2417 102.849 82.0949 102.162 81.8013C101.481 81.5076 100.905 81.0959 100.432 80.5659C99.9666 80.0288 99.6121 79.4022 99.3686 78.686C99.1251 77.9627 99.0034 77.1785 99.0034 76.3335ZM102.097 76.1079V76.3335C102.097 76.8205 102.14 77.2752 102.226 77.6978C102.312 78.1203 102.448 78.4927 102.634 78.8149C102.828 79.13 103.078 79.3771 103.386 79.5562C103.694 79.7352 104.07 79.8247 104.514 79.8247C104.944 79.8247 105.313 79.7352 105.621 79.5562C105.928 79.3771 106.176 79.13 106.362 78.8149C106.548 78.4927 106.684 78.1203 106.77 77.6978C106.863 77.2752 106.91 76.8205 106.91 76.3335V76.1079C106.91 75.6353 106.863 75.1912 106.77 74.7759C106.684 74.3534 106.544 73.981 106.351 73.6587C106.165 73.3293 105.918 73.0715 105.61 72.8853C105.302 72.6991 104.929 72.606 104.493 72.606C104.056 72.606 103.683 72.6991 103.375 72.8853C103.075 73.0715 102.828 73.3293 102.634 73.6587C102.448 73.981 102.312 74.3534 102.226 74.7759C102.14 75.1912 102.097 75.6353 102.097 76.1079ZM118.69 79.2446V70.4038H121.784V82.0269H118.873L118.69 79.2446ZM119.034 76.8599L119.947 76.8384C119.947 77.6118 119.858 78.3315 119.679 78.9976C119.5 79.6564 119.231 80.2293 118.873 80.7163C118.515 81.1961 118.064 81.5721 117.52 81.8442C116.975 82.1092 116.334 82.2417 115.597 82.2417C115.031 82.2417 114.508 82.1629 114.028 82.0054C113.556 81.8407 113.148 81.5864 112.804 81.2427C112.467 80.8918 112.202 80.4442 112.009 79.8999C111.823 79.3485 111.73 78.686 111.73 77.9126V70.4038H114.823V77.9341C114.823 78.2778 114.863 78.5679 114.941 78.8042C115.027 79.0405 115.146 79.2339 115.296 79.3843C115.446 79.5347 115.622 79.6421 115.822 79.7065C116.03 79.771 116.259 79.8032 116.51 79.8032C117.147 79.8032 117.648 79.6743 118.014 79.4165C118.386 79.1587 118.648 78.8078 118.798 78.3638C118.955 77.9126 119.034 77.4113 119.034 76.8599ZM127.077 72.8853V82.0269H123.983V70.4038H126.883L127.077 72.8853ZM126.626 75.8071H125.788C125.788 74.9478 125.899 74.1743 126.121 73.4868C126.343 72.7922 126.654 72.2013 127.055 71.7144C127.456 71.2202 127.933 70.8442 128.484 70.5864C129.043 70.3215 129.666 70.189 130.353 70.189C130.897 70.189 131.395 70.2677 131.846 70.4253C132.298 70.5828 132.684 70.8335 133.006 71.1772C133.336 71.521 133.587 71.9757 133.758 72.5415C133.937 73.1073 134.027 73.7983 134.027 74.6147V82.0269H130.912V74.604C130.912 74.0884 130.84 73.6873 130.697 73.4009C130.554 73.1144 130.342 72.9139 130.063 72.7993C129.791 72.6776 129.454 72.6167 129.053 72.6167C128.638 72.6167 128.276 72.6991 127.968 72.8638C127.668 73.0285 127.417 73.2576 127.216 73.5513C127.023 73.8377 126.876 74.1743 126.776 74.561C126.676 74.9478 126.626 75.3631 126.626 75.8071ZM143.144 79.4917V65.5269H146.259V82.0269H143.455L143.144 79.4917ZM135.796 76.355V76.1294C135.796 75.2414 135.896 74.4357 136.097 73.7124C136.297 72.9819 136.591 72.3553 136.978 71.8325C137.365 71.3097 137.841 70.9051 138.406 70.6187C138.972 70.3322 139.617 70.189 140.34 70.189C141.02 70.189 141.615 70.3322 142.123 70.6187C142.639 70.9051 143.076 71.3133 143.434 71.8433C143.799 72.366 144.093 72.9855 144.315 73.7017C144.537 74.4106 144.698 75.1877 144.798 76.0327V76.5269C144.698 77.3361 144.537 78.0881 144.315 78.7827C144.093 79.4774 143.799 80.0861 143.434 80.6089C143.076 81.1245 142.639 81.5256 142.123 81.812C141.608 82.0985 141.006 82.2417 140.319 82.2417C139.595 82.2417 138.951 82.0949 138.385 81.8013C137.826 81.5076 137.354 81.0959 136.967 80.5659C136.587 80.036 136.297 79.4129 136.097 78.6968C135.896 77.9806 135.796 77.2 135.796 76.355ZM138.89 76.1294V76.355C138.89 76.8348 138.926 77.2824 138.997 77.6978C139.076 78.1131 139.201 78.4819 139.373 78.8042C139.552 79.1193 139.781 79.3664 140.061 79.5454C140.347 79.7173 140.695 79.8032 141.103 79.8032C141.633 79.8032 142.07 79.6851 142.413 79.4487C142.757 79.2052 143.018 78.8722 143.198 78.4497C143.384 78.0272 143.491 77.5402 143.52 76.9888V75.5815C143.498 75.1304 143.434 74.7257 143.326 74.3677C143.226 74.0024 143.076 73.6909 142.875 73.4331C142.682 73.1753 142.438 72.9748 142.145 72.8315C141.858 72.6883 141.518 72.6167 141.124 72.6167C140.723 72.6167 140.379 72.7098 140.093 72.896C139.807 73.075 139.574 73.3221 139.395 73.6372C139.223 73.9523 139.094 74.3247 139.008 74.7544C138.929 75.1769 138.89 75.6353 138.89 76.1294ZM53.6698 94.939V104.027H50.576V92.4038H53.4872L53.6698 94.939ZM57.1717 92.3286L57.118 95.1968C56.9676 95.1753 56.785 95.1574 56.5702 95.1431C56.3625 95.1216 56.1727 95.1108 56.0008 95.1108C55.564 95.1108 55.1844 95.1681 54.8622 95.2827C54.5471 95.3901 54.2821 95.5513 54.0672 95.7661C53.8596 95.981 53.702 96.2424 53.5946 96.5503C53.4943 96.8582 53.437 97.2091 53.4227 97.603L52.7997 97.4097C52.7997 96.6577 52.8749 95.9666 53.0252 95.3364C53.1756 94.6991 53.3941 94.144 53.6805 93.6714C53.9741 93.1987 54.3322 92.8335 54.7547 92.5757C55.1773 92.3179 55.6607 92.189 56.2049 92.189C56.3768 92.189 56.5523 92.2033 56.7313 92.2319C56.9103 92.2534 57.0571 92.2856 57.1717 92.3286ZM63.6674 104.242C62.7651 104.242 61.9558 104.098 61.2397 103.812C60.5236 103.518 59.9148 103.114 59.4135 102.598C58.9194 102.083 58.5398 101.485 58.2749 100.804C58.0099 100.117 57.8774 99.3862 57.8774 98.6128V98.1831C57.8774 97.3022 58.0027 96.4966 58.2534 95.7661C58.504 95.0356 58.8621 94.4019 59.3276 93.8647C59.8002 93.3276 60.3732 92.9159 61.0463 92.6294C61.7195 92.3358 62.4786 92.189 63.3237 92.189C64.1473 92.189 64.8777 92.325 65.5151 92.5972C66.1525 92.8693 66.686 93.256 67.1157 93.7573C67.5525 94.2586 67.882 94.8602 68.104 95.562C68.326 96.2567 68.437 97.0301 68.437 97.8823V99.1714H59.1987V97.1089H65.3969V96.8726C65.3969 96.4429 65.3181 96.0597 65.1606 95.7231C65.0102 95.3794 64.781 95.1073 64.4731 94.9067C64.1652 94.7062 63.7713 94.606 63.2915 94.606C62.8833 94.606 62.5323 94.6955 62.2387 94.8745C61.9451 95.0535 61.7052 95.3042 61.519 95.6265C61.34 95.9487 61.2039 96.3283 61.1108 96.7651C61.0249 97.1948 60.9819 97.6675 60.9819 98.1831V98.6128C60.9819 99.0783 61.0463 99.508 61.1752 99.9019C61.3113 100.296 61.5011 100.636 61.7446 100.922C61.9952 101.209 62.296 101.431 62.6469 101.588C63.005 101.746 63.4096 101.825 63.8608 101.825C64.4194 101.825 64.9386 101.717 65.4184 101.502C65.9054 101.28 66.3243 100.947 66.6752 100.503L68.1792 102.136C67.9357 102.487 67.6027 102.824 67.1801 103.146C66.7648 103.468 66.2635 103.733 65.6762 103.941C65.089 104.141 64.4194 104.242 63.6674 104.242ZM76.3721 101.406V96.228C76.3721 95.8556 76.3112 95.5369 76.1895 95.272C76.0678 94.9998 75.878 94.7886 75.6202 94.6382C75.3695 94.4878 75.0437 94.4126 74.6426 94.4126C74.2989 94.4126 74.0017 94.4735 73.751 94.5952C73.5004 94.7098 73.307 94.8781 73.1709 95.1001C73.0349 95.3149 72.9668 95.5692 72.9668 95.8628H69.8731C69.8731 95.3687 69.9877 94.8996 70.2168 94.4556C70.446 94.0116 70.779 93.6213 71.2159 93.2847C71.6527 92.9409 72.1719 92.6724 72.7735 92.479C73.3822 92.2856 74.0625 92.189 74.8145 92.189C75.7168 92.189 76.5189 92.3394 77.2208 92.6401C77.9226 92.9409 78.474 93.3921 78.875 93.9937C79.2833 94.5952 79.4874 95.3472 79.4874 96.2495V101.223C79.4874 101.861 79.5267 102.383 79.6055 102.792C79.6843 103.193 79.7989 103.543 79.9493 103.844V104.027H76.8233C76.6729 103.712 76.5583 103.318 76.4795 102.845C76.4079 102.365 76.3721 101.886 76.3721 101.406ZM76.7803 96.9478L76.8018 98.6987H75.0723C74.6641 98.6987 74.3096 98.7453 74.0088 98.8384C73.7081 98.9315 73.461 99.064 73.2676 99.2358C73.0743 99.4006 72.931 99.5939 72.8379 99.8159C72.752 100.038 72.709 100.281 72.709 100.546C72.709 100.811 72.7699 101.051 72.8917 101.266C73.0134 101.474 73.1889 101.639 73.418 101.76C73.6472 101.875 73.9157 101.932 74.2237 101.932C74.6892 101.932 75.0938 101.839 75.4375 101.653C75.7813 101.467 76.0463 101.237 76.2325 100.965C76.4258 100.693 76.5261 100.435 76.5333 100.192L77.3497 101.502C77.2351 101.796 77.0775 102.1 76.877 102.416C76.6836 102.731 76.4366 103.028 76.1358 103.307C75.835 103.579 75.4734 103.805 75.0508 103.984C74.6283 104.156 74.127 104.242 73.5469 104.242C72.8093 104.242 72.1397 104.095 71.5381 103.801C70.9437 103.5 70.4711 103.089 70.1202 102.566C69.7764 102.036 69.6045 101.434 69.6045 100.761C69.6045 100.153 69.7191 99.6118 69.9483 99.1392C70.1775 98.6665 70.514 98.269 70.9581 97.9468C71.4092 97.6174 71.9714 97.3703 72.6446 97.2056C73.3178 97.0337 74.0984 96.9478 74.9864 96.9478H76.7803ZM85.0377 87.5269V104.027H81.9333V87.5269H85.0377ZM95.8915 87.5269V104.027H92.7977V87.5269H95.8915ZM95.451 97.8071H94.6024C94.6096 96.9979 94.717 96.2531 94.9247 95.5728C95.1323 94.8853 95.4295 94.2909 95.8163 93.7896C96.203 93.2811 96.6649 92.8872 97.202 92.6079C97.7463 92.3286 98.3478 92.189 99.0067 92.189C99.5796 92.189 100.099 92.2713 100.564 92.436C101.037 92.5936 101.442 92.8514 101.778 93.2095C102.122 93.5604 102.387 94.0223 102.573 94.5952C102.759 95.1681 102.852 95.8628 102.852 96.6792V104.027H99.7372V96.6577C99.7372 96.1421 99.662 95.7375 99.5116 95.4438C99.3683 95.1431 99.1571 94.9318 98.8778 94.8101C98.6056 94.6812 98.2691 94.6167 97.868 94.6167C97.424 94.6167 97.0445 94.6991 96.7293 94.8638C96.4214 95.0285 96.1743 95.2576 95.9881 95.5513C95.8019 95.8377 95.6659 96.1743 95.5799 96.561C95.494 96.9478 95.451 97.3631 95.451 97.8071ZM110.455 104.242C109.552 104.242 108.743 104.098 108.027 103.812C107.311 103.518 106.702 103.114 106.201 102.598C105.706 102.083 105.327 101.485 105.062 100.804C104.797 100.117 104.665 99.3862 104.665 98.6128V98.1831C104.665 97.3022 104.79 96.4966 105.04 95.7661C105.291 95.0356 105.649 94.4019 106.115 93.8647C106.587 93.3276 107.16 92.9159 107.833 92.6294C108.507 92.3358 109.266 92.189 110.111 92.189C110.934 92.189 111.665 92.325 112.302 92.5972C112.94 92.8693 113.473 93.256 113.903 93.7573C114.34 94.2586 114.669 94.8602 114.891 95.562C115.113 96.2567 115.224 97.0301 115.224 97.8823V99.1714H105.986V97.1089H112.184V96.8726C112.184 96.4429 112.105 96.0597 111.948 95.7231C111.797 95.3794 111.568 95.1073 111.26 94.9067C110.952 94.7062 110.558 94.606 110.079 94.606C109.67 94.606 109.319 94.6955 109.026 94.8745C108.732 95.0535 108.492 95.3042 108.306 95.6265C108.127 95.9487 107.991 96.3283 107.898 96.7651C107.812 97.1948 107.769 97.6675 107.769 98.1831V98.6128C107.769 99.0783 107.833 99.508 107.962 99.9019C108.098 100.296 108.288 100.636 108.532 100.922C108.782 101.209 109.083 101.431 109.434 101.588C109.792 101.746 110.197 101.825 110.648 101.825C111.206 101.825 111.726 101.717 112.206 101.502C112.692 101.28 113.111 100.947 113.462 100.503L114.966 102.136C114.723 102.487 114.39 102.824 113.967 103.146C113.552 103.468 113.051 103.733 112.463 103.941C111.876 104.141 111.206 104.242 110.455 104.242ZM120.151 87.5269V104.027H117.047V87.5269H120.151ZM125.702 94.6382V108.496H122.608V92.4038H125.476L125.702 94.6382ZM133.06 98.0864V98.312C133.06 99.1571 132.96 99.9412 132.759 100.665C132.566 101.388 132.28 102.018 131.9 102.555C131.52 103.085 131.048 103.5 130.482 103.801C129.923 104.095 129.279 104.242 128.548 104.242C127.84 104.242 127.224 104.098 126.701 103.812C126.178 103.526 125.738 103.125 125.38 102.609C125.029 102.086 124.746 101.481 124.531 100.793C124.316 100.106 124.151 99.3683 124.037 98.5806V97.9897C124.151 97.1447 124.316 96.3713 124.531 95.6694C124.746 94.9604 125.029 94.3481 125.38 93.8325C125.738 93.3097 126.174 92.9051 126.69 92.6187C127.213 92.3322 127.825 92.189 128.527 92.189C129.265 92.189 129.913 92.3286 130.471 92.6079C131.037 92.8872 131.51 93.2882 131.889 93.811C132.276 94.3338 132.566 94.9569 132.759 95.6802C132.96 96.4035 133.06 97.2056 133.06 98.0864ZM129.956 98.312V98.0864C129.956 97.5923 129.913 97.1375 129.827 96.7222C129.748 96.2996 129.619 95.9308 129.44 95.6157C129.268 95.3006 129.039 95.0571 128.753 94.8853C128.473 94.7062 128.133 94.6167 127.732 94.6167C127.31 94.6167 126.948 94.6847 126.647 94.8208C126.353 94.9569 126.114 95.1538 125.927 95.4116C125.741 95.6694 125.602 95.9774 125.508 96.3354C125.415 96.6935 125.358 97.0981 125.337 97.5493V99.0425C125.372 99.5724 125.473 100.049 125.637 100.471C125.802 100.887 126.056 101.216 126.4 101.459C126.744 101.703 127.195 101.825 127.754 101.825C128.162 101.825 128.506 101.735 128.785 101.556C129.064 101.37 129.29 101.116 129.462 100.793C129.641 100.471 129.766 100.099 129.838 99.6763C129.916 99.2537 129.956 98.799 129.956 98.312Z" fill="#D6E513"/>
<path d="M73.5924 17.7341C52.7587 26.8909 33.7191 37.0316 14.8589 49.6311C-2.04956 60.9266 13.0925 69.4289 9.07642 79.0272C5.65003 87.2162 7.80347 95.1504 8.07656 97.5272C8.88787 104.588 16.6489 113.25 38.0768 119.027C51.8358 122.737 61.7842 123.596 81.7869 124.196C136.053 125.823 220.679 90.401 159.083 31.1174C152.522 24.8022 144.838 18.9924 137.198 16.549C117.001 10.0889 90.8135 10.1243 71.7985 19.8508C70.4526 20.3719 69.3474 20.2382 67.1314 21.9819" stroke="#D6E513" stroke-width="6" stroke-linecap="round"/>
</svg>
