<svg width="138" height="123" viewBox="0 0 138 123" fill="none" xmlns="http://www.w3.org/2000/svg">
<g clip-path="url(#clip0_2039_13342)">
<path d="M18.2541 43.5495C9.24441 58.2252 -1.27234 61.3999 0.127693 69.2319C1.54008 77.1462 12.8227 76.9321 16.747 88.116C19.5223 96.0303 15.0751 99.5674 17.5005 106.246C21.1035 116.158 35.6804 121.511 46.9589 122.108C67.5683 123.199 69.7713 93.8437 102.857 97.1832C123.253 99.2421 134.235 90.3684 136.85 82.8329C140.428 72.522 131.867 48.3425 111.167 40.5312C100.136 36.3722 87.9636 42.8989 83.2199 35.9975C76.9815 26.9343 85.4147 17.8835 80.1975 9.56151C72.8761 -2.12056 43.9571 -3.92414 31.0973 8.80796C22.0094 17.8053 28.9479 26.1437 18.2582 43.5536L18.2541 43.5495Z" fill="#FFDCC1"/>
<path d="M52.2378 71.8674C43.0099 67.0002 39.7322 57.9288 36.3762 48.6392C34.5603 43.6114 32.942 38.9789 33.5432 32.7776C34.5068 22.8332 40.4363 16.3518 42.0423 14.6471C53.1231 2.88266 68.8736 4.29094 70.3683 4.45153C72.6001 4.69036 87.8811 6.31275 93.5966 17.4801C96.7631 23.6691 94.5766 31.6164 90.1994 47.5068C86.6005 60.5724 84.7022 67.1814 80.0039 70.735C72.0978 76.7099 60.321 76.1293 52.2461 71.8674H52.2378Z" fill="#497A89"/>
<path d="M64.6984 46.2675C62.5407 46.2675 60.7289 44.5875 60.593 42.4051L59.4606 24.2746C59.3206 22.0057 61.0418 20.0498 63.3148 19.9098C65.5796 19.7657 67.5396 21.491 67.6797 23.764L68.812 41.8945C68.952 44.1634 67.2308 46.1193 64.9578 46.2593C64.8713 46.2634 64.7849 46.2675 64.6984 46.2675Z" fill="#E27B14"/>
<path d="M65.6619 58.3282C64.476 58.3282 63.2942 57.7929 62.3636 56.8211C61.3176 55.7258 60.7865 54.2722 60.9841 53.0328C61.0871 52.3781 61.3876 51.7645 61.8735 51.2127L62.0094 51.0604L62.1824 50.9533C63.8501 49.9198 65.7484 49.5656 67.3913 49.9939C68.4867 50.278 69.339 50.8833 69.7961 51.6986C70.3973 52.7693 70.3232 54.3011 69.6108 55.6888C68.8531 57.167 67.5437 58.1429 66.1025 58.3076C65.9542 58.3241 65.806 58.3323 65.6578 58.3323L65.6619 58.3282ZM63.8459 53.1975C63.7842 53.2922 63.743 53.3828 63.7307 53.4652C63.6812 53.7822 63.8871 54.3917 64.373 54.894C64.583 55.1123 65.1389 55.6105 65.7895 55.5364C66.3907 55.4664 66.8766 54.9105 67.1319 54.4122C67.4696 53.7575 67.449 53.2016 67.3625 53.0493C67.3131 52.9587 67.0907 52.7857 66.6913 52.6828C65.8513 52.4645 64.8013 52.6581 63.8418 53.1975H63.8459Z" fill="#E27B14"/>
<path d="M80.6628 108.561C78.2622 107.931 75.8533 106.922 73.5391 105.407C66.4525 100.77 61.8323 92.2173 61.1776 82.5283C60.5105 72.6209 64.0477 63.3025 70.6402 57.5952C76.3516 52.6498 84.6694 50.1174 92.8926 50.8215C99.9957 51.431 106.02 54.3463 109.858 59.0282C112.954 62.8125 114.622 67.832 114.684 73.5474C114.708 75.8204 112.884 77.6858 110.611 77.7064C108.338 77.7311 106.473 75.9069 106.452 73.6298C106.411 69.7509 105.415 66.5925 103.492 64.2413C101.112 61.3342 96.9939 59.4318 92.1967 59.02C86.2342 58.5094 80.0452 60.3459 76.0386 63.8131C71.3897 67.8361 68.9108 74.6263 69.4049 81.9683C69.8826 89.0961 73.1191 95.2768 78.0563 98.5052C87.5313 104.698 100.366 98.291 100.494 98.2252C102.52 97.1916 104.999 97.9946 106.032 100.02C107.066 102.046 106.267 104.521 104.245 105.559C103.669 105.855 92.2296 111.583 80.6752 108.552L80.6628 108.561Z" fill="#8C4A60"/>
<path d="M112.098 85.9997L86.4977 72.201C84.4965 71.1222 83.7471 68.6227 84.8259 66.6215C85.9048 64.6203 88.4043 63.8749 90.4055 64.9497L109.961 75.487L121.758 60.7413C123.179 58.9666 125.769 58.6742 127.548 60.099C129.322 61.5196 129.611 64.1097 128.19 65.8885L112.102 85.9997H112.098Z" fill="#8C4A60"/>
</g>
<defs>
<clipPath id="clip0_2039_13342">
<rect width="137.636" height="122.137" fill="white"/>
</clipPath>
</defs>
</svg>
