<svg width="56" height="43" viewBox="0 0 56 43" fill="none" xmlns="http://www.w3.org/2000/svg">
<g clip-path="url(#clip0_2025_5444)">
<path d="M0.701509 27.9415C-1.68566 19.469 3.16169 12.5043 4.04418 11.2345C8.39631 4.97454 14.8563 3.00322 18.7449 1.87947C36.928 -3.38054 55.9301 6.3935 55.4984 9.89807C55.2921 11.5773 50.705 11.1043 48.1464 15.2438C46.4545 17.9833 47.2259 20.1959 46.81 23.2624C45.6894 31.554 37.1661 36.8902 35.4487 37.9631C33.4489 39.217 23.3732 45.1437 12.7262 40.636C11.1612 39.9725 3.12994 36.5727 0.698335 27.9383L0.701509 27.9415Z" fill="#FFDCC1"/>
<path d="M0.641212 27.9603C-1.12377 21.6908 0.914212 14.8595 4.91716 9.86929C7.92969 6.03141 12.3612 3.56806 16.9609 2.12687C24.6176 -0.501553 33.0013 -0.577739 40.8453 1.2666C45.5434 2.43479 50.2765 4.04422 54.1588 7.05675C54.9842 7.79004 55.9809 8.62491 55.9968 9.85976C55.9016 11.4375 53.3525 11.7866 52.27 12.4057C51.5685 12.7294 50.9146 13.1135 50.3305 13.5834C49.1686 14.5135 48.283 15.8182 47.8735 17.2276C47.4513 18.6434 47.5973 20.2211 47.5274 21.8686C47.4259 26.9064 44.4324 31.4681 40.8294 34.7377C34.8266 40.185 26.5763 43.6991 18.3894 42.5849C10.4534 41.4294 2.84744 35.8488 0.638038 27.9603H0.641212ZM0.76184 27.9254C2.99346 35.671 10.701 40.9025 18.4942 41.7183C26.3604 42.4262 34.1917 39.001 39.9406 33.7632C43.3499 30.6649 46.1656 26.5414 46.337 21.8115C46.4259 20.1989 46.2926 18.5101 46.7878 16.907C47.2957 15.2468 48.3211 13.796 49.667 12.739C50.9558 11.6978 52.6002 11.1422 54.0763 10.555C54.5112 10.3391 54.9366 10.209 55.0032 9.80262C54.9334 8.99315 54.1302 8.33922 53.5398 7.79956C49.8321 4.87275 45.2038 3.24427 40.6548 2.06973C32.941 0.165076 24.7129 0.199994 17.126 2.65382C12.5707 4.0093 8.18364 6.31393 5.1235 10.0344C1.05071 14.9071 -1.01266 21.7035 0.76184 27.9254Z" fill="#7C5635"/>
<path d="M22.6749 6.53918C14.6976 7.74229 8.84075 16.4497 10.2407 24.4144C11.1168 29.3982 14.9896 34.9566 21.1194 36.0708C28.5158 37.4168 33.7663 31.3124 34.3314 30.6299C38.5788 25.5191 39.9025 16.8942 35.1091 11.2024C32.068 7.58992 27.154 5.86303 22.6749 6.53918Z" fill="#7C5635"/>
<path d="M25.7605 11.0694C25.6874 11.4535 27.0461 11.5233 28.1 12.9074C29.1158 14.2406 28.7476 15.3485 29.6047 15.7485C30.3475 16.0945 31.4998 15.6628 31.9442 14.9136C32.614 13.7867 31.5474 12.1614 30.6078 11.4058C28.7666 9.92339 25.8684 10.5234 25.7636 11.0725L25.7605 11.0694Z" fill="#FFDCC1"/>
</g>
<defs>
<clipPath id="clip0_2025_5444">
<rect width="56" height="42.788" fill="white"/>
</clipPath>
</defs>
</svg>
