<svg width="199" height="123" viewBox="0 0 199 123" fill="none" xmlns="http://www.w3.org/2000/svg">
<path d="M44.6327 66.5664H41.5174V53.9121C41.5174 53.0312 41.6893 52.29 42.0331 51.6885C42.384 51.0798 42.8745 50.6214 43.5047 50.3135C44.1421 49.9984 44.8976 49.8408 45.7713 49.8408C46.0578 49.8408 46.3335 49.8623 46.5985 49.9053C46.8635 49.9411 47.1213 49.9876 47.3719 50.0449L47.3397 52.376C47.2036 52.3402 47.0604 52.3151 46.91 52.3008C46.7596 52.2865 46.5842 52.2793 46.3836 52.2793C46.0112 52.2793 45.6926 52.3438 45.4276 52.4727C45.1698 52.5944 44.9728 52.777 44.8368 53.0205C44.7007 53.264 44.6327 53.5612 44.6327 53.9121V66.5664ZM46.953 54.9434V57.1348H39.7879V54.9434H46.953ZM54.7485 63.9453V58.7676C54.7485 58.3952 54.6876 58.0765 54.5659 57.8115C54.4441 57.5394 54.2543 57.3281 53.9965 57.1777C53.7459 57.0273 53.42 56.9521 53.019 56.9521C52.6752 56.9521 52.378 57.013 52.1274 57.1348C51.8767 57.2493 51.6834 57.4176 51.5473 57.6396C51.4112 57.8545 51.3432 58.1087 51.3432 58.4023H48.2495C48.2495 57.9082 48.364 57.4391 48.5932 56.9951C48.8224 56.5511 49.1554 56.1608 49.5922 55.8242C50.0291 55.4805 50.5483 55.2119 51.1499 55.0186C51.7586 54.8252 52.4389 54.7285 53.1909 54.7285C54.0932 54.7285 54.8953 54.8789 55.5971 55.1797C56.2989 55.4805 56.8504 55.9316 57.2514 56.5332C57.6596 57.1348 57.8637 57.8867 57.8637 58.7891V63.7627C57.8637 64.4001 57.9031 64.9229 57.9819 65.3311C58.0607 65.7321 58.1752 66.083 58.3256 66.3838V66.5664H55.1997C55.0493 66.2513 54.9347 65.8574 54.8559 65.3848C54.7843 64.9049 54.7485 64.4251 54.7485 63.9453ZM55.1567 59.4873L55.1782 61.2383H53.4487C53.0405 61.2383 52.686 61.2848 52.3852 61.3779C52.0844 61.471 51.8374 61.6035 51.644 61.7754C51.4506 61.9401 51.3074 62.1335 51.2143 62.3555C51.1284 62.5775 51.0854 62.821 51.0854 63.0859C51.0854 63.3509 51.1463 63.5908 51.268 63.8057C51.3898 64.0133 51.5652 64.1781 51.7944 64.2998C52.0236 64.4144 52.2921 64.4717 52.6 64.4717C53.0655 64.4717 53.4702 64.3786 53.8139 64.1924C54.1577 64.0062 54.4226 63.777 54.6088 63.5049C54.8022 63.2327 54.9025 62.9749 54.9096 62.7314L55.726 64.042C55.6114 64.3356 55.4539 64.64 55.2534 64.9551C55.06 65.2702 54.8129 65.5674 54.5122 65.8467C54.2114 66.1188 53.8497 66.3444 53.4272 66.5234C53.0047 66.6953 52.5034 66.7812 51.9233 66.7812C51.1857 66.7812 50.5161 66.6344 49.9145 66.3408C49.3201 66.04 48.8474 65.6283 48.4965 65.1055C48.1528 64.5755 47.9809 63.974 47.9809 63.3008C47.9809 62.6921 48.0955 62.1514 48.3247 61.6787C48.5538 61.2061 48.8904 60.8086 49.3344 60.4863C49.7856 60.1569 50.3478 59.9098 51.0209 59.7451C51.6941 59.5732 52.4747 59.4873 53.3627 59.4873H55.1567ZM63.2422 57.3496V66.5664H60.1377V54.9434H63.0489L63.2422 57.3496ZM62.8125 60.3467H61.9532C61.9532 59.5374 62.0499 58.7926 62.2432 58.1123C62.4437 57.4248 62.7338 56.8304 63.1133 56.3291C63.5 55.8206 63.9763 55.4268 64.542 55.1475C65.1078 54.8682 65.7631 54.7285 66.5079 54.7285C67.0235 54.7285 67.4961 54.8073 67.9258 54.9648C68.3555 55.1152 68.7243 55.3551 69.0323 55.6846C69.3474 56.0068 69.5909 56.4294 69.7627 56.9521C69.9346 57.4678 70.0206 58.0872 70.0206 58.8105V66.5664H66.9268V59.1543C66.9268 58.6243 66.8552 58.2161 66.712 57.9297C66.5687 57.6432 66.3646 57.4427 66.0997 57.3281C65.8418 57.2135 65.5303 57.1562 65.1651 57.1562C64.764 57.1562 64.4131 57.2386 64.1124 57.4033C63.8187 57.568 63.5752 57.7972 63.3819 58.0908C63.1885 58.3773 63.0453 58.7139 62.9522 59.1006C62.8591 59.4873 62.8125 59.9027 62.8125 60.3467ZM69.7305 59.9922L68.6241 60.1318C68.6241 59.3727 68.7172 58.6673 68.9034 58.0156C69.0967 57.3639 69.3796 56.791 69.752 56.2969C70.1316 55.8027 70.6006 55.4196 71.1592 55.1475C71.7178 54.8682 72.3624 54.7285 73.0928 54.7285C73.6514 54.7285 74.1599 54.8109 74.6182 54.9756C75.0765 55.1331 75.4668 55.3874 75.7891 55.7383C76.1185 56.082 76.3692 56.5332 76.5411 57.0918C76.7201 57.6504 76.8096 58.3343 76.8096 59.1436V66.5664H73.7051V59.1436C73.7051 58.6064 73.6335 58.1982 73.4903 57.9189C73.3542 57.6325 73.1537 57.4355 72.8887 57.3281C72.6309 57.2135 72.323 57.1562 71.9649 57.1562C71.5925 57.1562 71.2667 57.2314 70.9874 57.3818C70.7081 57.5251 70.4753 57.7256 70.2891 57.9834C70.1029 58.2412 69.9633 58.542 69.8702 58.8857C69.7771 59.2223 69.7305 59.5911 69.7305 59.9922ZM82.3708 54.9434V66.5664H79.2663V54.9434H82.3708ZM79.0729 51.9141C79.0729 51.4629 79.2305 51.0905 79.5456 50.7969C79.8607 50.5033 80.2832 50.3564 80.8131 50.3564C81.3359 50.3564 81.7549 50.5033 82.07 50.7969C82.3922 51.0905 82.5534 51.4629 82.5534 51.9141C82.5534 52.3652 82.3922 52.7376 82.07 53.0312C81.7549 53.3249 81.3359 53.4717 80.8131 53.4717C80.2832 53.4717 79.8607 53.3249 79.5456 53.0312C79.2305 52.7376 79.0729 52.3652 79.0729 51.9141ZM88.093 50.0664V66.5664H84.9885V50.0664H88.093ZM93.8153 54.9434V66.5664H90.7108V54.9434H93.8153ZM90.5174 51.9141C90.5174 51.4629 90.675 51.0905 90.9901 50.7969C91.3052 50.5033 91.7277 50.3564 92.2577 50.3564C92.7805 50.3564 93.1994 50.5033 93.5145 50.7969C93.8368 51.0905 93.9979 51.4629 93.9979 51.9141C93.9979 52.3652 93.8368 52.7376 93.5145 53.0312C93.1994 53.3249 92.7805 53.4717 92.2577 53.4717C91.7277 53.4717 91.3052 53.3249 90.9901 53.0312C90.675 52.7376 90.5174 52.3652 90.5174 51.9141ZM102.545 63.9453V58.7676C102.545 58.3952 102.484 58.0765 102.363 57.8115C102.241 57.5394 102.051 57.3281 101.793 57.1777C101.543 57.0273 101.217 56.9521 100.816 56.9521C100.472 56.9521 100.175 57.013 99.9243 57.1348C99.6736 57.2493 99.4803 57.4176 99.3442 57.6396C99.2081 57.8545 99.1401 58.1087 99.1401 58.4023H96.0463C96.0463 57.9082 96.1609 57.4391 96.3901 56.9951C96.6193 56.5511 96.9523 56.1608 97.3891 55.8242C97.826 55.4805 98.3452 55.2119 98.9467 55.0186C99.5555 54.8252 100.236 54.7285 100.988 54.7285C101.89 54.7285 102.692 54.8789 103.394 55.1797C104.096 55.4805 104.647 55.9316 105.048 56.5332C105.456 57.1348 105.661 57.8867 105.661 58.7891V63.7627C105.661 64.4001 105.7 64.9229 105.779 65.3311C105.858 65.7321 105.972 66.083 106.123 66.3838V66.5664H102.997C102.846 66.2513 102.732 65.8574 102.653 65.3848C102.581 64.9049 102.545 64.4251 102.545 63.9453ZM102.954 59.4873L102.975 61.2383H101.246C100.837 61.2383 100.483 61.2848 100.182 61.3779C99.8813 61.471 99.6342 61.6035 99.4409 61.7754C99.2475 61.9401 99.1043 62.1335 99.0112 62.3555C98.9252 62.5775 98.8823 62.821 98.8823 63.0859C98.8823 63.3509 98.9432 63.5908 99.0649 63.8057C99.1866 64.0133 99.3621 64.1781 99.5913 64.2998C99.8204 64.4144 100.089 64.4717 100.397 64.4717C100.862 64.4717 101.267 64.3786 101.611 64.1924C101.955 64.0062 102.22 63.777 102.406 63.5049C102.599 63.2327 102.699 62.9749 102.706 62.7314L103.523 64.042C103.408 64.3356 103.251 64.64 103.05 64.9551C102.857 65.2702 102.61 65.5674 102.309 65.8467C102.008 66.1188 101.647 66.3444 101.224 66.5234C100.802 66.6953 100.3 66.7812 99.7202 66.7812C98.9825 66.7812 98.3129 66.6344 97.7114 66.3408C97.117 66.04 96.6443 65.6283 96.2934 65.1055C95.9497 64.5755 95.7778 63.974 95.7778 63.3008C95.7778 62.6921 95.8924 62.1514 96.1215 61.6787C96.3507 61.2061 96.6873 60.8086 97.1313 60.4863C97.5825 60.1569 98.1446 59.9098 98.8178 59.7451C99.491 59.5732 100.272 59.4873 101.16 59.4873H102.954ZM111.039 57.4785V66.5664H107.945V54.9434H110.856L111.039 57.4785ZM114.541 54.8682L114.487 57.7363C114.337 57.7148 114.154 57.6969 113.94 57.6826C113.732 57.6611 113.542 57.6504 113.37 57.6504C112.933 57.6504 112.554 57.7077 112.231 57.8223C111.916 57.9297 111.651 58.0908 111.437 58.3057C111.229 58.5205 111.071 58.7819 110.964 59.0898C110.864 59.3978 110.806 59.7487 110.792 60.1426L110.169 59.9492C110.169 59.1973 110.244 58.5062 110.395 57.876C110.545 57.2386 110.763 56.6836 111.05 56.2109C111.343 55.7383 111.702 55.373 112.124 55.1152C112.547 54.8574 113.03 54.7285 113.574 54.7285C113.746 54.7285 113.922 54.7428 114.101 54.7715C114.28 54.793 114.426 54.8252 114.541 54.8682ZM125.223 66.5664H122.108V53.9121C122.108 53.0312 122.28 52.29 122.623 51.6885C122.974 51.0798 123.465 50.6214 124.095 50.3135C124.732 49.9984 125.488 49.8408 126.362 49.8408C126.648 49.8408 126.924 49.8623 127.189 49.9053C127.454 49.9411 127.712 49.9876 127.962 50.0449L127.93 52.376C127.794 52.3402 127.651 52.3151 127.5 52.3008C127.35 52.2865 127.174 52.2793 126.974 52.2793C126.601 52.2793 126.283 52.3438 126.018 52.4727C125.76 52.5944 125.563 52.777 125.427 53.0205C125.291 53.264 125.223 53.5612 125.223 53.9121V66.5664ZM127.543 54.9434V57.1348H120.378V54.9434H127.543ZM135.339 63.9453V58.7676C135.339 58.3952 135.278 58.0765 135.156 57.8115C135.034 57.5394 134.845 57.3281 134.587 57.1777C134.336 57.0273 134.01 56.9521 133.609 56.9521C133.265 56.9521 132.968 57.013 132.718 57.1348C132.467 57.2493 132.274 57.4176 132.138 57.6396C132.001 57.8545 131.933 58.1087 131.933 58.4023H128.84C128.84 57.9082 128.954 57.4391 129.183 56.9951C129.413 56.5511 129.746 56.1608 130.182 55.8242C130.619 55.4805 131.139 55.2119 131.74 55.0186C132.349 54.8252 133.029 54.7285 133.781 54.7285C134.683 54.7285 135.486 54.8789 136.187 55.1797C136.889 55.4805 137.441 55.9316 137.842 56.5332C138.25 57.1348 138.454 57.8867 138.454 58.7891V63.7627C138.454 64.4001 138.493 64.9229 138.572 65.3311C138.651 65.7321 138.765 66.083 138.916 66.3838V66.5664H135.79C135.64 66.2513 135.525 65.8574 135.446 65.3848C135.375 64.9049 135.339 64.4251 135.339 63.9453ZM135.747 59.4873L135.768 61.2383H134.039C133.631 61.2383 133.276 61.2848 132.975 61.3779C132.675 61.471 132.428 61.6035 132.234 61.7754C132.041 61.9401 131.898 62.1335 131.805 62.3555C131.719 62.5775 131.676 62.821 131.676 63.0859C131.676 63.3509 131.737 63.5908 131.858 63.8057C131.98 64.0133 132.155 64.1781 132.385 64.2998C132.614 64.4144 132.882 64.4717 133.19 64.4717C133.656 64.4717 134.06 64.3786 134.404 64.1924C134.748 64.0062 135.013 63.777 135.199 63.5049C135.392 63.2327 135.493 62.9749 135.5 62.7314L136.316 64.042C136.202 64.3356 136.044 64.64 135.844 64.9551C135.65 65.2702 135.403 65.5674 135.102 65.8467C134.802 66.1188 134.44 66.3444 134.017 66.5234C133.595 66.6953 133.094 66.7812 132.514 66.7812C131.776 66.7812 131.106 66.6344 130.505 66.3408C129.91 66.04 129.438 65.6283 129.087 65.1055C128.743 64.5755 128.571 63.974 128.571 63.3008C128.571 62.6921 128.686 62.1514 128.915 61.6787C129.144 61.2061 129.481 60.8086 129.925 60.4863C130.376 60.1569 130.938 59.9098 131.611 59.7451C132.284 59.5732 133.065 59.4873 133.953 59.4873H135.747ZM145.54 64.3643C145.92 64.3643 146.257 64.2926 146.55 64.1494C146.844 63.999 147.073 63.7913 147.238 63.5264C147.41 63.2542 147.499 62.9355 147.506 62.5703H150.417C150.41 63.3867 150.192 64.1136 149.762 64.751C149.332 65.3812 148.756 65.8789 148.033 66.2441C147.309 66.6022 146.5 66.7812 145.605 66.7812C144.703 66.7812 143.915 66.6309 143.242 66.3301C142.576 66.0293 142.021 65.6139 141.577 65.084C141.133 64.5469 140.8 63.9238 140.578 63.2148C140.356 62.4987 140.245 61.7324 140.245 60.916V60.6045C140.245 59.7809 140.356 59.0146 140.578 58.3057C140.8 57.5895 141.133 56.9665 141.577 56.4365C142.021 55.8994 142.576 55.4805 143.242 55.1797C143.908 54.8789 144.688 54.7285 145.583 54.7285C146.536 54.7285 147.37 54.9111 148.086 55.2764C148.81 55.6416 149.375 56.1644 149.784 56.8447C150.199 57.5179 150.41 58.3164 150.417 59.2402H147.506C147.499 58.8535 147.417 58.5026 147.259 58.1875C147.109 57.8724 146.887 57.6217 146.593 57.4355C146.307 57.2422 145.952 57.1455 145.53 57.1455C145.079 57.1455 144.71 57.2422 144.423 57.4355C144.137 57.6217 143.915 57.8796 143.757 58.209C143.6 58.5312 143.489 58.9001 143.424 59.3154C143.367 59.7236 143.338 60.1533 143.338 60.6045V60.916C143.338 61.3672 143.367 61.8005 143.424 62.2158C143.482 62.6312 143.589 63 143.747 63.3223C143.911 63.6445 144.137 63.8988 144.423 64.085C144.71 64.2712 145.082 64.3643 145.54 64.3643ZM157.461 66.7812C156.559 66.7812 155.749 66.638 155.033 66.3516C154.317 66.0579 153.708 65.6533 153.207 65.1377C152.713 64.6221 152.333 64.0241 152.068 63.3438C151.803 62.6562 151.671 61.9258 151.671 61.1523V60.7227C151.671 59.8418 151.796 59.0361 152.047 58.3057C152.298 57.5752 152.656 56.9414 153.121 56.4043C153.594 55.8672 154.167 55.4554 154.84 55.1689C155.513 54.8753 156.272 54.7285 157.117 54.7285C157.941 54.7285 158.671 54.8646 159.309 55.1367C159.946 55.4089 160.48 55.7956 160.909 56.2969C161.346 56.7982 161.676 57.3997 161.898 58.1016C162.12 58.7962 162.231 59.5697 162.231 60.4219V61.7109H152.992V59.6484H159.19V59.4121C159.19 58.9824 159.112 58.5993 158.954 58.2627C158.804 57.9189 158.575 57.6468 158.267 57.4463C157.959 57.2458 157.565 57.1455 157.085 57.1455C156.677 57.1455 156.326 57.235 156.032 57.4141C155.739 57.5931 155.499 57.8438 155.313 58.166C155.134 58.4883 154.997 58.8678 154.904 59.3047C154.818 59.7344 154.775 60.207 154.775 60.7227V61.1523C154.775 61.6178 154.84 62.0475 154.969 62.4414C155.105 62.8353 155.295 63.1755 155.538 63.4619C155.789 63.7484 156.09 63.9704 156.44 64.1279C156.799 64.2855 157.203 64.3643 157.654 64.3643C158.213 64.3643 158.732 64.2568 159.212 64.042C159.699 63.82 160.118 63.487 160.469 63.043L161.973 64.6758C161.729 65.0267 161.396 65.3633 160.974 65.6855C160.558 66.0078 160.057 66.2728 159.47 66.4805C158.883 66.681 158.213 66.7812 157.461 66.7812ZM170.176 63.3545C170.176 63.1325 170.112 62.932 169.983 62.7529C169.854 62.5739 169.614 62.4092 169.263 62.2588C168.92 62.1012 168.422 61.958 167.77 61.8291C167.183 61.7002 166.635 61.5391 166.127 61.3457C165.625 61.1452 165.188 60.9053 164.816 60.626C164.451 60.3467 164.164 60.0173 163.957 59.6377C163.749 59.251 163.645 58.8105 163.645 58.3164C163.645 57.8294 163.749 57.3711 163.957 56.9414C164.172 56.5117 164.476 56.1322 164.87 55.8027C165.271 55.4661 165.758 55.2048 166.331 55.0186C166.911 54.8252 167.562 54.7285 168.286 54.7285C169.296 54.7285 170.162 54.8896 170.885 55.2119C171.616 55.5342 172.174 55.9782 172.561 56.5439C172.955 57.1025 173.152 57.7399 173.152 58.4561H170.058C170.058 58.1553 169.994 57.8867 169.865 57.6504C169.743 57.4069 169.55 57.2171 169.285 57.0811C169.027 56.9378 168.69 56.8662 168.275 56.8662C167.931 56.8662 167.634 56.9271 167.383 57.0488C167.133 57.1634 166.939 57.321 166.803 57.5215C166.674 57.7148 166.61 57.9297 166.61 58.166C166.61 58.3451 166.646 58.5062 166.717 58.6494C166.796 58.7855 166.922 58.9108 167.093 59.0254C167.265 59.14 167.487 59.2474 167.759 59.3477C168.039 59.4408 168.382 59.5267 168.791 59.6055C169.629 59.7773 170.377 60.0029 171.036 60.2822C171.695 60.5544 172.217 60.9268 172.604 61.3994C172.991 61.8649 173.184 62.4772 173.184 63.2363C173.184 63.752 173.07 64.2246 172.84 64.6543C172.611 65.084 172.282 65.46 171.852 65.7822C171.423 66.0973 170.907 66.3444 170.305 66.5234C169.711 66.6953 169.041 66.7812 168.297 66.7812C167.215 66.7812 166.298 66.5879 165.547 66.2012C164.802 65.8145 164.236 65.3239 163.849 64.7295C163.47 64.1279 163.28 63.512 163.28 62.8818H166.213C166.227 63.3044 166.334 63.6445 166.535 63.9023C166.742 64.1602 167.004 64.3464 167.319 64.4609C167.641 64.5755 167.989 64.6328 168.361 64.6328C168.762 64.6328 169.095 64.5791 169.36 64.4717C169.625 64.3571 169.826 64.2067 169.962 64.0205C170.105 63.8271 170.176 63.6051 170.176 63.3545ZM61.409 82.873V82.6475C61.409 81.7952 61.5308 81.0111 61.7743 80.2949C62.0178 79.5716 62.3723 78.945 62.8377 78.415C63.3032 77.8851 63.8762 77.4733 64.5565 77.1797C65.2368 76.8789 66.0174 76.7285 66.8983 76.7285C67.7792 76.7285 68.5633 76.8789 69.2508 77.1797C69.9383 77.4733 70.5148 77.8851 70.9803 78.415C71.453 78.945 71.8111 79.5716 72.0545 80.2949C72.298 81.0111 72.4198 81.7952 72.4198 82.6475V82.873C72.4198 83.7181 72.298 84.5023 72.0545 85.2256C71.8111 85.9417 71.453 86.5684 70.9803 87.1055C70.5148 87.6354 69.9419 88.0472 69.2616 88.3408C68.5812 88.6344 67.8006 88.7812 66.9198 88.7812C66.0389 88.7812 65.2547 88.6344 64.5672 88.3408C63.8869 88.0472 63.3104 87.6354 62.8377 87.1055C62.3723 86.5684 62.0178 85.9417 61.7743 85.2256C61.5308 84.5023 61.409 83.7181 61.409 82.873ZM64.5028 82.6475V82.873C64.5028 83.36 64.5458 83.8148 64.6317 84.2373C64.7176 84.6598 64.8537 85.0322 65.0399 85.3545C65.2333 85.6696 65.4839 85.9167 65.7918 86.0957C66.0998 86.2747 66.4758 86.3643 66.9198 86.3643C67.3495 86.3643 67.7183 86.2747 68.0262 86.0957C68.3342 85.9167 68.5812 85.6696 68.7674 85.3545C68.9536 85.0322 69.0897 84.6598 69.1756 84.2373C69.2687 83.8148 69.3153 83.36 69.3153 82.873V82.6475C69.3153 82.1748 69.2687 81.7308 69.1756 81.3154C69.0897 80.8929 68.9501 80.5205 68.7567 80.1982C68.5705 79.8688 68.3234 79.611 68.0155 79.4248C67.7075 79.2386 67.3351 79.1455 66.8983 79.1455C66.4614 79.1455 66.089 79.2386 65.7811 79.4248C65.4803 79.611 65.2333 79.8688 65.0399 80.1982C64.8537 80.5205 64.7176 80.8929 64.6317 81.3154C64.5458 81.7308 64.5028 82.1748 64.5028 82.6475ZM78.0024 86.3105L80.5805 76.9434H83.8139L79.893 88.5664H77.9379L78.0024 86.3105ZM76.2299 76.9434L78.8188 86.3213L78.8725 88.5664H76.9067L72.9858 76.9434H76.2299ZM90.2989 88.7812C89.3965 88.7812 88.5873 88.638 87.8711 88.3516C87.155 88.0579 86.5463 87.6533 86.045 87.1377C85.5508 86.6221 85.1713 86.0241 84.9063 85.3438C84.6413 84.6562 84.5088 83.9258 84.5088 83.1523V82.7227C84.5088 81.8418 84.6342 81.0361 84.8848 80.3057C85.1355 79.5752 85.4935 78.9414 85.959 78.4043C86.4317 77.8672 87.0046 77.4554 87.6778 77.1689C88.351 76.8753 89.1101 76.7285 89.9551 76.7285C90.7787 76.7285 91.5092 76.8646 92.1465 77.1367C92.7839 77.4089 93.3174 77.7956 93.7471 78.2969C94.184 78.7982 94.5134 79.3997 94.7354 80.1016C94.9574 80.7962 95.0684 81.5697 95.0684 82.4219V83.7109H85.8301V81.6484H92.0284V81.4121C92.0284 80.9824 91.9496 80.5993 91.792 80.2627C91.6417 79.9189 91.4125 79.6468 91.1045 79.4463C90.7966 79.2458 90.4027 79.1455 89.9229 79.1455C89.5147 79.1455 89.1638 79.235 88.8702 79.4141C88.5765 79.5931 88.3366 79.8438 88.1504 80.166C87.9714 80.4883 87.8353 80.8678 87.7422 81.3047C87.6563 81.7344 87.6133 82.207 87.6133 82.7227V83.1523C87.6133 83.6178 87.6778 84.0475 87.8067 84.4414C87.9428 84.8353 88.1325 85.1755 88.376 85.4619C88.6267 85.7484 88.9275 85.9704 89.2784 86.1279C89.6364 86.2855 90.0411 86.3643 90.4922 86.3643C91.0508 86.3643 91.57 86.2568 92.0499 86.042C92.5368 85.82 92.9558 85.487 93.3067 85.043L94.8106 86.6758C94.5671 87.0267 94.2341 87.3633 93.8116 87.6855C93.3962 88.0078 92.8949 88.2728 92.3077 88.4805C91.7204 88.681 91.0508 88.7812 90.2989 88.7812ZM99.8239 79.4785V88.5664H96.7301V76.9434H99.6413L99.8239 79.4785ZM103.326 76.8682L103.272 79.7363C103.122 79.7148 102.939 79.6969 102.724 79.6826C102.517 79.6611 102.327 79.6504 102.155 79.6504C101.718 79.6504 101.339 79.7077 101.016 79.8223C100.701 79.9297 100.436 80.0908 100.221 80.3057C100.014 80.5205 99.8561 80.7819 99.7487 81.0898C99.6484 81.3978 99.5911 81.7487 99.5768 82.1426L98.9538 81.9492C98.9538 81.1973 99.029 80.5062 99.1793 79.876C99.3297 79.2386 99.5482 78.6836 99.8346 78.2109C100.128 77.7383 100.486 77.373 100.909 77.1152C101.331 76.8574 101.815 76.7285 102.359 76.7285C102.531 76.7285 102.706 76.7428 102.885 76.7715C103.064 76.793 103.211 76.8252 103.326 76.8682ZM115.759 76.9434V79.1348H108.991V76.9434H115.759ZM110.667 74.0752H113.761V85.0645C113.761 85.401 113.804 85.6589 113.89 85.8379C113.983 86.0169 114.119 86.1423 114.298 86.2139C114.477 86.2783 114.702 86.3105 114.974 86.3105C115.168 86.3105 115.34 86.3034 115.49 86.2891C115.648 86.2676 115.78 86.2461 115.888 86.2246L115.898 88.502C115.633 88.5879 115.347 88.6559 115.039 88.7061C114.731 88.7562 114.391 88.7812 114.018 88.7812C113.338 88.7812 112.744 88.6702 112.235 88.4482C111.734 88.2191 111.347 87.8538 111.075 87.3525C110.803 86.8512 110.667 86.1924 110.667 85.376V74.0752ZM120.686 76.9434V88.5664H117.581V76.9434H120.686ZM117.388 73.9141C117.388 73.4629 117.546 73.0905 117.861 72.7969C118.176 72.5033 118.598 72.3564 119.128 72.3564C119.651 72.3564 120.07 72.5033 120.385 72.7969C120.707 73.0905 120.869 73.4629 120.869 73.9141C120.869 74.3652 120.707 74.7376 120.385 75.0312C120.07 75.3249 119.651 75.4717 119.128 75.4717C118.598 75.4717 118.176 75.3249 117.861 75.0312C117.546 74.7376 117.388 74.3652 117.388 73.9141ZM126.236 79.3496V88.5664H123.132V76.9434H126.043L126.236 79.3496ZM125.807 82.3467H124.947C124.947 81.5374 125.044 80.7926 125.237 80.1123C125.438 79.4248 125.728 78.8304 126.107 78.3291C126.494 77.8206 126.97 77.4268 127.536 77.1475C128.102 76.8682 128.757 76.7285 129.502 76.7285C130.018 76.7285 130.49 76.8073 130.92 76.9648C131.35 77.1152 131.718 77.3551 132.026 77.6846C132.342 78.0068 132.585 78.4294 132.757 78.9521C132.929 79.4678 133.015 80.0872 133.015 80.8105V88.5664H129.921V81.1543C129.921 80.6243 129.849 80.2161 129.706 79.9297C129.563 79.6432 129.359 79.4427 129.094 79.3281C128.836 79.2135 128.524 79.1562 128.159 79.1562C127.758 79.1562 127.407 79.2386 127.106 79.4033C126.813 79.568 126.569 79.7972 126.376 80.0908C126.183 80.3773 126.039 80.7139 125.946 81.1006C125.853 81.4873 125.807 81.9027 125.807 82.3467ZM132.725 81.9922L131.618 82.1318C131.618 81.3727 131.711 80.6673 131.898 80.0156C132.091 79.3639 132.374 78.791 132.746 78.2969C133.126 77.8027 133.595 77.4196 134.153 77.1475C134.712 76.8682 135.356 76.7285 136.087 76.7285C136.646 76.7285 137.154 76.8109 137.612 76.9756C138.071 77.1331 138.461 77.3874 138.783 77.7383C139.113 78.082 139.363 78.5332 139.535 79.0918C139.714 79.6504 139.804 80.3343 139.804 81.1436V88.5664H136.699V81.1436C136.699 80.6064 136.628 80.1982 136.484 79.9189C136.348 79.6325 136.148 79.4355 135.883 79.3281C135.625 79.2135 135.317 79.1562 134.959 79.1562C134.587 79.1562 134.261 79.2314 133.981 79.3818C133.702 79.5251 133.469 79.7256 133.283 79.9834C133.097 80.2412 132.957 80.542 132.864 80.8857C132.771 81.2223 132.725 81.5911 132.725 81.9922ZM147.449 88.7812C146.547 88.7812 145.737 88.638 145.021 88.3516C144.305 88.0579 143.696 87.6533 143.195 87.1377C142.701 86.6221 142.321 86.0241 142.056 85.3438C141.791 84.6562 141.659 83.9258 141.659 83.1523V82.7227C141.659 81.8418 141.784 81.0361 142.035 80.3057C142.285 79.5752 142.644 78.9414 143.109 78.4043C143.582 77.8672 144.155 77.4554 144.828 77.1689C145.501 76.8753 146.26 76.7285 147.105 76.7285C147.929 76.7285 148.659 76.8646 149.297 77.1367C149.934 77.4089 150.467 77.7956 150.897 78.2969C151.334 78.7982 151.663 79.3997 151.885 80.1016C152.107 80.7962 152.218 81.5697 152.218 82.4219V83.7109H142.98V81.6484H149.178V81.4121C149.178 80.9824 149.1 80.5993 148.942 80.2627C148.792 79.9189 148.562 79.6468 148.255 79.4463C147.947 79.2458 147.553 79.1455 147.073 79.1455C146.665 79.1455 146.314 79.235 146.02 79.4141C145.727 79.5931 145.487 79.8438 145.3 80.166C145.121 80.4883 144.985 80.8678 144.892 81.3047C144.806 81.7344 144.763 82.207 144.763 82.7227V83.1523C144.763 83.6178 144.828 84.0475 144.957 84.4414C145.093 84.8353 145.283 85.1755 145.526 85.4619C145.777 85.7484 146.077 85.9704 146.428 86.1279C146.786 86.2855 147.191 86.3643 147.642 86.3643C148.201 86.3643 148.72 86.2568 149.2 86.042C149.687 85.82 150.106 85.487 150.457 85.043L151.961 86.6758C151.717 87.0267 151.384 87.3633 150.962 87.6855C150.546 88.0078 150.045 88.2728 149.458 88.4805C148.87 88.681 148.201 88.7812 147.449 88.7812Z" fill="#FFB1C8"/>
<path d="M78.8104 13.2579C64.3374 21.8261 52.1501 29.5355 44.1461 35.3526C24.2533 49.81 10.8024 65.2056 4.03335 89.1188C-3.10587 114.34 28.4712 115.835 45.3142 118.259C59.4192 120.288 79.8057 119.772 99.7355 117.964C119.665 116.157 138.592 112.202 149.455 109.341C177.166 102.043 203.395 71.1674 193.236 46.9167C189.739 38.5663 177.321 25.3413 165.29 16.2737C158.017 10.7925 149.691 5.94788 141.813 4.43994C125.467 1.31078 107.569 3.59843 91.7695 8.25471C86.1313 10.9211 82.2009 12.2592 77.2838 15.5747C76.0103 16.2537 74.897 16.2537 72.9065 18.251" stroke="#FFB1C8" stroke-width="6" stroke-linecap="round"/>
</svg>
