<svg width="473" height="336" viewBox="0 0 473 336" fill="none" xmlns="http://www.w3.org/2000/svg">
<path d="M343.282 22.3315C338.8 23.1914 307.761 29.6627 292.724 58.2543C280.035 82.381 280.079 119.676 306.03 139.415C326.613 155.07 357.156 154.849 380.538 138.087C353.97 137.932 330.196 122.008 320.665 98.1733C310.021 71.5441 319.166 40.0531 343.282 22.3371V22.3315Z" fill="#D6E513"/>
<path d="M369.393 22.3315C367.067 27.6508 364.735 32.9755 362.409 38.2947C353.071 36.2442 345.729 36.1505 344.946 38.2947C344.152 40.4665 349.99 45.2235 358.914 49.7711C350.651 61.8096 352.366 64.5932 352.928 65.2382C355.7 68.4021 369.387 63.9208 371.89 56.2589C372.733 53.6681 372.253 50.8625 372.887 50.7688C373.902 50.6199 374.155 57.896 379.375 62.2451C382.049 64.4665 385.88 65.8114 386.861 64.7421C388.911 62.4931 376.829 51.353 379.877 46.2819C381.817 43.0517 388.663 44.3471 388.856 42.7872C389.082 40.9626 379.546 40.3673 373.891 33.8079C370.787 30.2139 369.74 25.8538 369.398 22.3315H369.393Z" fill="#D6E513"/>
<path d="M253.804 162.661C240.376 175.097 233.663 181.314 232.571 182.378C200.182 213.935 153.604 270.738 161.288 279.453C170.835 290.279 261.731 224.022 264.426 227.886C267.292 231.993 158.488 298.519 168.873 323.44C174.501 336.945 216.299 341.09 241.677 323.44C265.826 306.644 265.506 276.779 285.664 273.389C297.124 271.46 302.559 280.213 315.998 285.522C360.839 303.243 431.962 257.829 428.236 236.987C425.932 224.111 394.022 214.801 369.085 218.786C349.374 221.933 337.142 232.886 334.199 229.402C331.862 226.635 338.096 217.943 359.985 185.415C375.209 162.799 380.043 155.33 378.186 145.981C376.416 137.079 368.644 126.805 359.985 126.264C336.79 124.809 317.425 193.788 309.934 191.484C302.669 189.252 321.719 124.633 308.419 118.68C304.108 116.75 298.034 121.711 253.815 162.667L253.804 162.661Z" fill="#8C4A60"/>
<path d="M21.1879 137.242C-18.7551 189.066 2.56487 289.74 45.4295 306.913C52.7132 309.835 58.7608 309.589 77.7516 306.913C139.566 298.199 179.928 286.094 215.1 277.288C289.766 258.603 306.857 263.384 317.44 244.966C325.132 231.583 320.872 210.723 312.056 169.554C301.779 121.582 296.631 97.5955 282.431 86.0621C268.62 74.8454 249.905 72.1996 161.233 91.4457C77.3532 109.66 35.1322 119.13 21.1879 137.232V137.242Z" fill="#497A89"/>
<path d="M42.7326 156.089C54.2353 163.067 71.5609 172.434 93.9024 180.331C117.306 188.595 137.492 195.726 163.93 193.795C177.915 192.774 205.508 190.751 228.564 169.553C256.729 143.657 258.087 107.576 258.19 99.5256" stroke="#E1E2C7" stroke-width="8.625" stroke-miterlimit="10" stroke-linecap="round"/>
<path d="M88.5188 64.5172C88.1102 61.2073 85.7402 38.9782 101.983 21.4278C103.444 19.8546 122.608 -0.23945 145.072 5.26675C165.228 10.2111 180.663 33.9521 177.394 61.8202" stroke="#497A89" stroke-width="8.625" stroke-miterlimit="10" stroke-linecap="round"/>
<path d="M385.627 317.08C370.512 317.08 355.867 312.968 343.31 305.058C314.592 286.962 299.835 250.813 307.42 217.161C315.369 181.9 343.861 164.928 352.399 160.568C354.737 159.372 357.603 160.303 358.794 162.64C359.99 164.978 359.058 167.844 356.721 169.035C351.302 171.802 323.913 187.225 316.692 219.25C309.972 249.049 323.003 281.025 348.376 297.016C377.695 315.493 418.204 309.286 442.6 282.574C465.283 257.742 469.643 217.095 452.12 193.817C439.789 177.435 416.274 170.33 402.229 166.08C393.68 163.495 384.811 161.72 375.876 160.81C373.263 160.546 371.361 158.209 371.631 155.601C371.896 152.989 374.228 151.087 376.84 151.357C386.382 152.333 395.846 154.223 404.98 156.985C420.144 161.566 445.522 169.239 459.716 188.101C469.224 200.729 473.678 218.765 471.942 237.578C470.156 256.926 462.229 275.182 449.617 288.985C436.818 302.997 419.207 312.533 400.035 315.84C395.218 316.672 390.395 317.08 385.621 317.08H385.627Z" fill="#E27B14"/>
<path d="M389.017 253.36C386.724 253.36 384.574 252.858 382.65 251.717C369.36 243.813 376.306 213.071 387.236 186.944C388.25 184.524 391.034 183.383 393.454 184.392C395.874 185.406 397.02 188.189 396.006 190.609C382.281 223.423 383.703 241.277 387.512 243.542C390.83 245.521 402.665 239.761 416.726 226.708C418.65 224.922 421.66 225.033 423.446 226.956C425.232 228.88 425.121 231.89 423.198 233.676C414.637 241.63 400.118 253.36 389.022 253.36H389.017Z" fill="#E27B14"/>
</svg>
