<svg width="528" height="320" viewBox="0 0 528 320" fill="none" xmlns="http://www.w3.org/2000/svg">
<g clip-path="url(#clip0_2014_37274)">
<path d="M397.958 138.566C395.16 138.566 392.218 138.288 389.174 137.635C383.741 136.469 378.595 134.232 373.886 130.982L374.453 130.162C379.056 133.334 384.082 135.523 389.386 136.661C403.68 139.728 415.608 134.342 421.445 130.858L421.954 131.717C417.23 134.534 408.605 138.571 397.958 138.571V138.566Z" fill="#E27B14"/>
<path d="M407.846 151.69C401.04 151.69 392.736 150.422 384.307 146.054C379.176 143.395 374.544 139.858 370.541 135.538L371.27 134.861C375.192 139.099 379.733 142.565 384.763 145.171C396.221 151.109 407.448 151.205 414.854 150.24L414.984 151.229C412.882 151.502 410.472 151.69 407.846 151.69Z" fill="#E27B14"/>
<path d="M386.155 157.709C382.656 157.709 379.291 156.979 376.267 155.448C370.282 152.424 367.008 146.991 365.314 142.963L366.235 142.579C367.862 146.453 371.006 151.671 376.718 154.56C387.014 159.763 401.496 155.299 411.154 143.947L411.912 144.595C404.774 152.991 395.04 157.709 386.155 157.709Z" fill="#E27B14"/>
<path d="M351.24 130.661C346.013 129.955 341.122 128.294 336.696 125.726C324.778 118.805 319.872 107.505 318.01 101.385L318.888 101.117C320.712 107.107 325.512 118.171 337.157 124.929C341.481 127.44 346.258 129.062 351.365 129.749L351.24 130.661Z" fill="#E27B14"/>
<path d="M332.606 136.685C332.194 136.685 331.781 136.675 331.368 136.661C319.253 136.181 310.042 131.045 304.45 126.821L305.002 126.086C310.488 130.234 319.522 135.274 331.402 135.739C337.426 135.979 343.406 134.362 347.947 132.926L348.226 133.8C343.925 135.158 338.342 136.68 332.606 136.68V136.685Z" fill="#E27B14"/>
<path d="M333.48 131.597C323.16 131.597 312.797 123.125 308.261 110.664L309.125 110.352C313.819 123.254 324.883 131.76 335.453 130.57C341.314 129.912 345.706 126.413 348.35 123.59L349.022 124.219C346.267 127.152 341.698 130.79 335.554 131.482C334.862 131.558 334.171 131.597 333.48 131.597Z" fill="#E27B14"/>
<path d="M350.702 114.84C347.501 116.194 345.168 120.154 345.365 123.135C345.418 124.671 346.032 125.986 346.565 127.431C347.76 130.08 347.659 133.133 348.653 135.826C349.464 137.765 351.374 139.239 351.691 141.269C352.042 143.386 351.293 145.757 352.037 147.811C352.891 150.207 355.531 150.322 357.696 149.357C358.91 148.829 359.866 147.927 360.595 146.856C361.31 145.887 361.891 144.715 363.11 144.355C364.483 143.899 366.643 144.399 368.462 144.039C371.458 143.515 373.642 141.221 375.701 139.085C378.451 135.97 381.115 133.066 381.072 128.89C380.971 124.896 378.667 120.855 375.346 118.983C372.734 117.25 369.523 116.919 366.667 115.944C361.958 113.583 355.858 112.219 350.813 114.787L350.702 114.84Z" fill="#E27B14"/>
<path d="M355.21 150.485C354.581 150.485 353.99 150.375 353.472 150.149C352.546 149.751 351.864 149.007 351.504 147.999C351.038 146.712 351.11 145.349 351.178 144.029C351.226 143.088 351.274 142.195 351.134 141.355C350.971 140.304 350.304 139.387 349.594 138.418C349.051 137.679 348.494 136.911 348.13 136.037C347.65 134.731 347.414 133.373 347.189 132.058C346.92 130.498 346.666 129.024 346.051 127.656C345.946 127.378 345.854 127.138 345.763 126.903C345.312 125.731 344.846 124.522 344.803 123.149C344.582 119.77 347.179 115.723 350.477 114.322L350.573 114.274C356.827 111.087 364.037 113.995 366.883 115.421C367.766 115.719 368.674 115.954 369.634 116.203C371.683 116.731 373.805 117.279 375.653 118.512C379.109 120.456 381.523 124.627 381.629 128.871C381.672 133.167 379.07 136.104 376.32 139.219L376.018 139.551C373.987 141.653 371.688 144.034 368.549 144.586C367.632 144.768 366.662 144.744 365.726 144.72C364.79 144.696 363.902 144.677 363.278 144.883C362.462 145.123 361.968 145.848 361.44 146.616C361.306 146.808 361.176 147 361.037 147.187C360.182 148.431 359.126 149.338 357.907 149.871C356.99 150.279 356.064 150.485 355.205 150.485H355.21ZM356.866 113.967C354.946 113.967 352.954 114.327 351.067 115.287L350.923 115.354C347.77 116.688 345.758 120.504 345.926 123.091C345.965 124.291 346.378 125.362 346.814 126.495C346.906 126.735 347.002 126.979 347.093 127.224C347.755 128.688 348.034 130.301 348.302 131.861C348.528 133.186 348.744 134.434 349.181 135.619C349.488 136.349 349.982 137.031 350.506 137.751C351.259 138.787 352.042 139.858 352.248 141.173C352.406 142.128 352.354 143.122 352.306 144.082C352.238 145.344 352.176 146.539 352.565 147.615C352.824 148.335 353.275 148.839 353.918 149.112C354.854 149.511 356.179 149.41 357.466 148.834C358.493 148.383 359.39 147.61 360.134 146.53C360.274 146.338 360.398 146.155 360.523 145.973C361.109 145.123 361.771 144.154 362.952 143.803C363.744 143.539 364.728 143.563 365.765 143.592C366.643 143.616 367.55 143.635 368.352 143.477C371.141 142.987 373.214 140.842 375.216 138.768L375.485 138.471C378.091 135.523 380.549 132.739 380.51 128.885C380.414 125.088 378.178 121.215 375.072 119.463C373.344 118.315 371.318 117.792 369.355 117.288C368.405 117.043 367.421 116.789 366.485 116.467L366.413 116.439C364.608 115.531 360.888 113.957 356.866 113.957V113.967Z" fill="#E27B14"/>
<path d="M342.758 158.745C334.027 158.745 329.126 152.145 323.597 144.701C322.963 143.851 323.141 142.646 323.995 142.013C324.845 141.379 326.05 141.557 326.683 142.411C333.792 151.982 337.958 156.864 347.573 154.176C348.571 153.768 349.31 153 350.184 151.469C350.942 150.12 351.701 148.747 352.459 147.379C352.93 146.534 353.395 145.685 353.866 144.84C354.384 143.913 355.55 143.582 356.477 144.096C357.403 144.609 357.734 145.781 357.221 146.707C356.75 147.547 356.285 148.392 355.819 149.237C355.056 150.614 354.293 151.997 353.525 153.365C352.57 155.04 351.274 156.864 348.878 157.79L348.71 157.848C346.536 158.462 344.563 158.745 342.758 158.745Z" fill="#E27B14"/>
<path d="M368.774 167.962C367.286 167.962 365.496 167.899 363.283 167.76C360.245 167.573 354.566 163.2 352.243 160.805C351.446 159.96 350.654 159.101 349.872 158.251C349.464 157.81 349.061 157.368 348.662 156.941C347.942 156.163 347.986 154.949 348.763 154.229C349.541 153.509 350.755 153.552 351.475 154.33C351.878 154.762 352.286 155.208 352.694 155.654C353.462 156.49 354.24 157.334 355.008 158.15C357.797 161.021 362.357 163.858 363.514 163.93C372.086 164.458 373.536 163.805 375.221 163.046C375.869 162.754 376.598 162.422 377.654 162.125C378.677 161.837 379.738 162.427 380.026 163.445C380.314 164.462 379.723 165.528 378.706 165.816C377.923 166.037 377.381 166.282 376.805 166.546C374.933 167.39 373.253 167.962 368.774 167.962Z" fill="#E27B14"/>
<path d="M375.581 295.776C393.922 271.124 338.174 166.503 280.728 172.133C247.56 175.383 211.858 215.578 219.754 246.658C224.496 265.325 245.467 282.663 260.405 278.837C283.56 272.914 281.549 218.871 295.973 217.863C313.795 216.62 322.589 298.714 356.947 302.549C363.538 303.284 371.549 301.191 375.581 295.776Z" fill="#497A89"/>
<path d="M461.75 186.36C438.451 193.234 427.805 205.013 423.005 211.767C412.027 227.223 405.077 253.843 406.493 277.824C406.901 284.746 408.374 297.706 403.954 299.419C401.626 300.322 398.606 297.739 397.603 296.88C386.078 287.011 377.026 228.797 409.037 181.915C415.306 172.733 446.376 127.229 482.717 135.547C509.726 141.73 524.491 174.183 526.541 198.427C530.011 239.477 499.114 281.563 480.173 278.458C463.253 275.683 451.891 236.165 451.589 183.821" fill="#497A89"/>
<path d="M402.907 300.067C400.613 300.067 398.184 297.989 397.296 297.23C391.709 292.445 386.213 275.808 386.525 253.272C386.731 238.325 389.88 209.146 408.648 181.656C432.84 146.222 459.182 129.686 482.813 135.101C498.466 138.686 508.618 150.605 514.378 159.974C521.285 171.211 525.883 185.213 526.997 198.394C529.406 226.91 515.213 256.123 499.944 270.24C492.874 276.778 485.832 279.859 480.091 278.918C463.795 276.245 452.429 241.085 451.224 190.613C439.19 195.749 429.854 202.93 423.379 212.04C412.166 227.832 405.562 254.261 406.949 277.805C406.997 278.582 407.054 279.432 407.117 280.334C407.64 287.88 408.36 298.214 404.112 299.861C403.718 300.014 403.315 300.077 402.902 300.077L402.907 300.067ZM473.88 135.014C452.981 135.014 430.421 151.411 409.416 182.174C376.92 229.766 387.101 287.28 397.901 296.53C398.842 297.336 401.717 299.789 403.786 298.992C407.395 297.59 406.675 287.242 406.2 280.392C406.138 279.485 406.08 278.63 406.032 277.853C404.63 254.117 411.302 227.448 422.63 211.502C429.264 202.162 438.85 194.827 451.205 189.614C451.166 187.704 451.138 185.774 451.128 183.821H452.05C452.059 185.64 452.083 187.445 452.122 189.23C455.126 188.002 458.294 186.898 461.621 185.914L461.88 186.797C458.462 187.805 455.218 188.942 452.141 190.214C453.302 239.702 464.611 275.429 480.245 277.997C485.683 278.88 492.466 275.89 499.32 269.554C514.426 255.59 528.466 226.685 526.08 198.461C523.886 172.502 507.902 141.782 482.611 135.989C479.741 135.331 476.827 135.005 473.885 135.005L473.88 135.014Z" fill="#497A89"/>
<path d="M137.717 309.671C131.698 309.671 125.064 308.462 117.744 306.038C111.384 303.935 88.7568 295.593 64.7808 276.527C37.9008 255.163 18.9888 228.359 8.568 196.862C-6.0144 152.788 0.887997 113.639 8.1888 72.1915C12.096 50.0443 18.0048 28.0987 25.752 6.97387C27.7728 1.46347 33.8832 -1.36853 39.3984 0.652269C44.9136 2.67307 47.7456 8.78347 45.72 14.2987C38.4048 34.2475 32.8272 54.9691 29.1408 75.8827C22.0176 116.299 15.8688 151.204 28.7616 190.18C51.8832 260.063 117.062 283.411 124.421 285.839C133.709 288.911 140.669 289.195 145.104 286.684C151.853 282.863 155.112 273.139 154.44 265.766C152.323 263.74 150.418 261.753 148.728 259.881C140.678 250.958 133.757 240.331 132.624 235.166C131.746 231.153 133.008 227.183 136.003 224.548C139.094 221.831 143.309 221.131 147.278 222.671C153.173 224.956 168.106 237.446 173.654 254.443C179.635 259.406 186.763 263.822 194.837 266.236C203.654 268.871 218.112 270.143 222.653 264.724C226.354 260.303 224.17 250.473 222.864 244.598C221.602 238.919 219.638 233.721 217.363 229.079C208.56 218.27 201.466 207.638 198.797 203.639C198.773 203.606 198.754 203.572 198.73 203.543C194.059 198.023 195.514 191.879 198.84 188.495L202.392 184.891L207.432 185.371C211.613 185.769 213.85 188.092 215.501 190.391C215.722 190.631 215.971 190.9 216.197 191.14C220.166 195.403 228.533 204.383 235.339 217.454C236.712 219.1 238.114 220.732 239.544 222.326C255.571 240.22 261.96 239.395 262.013 239.38C262.776 239.159 266.362 235.972 268.714 225.307C270.907 215.375 271.061 203.318 269.122 193.051C265.114 171.777 250.243 150.513 230.314 137.558C217.963 129.527 205.699 126.143 196.666 128.275C189.576 129.945 178.464 136.699 158.294 148.958C155.726 150.518 153.437 151.948 151.421 153.211C140.866 159.806 134.491 163.785 124.699 162.623C105.994 160.406 89.0736 139.651 88.4976 118.209C87.8832 95.3899 106.08 79.9627 131.266 58.6027C138.778 52.2331 149.069 43.5067 164.976 35.3131C181.262 26.9227 199.718 17.4187 222.062 19.5499C235.694 20.8507 243.322 25.8427 249.446 29.8507C254.678 33.2731 258.456 35.7451 266.17 36.6427C278.242 38.0443 286.541 33.8203 294.566 29.7403C301.987 25.9627 310.392 21.6811 319.714 24.9931C335.635 30.6475 338.741 52.7995 339.696 68.9707C341.27 95.6875 337.709 137.323 329.102 192.71C328.2 198.513 322.766 202.487 316.963 201.585C311.16 200.683 307.186 195.249 308.088 189.446C316.061 138.105 319.613 99.2155 318.643 73.8619C317.765 50.8843 313.354 45.7771 312.614 45.0859C311.074 45.2107 306.974 47.2939 304.219 48.6955C294.917 53.4283 282.173 59.9131 263.726 57.7723C251.026 56.2987 243.696 51.5035 237.811 47.6539C232.378 44.0971 228.451 41.5291 220.051 40.7275C203.923 39.1867 189.739 46.4923 174.725 54.2251C160.982 61.3051 152.141 68.8027 145.032 74.8267C120.989 95.2171 109.445 105.551 109.766 117.638C110.069 128.899 119.851 140.63 127.214 141.503C129.36 141.763 131.587 140.534 140.165 135.172C142.234 133.881 144.581 132.412 147.264 130.785C170.011 116.961 181.43 110.02 191.798 107.577C206.674 104.068 224.472 108.388 241.92 119.731C266.549 135.743 284.986 162.331 290.035 189.115C292.474 202.065 292.272 217.31 289.493 229.9C285.83 246.479 278.362 256.828 267.883 259.833C261.187 261.753 253.92 260.443 245.957 255.839C246.154 263.332 244.709 271.526 238.968 278.38C224.15 296.083 194.539 288.35 188.75 286.622C183.466 285.043 178.555 282.883 174.038 280.382C171.35 290.116 165.451 299.606 155.582 305.193C150.312 308.179 144.389 309.667 137.712 309.667L137.717 309.671Z" fill="#FFDCC1"/>
<path d="M469.965 156.841C469.293 157.974 467.551 158.626 466.428 158.103C465.136 157.498 465.688 155.823 464.157 153.807C462.559 151.714 460.504 151.614 460.62 151.028C460.778 150.198 465.16 149.29 467.944 151.537C469.365 152.679 470.978 155.137 469.965 156.841Z" fill="#D6E513"/>
<path d="M450.007 137.137C444.132 138.836 434.364 141.817 427.778 151.282C426.444 153.198 419.114 163.734 422.724 176.545C426.405 189.601 438.549 194.742 440.916 195.745C457.01 202.561 472.245 193.594 475.269 191.703C477.861 190.076 490.754 182.007 492.448 169.47C493.077 164.833 491.911 161.487 494.469 157.345C498.333 151.086 505.274 151.801 505.586 149.262C506.234 143.962 477.501 129.178 450.007 137.137ZM473.58 180.61C472.725 181.642 464.786 190.873 453.602 188.838C444.333 187.148 438.477 178.748 437.152 171.212C435.036 159.169 443.892 146.002 455.954 144.183C462.727 143.161 470.152 145.772 474.756 151.234C482.004 159.841 480.002 172.882 473.58 180.61Z" fill="#D6E513"/>
<path d="M503.561 144.966C497.69 140.411 490.533 137.977 483.429 136.211C471.564 133.417 458.892 133.533 447.309 137.507C440.354 139.686 433.653 143.411 429.098 149.214C423.045 156.76 419.964 167.089 422.633 176.569C425.973 188.497 437.474 196.936 449.474 198.683C461.858 200.368 474.329 195.054 483.405 186.817C488.858 181.873 493.385 174.981 493.538 167.358C493.639 164.867 493.423 162.486 494.056 160.341C494.68 158.209 496.015 156.237 497.776 154.83C498.66 154.125 499.649 153.539 500.709 153.049C502.341 152.113 506.201 151.585 506.34 149.2C506.316 147.337 504.813 146.075 503.561 144.966ZM503.431 150.256C501.199 151.139 498.713 151.984 496.764 153.558C494.724 155.152 493.178 157.35 492.41 159.861C491.661 162.285 491.863 164.838 491.729 167.277C491.474 174.424 487.216 180.664 482.056 185.349C473.364 193.264 461.527 198.448 449.628 197.377C437.844 196.139 426.194 188.229 422.82 176.517C420.137 167.109 423.252 156.832 429.41 149.469C434.037 143.843 440.676 140.358 447.564 138.309C459.036 134.598 471.477 134.545 483.136 137.425C490.015 139.201 497.018 141.664 502.625 146.089C503.517 146.905 504.727 147.894 504.833 149.118C504.732 149.733 504.089 149.929 503.431 150.256Z" fill="#D6E513"/>
<path d="M490.365 149.641C489.693 150.774 487.951 151.426 486.828 150.903C485.536 150.298 486.088 148.623 484.557 146.607C482.959 144.514 480.904 144.414 481.02 143.828C481.178 142.998 485.56 142.09 488.344 144.337C489.765 145.479 491.378 147.937 490.365 149.641Z" fill="#D6E513"/>
<path d="M490.365 149.641C489.693 150.774 487.951 151.426 486.828 150.903C485.536 150.298 486.088 148.623 484.557 146.607C482.959 144.514 480.904 144.414 481.02 143.828C481.178 142.998 485.56 142.09 488.344 144.337C489.765 145.479 491.378 147.937 490.365 149.641Z" fill="#D6E513"/>
<path d="M445.109 98.385C442.051 93.4314 434.203 92.6298 428.789 94.8858C422.294 97.5978 416.942 105.705 419.851 111.983C422.525 117.753 431.021 119.471 436.949 117.033C444.24 114.038 448.771 104.308 445.109 98.3802V98.385Z" fill="#E1E2C7"/>
<path d="M348.936 54.0331C348.25 53.4379 343.829 49.7371 338.174 50.8267C337.258 51.0043 331.925 52.0315 330.619 56.3227C329.486 60.0571 332.27 63.4027 332.678 63.8779C335.333 66.9643 340.733 68.9755 345.274 66.1675C349.306 63.6715 350.909 58.4539 348.936 54.0331Z" fill="#E1E2C7"/>
<path d="M418.92 81.2394C415.862 76.8954 409.003 76.0074 404.722 79.1802C402.043 81.1674 399.912 85.0842 401.059 89.025C402.446 93.7818 407.592 95.073 408.158 95.2074C412.421 96.2058 417.893 94.4442 419.837 89.9418C421.07 87.0858 420.638 83.6826 418.92 81.2394Z" fill="#E1E2C7"/>
</g>
<defs>
<clipPath id="clip0_2014_37274">
<rect width="527.266" height="319.219" fill="white"/>
</clipPath>
</defs>
</svg>
