<svg width="70" height="80" viewBox="0 0 70 80" fill="none" xmlns="http://www.w3.org/2000/svg">
<path d="M10.997 57.7461C17.0705 57.7461 21.994 53.0574 21.994 47.2735C21.994 41.4896 17.0705 36.8008 10.997 36.8008C4.92351 36.8008 0 41.4896 0 47.2735C0 53.0574 4.92351 57.7461 10.997 57.7461Z" fill="#D6E513"/>
<path d="M45.3393 31.0023C54.329 31.0023 61.6165 24.0622 61.6165 15.5011C61.6165 6.94009 54.329 0 45.3393 0C36.3496 0 29.062 6.94009 29.062 15.5011C29.062 24.0622 36.3496 31.0023 45.3393 31.0023Z" fill="#7C5635"/>
<path d="M53.2773 79.2796C62.2669 79.2796 69.5545 72.3395 69.5545 63.7785C69.5545 55.2174 62.2669 48.2773 53.2773 48.2773C44.2876 48.2773 37 55.2174 37 63.7785C37 72.3395 44.2876 79.2796 53.2773 79.2796Z" fill="#E27B14"/>
</svg>
