<svg width="18" height="23" viewBox="0 0 18 23" fill="none" xmlns="http://www.w3.org/2000/svg">
<path d="M17.4218 7.53728C17.3168 7.60201 15.0075 8.94656 15.0337 11.7437C15.0627 15.0895 17.9666 16.2036 18 16.2163C17.974 16.2959 17.5357 17.8031 16.4693 19.3597C15.5476 20.7082 14.5929 22.0491 13.0861 22.0771C11.6057 22.1042 11.1285 21.1987 9.43733 21.1987C7.74511 21.1987 7.21544 22.0491 5.81548 22.1042C4.36105 22.1593 3.25374 20.648 2.32531 19.3069C0.427315 16.5623 -1.02384 11.5505 0.924726 8.16827C1.8921 6.48853 3.62118 5.42436 5.49727 5.39687C6.92605 5.36987 8.27351 6.35738 9.14747 6.35738C10.0089 6.35738 11.5529 5.20621 13.3728 5.34085C14.0861 5.39371 16.1109 5.6066 17.4218 7.53728ZM12.2499 3.52905C13.0228 2.59491 13.5428 1.29397 13.3996 0C12.2872 0.0441163 10.9418 0.741007 10.1438 1.67455C9.42932 2.50153 8.80179 3.82602 8.97217 5.09357C10.2121 5.18938 11.4776 4.46377 12.2499 3.52905Z" fill="#703348"/>
</svg>
