<svg width="195" height="79" viewBox="0 0 195 79" fill="none" xmlns="http://www.w3.org/2000/svg">
<path d="M36.8657 28.5295V45.0295H33.7612V28.5295H36.8657ZM38.8282 39.3362V39.1106C38.8282 38.2584 38.9499 37.4742 39.1934 36.7581C39.4369 36.0347 39.7914 35.4081 40.2569 34.8782C40.7224 34.3482 41.2953 33.9364 41.9757 33.6428C42.656 33.342 43.4366 33.1917 44.3175 33.1917C45.1983 33.1917 45.9825 33.342 46.67 33.6428C47.3575 33.9364 47.934 34.3482 48.3995 34.8782C48.8721 35.4081 49.2302 36.0347 49.4737 36.7581C49.7172 37.4742 49.8389 38.2584 49.8389 39.1106V39.3362C49.8389 40.1812 49.7172 40.9654 49.4737 41.6887C49.2302 42.4049 48.8721 43.0315 48.3995 43.5686C47.934 44.0986 47.3611 44.5103 46.6807 44.804C46.0004 45.0976 45.2198 45.2444 44.3389 45.2444C43.4581 45.2444 42.6739 45.0976 41.9864 44.804C41.3061 44.5103 40.7296 44.0986 40.2569 43.5686C39.7914 43.0315 39.4369 42.4049 39.1934 41.6887C38.9499 40.9654 38.8282 40.1812 38.8282 39.3362ZM41.9219 39.1106V39.3362C41.9219 39.8232 41.9649 40.2779 42.0509 40.7004C42.1368 41.123 42.2729 41.4954 42.4591 41.8176C42.6524 42.1327 42.9031 42.3798 43.211 42.5588C43.519 42.7379 43.8949 42.8274 44.3389 42.8274C44.7686 42.8274 45.1374 42.7379 45.4454 42.5588C45.7533 42.3798 46.0004 42.1327 46.1866 41.8176C46.3728 41.4954 46.5089 41.123 46.5948 40.7004C46.6879 40.2779 46.7344 39.8232 46.7344 39.3362V39.1106C46.7344 38.6379 46.6879 38.1939 46.5948 37.7786C46.5089 37.356 46.3692 36.9836 46.1759 36.6614C45.9897 36.3319 45.7426 36.0741 45.4346 35.8879C45.1267 35.7017 44.7543 35.6086 44.3175 35.6086C43.8806 35.6086 43.5082 35.7017 43.2003 35.8879C42.8995 36.0741 42.6524 36.3319 42.4591 36.6614C42.2729 36.9836 42.1368 37.356 42.0509 37.7786C41.9649 38.1939 41.9219 38.6379 41.9219 39.1106ZM56.4421 42.8274C56.8216 42.8274 57.1582 42.7558 57.4518 42.6125C57.7455 42.4622 57.9746 42.2545 58.1393 41.9895C58.3112 41.7174 58.4007 41.3987 58.4079 41.0334H61.319C61.3119 41.8499 61.0934 42.5767 60.6637 43.2141C60.2341 43.8443 59.6576 44.342 58.9343 44.7073C58.2109 45.0653 57.4017 45.2444 56.5065 45.2444C55.6042 45.2444 54.8164 45.094 54.1432 44.7932C53.4772 44.4924 52.9222 44.0771 52.4782 43.5471C52.0342 43.01 51.7012 42.387 51.4792 41.678C51.2572 40.9618 51.1462 40.1956 51.1462 39.3792V39.0676C51.1462 38.2441 51.2572 37.4778 51.4792 36.7688C51.7012 36.0527 52.0342 35.4296 52.4782 34.8997C52.9222 34.3625 53.4772 33.9436 54.1432 33.6428C54.8093 33.342 55.5899 33.1917 56.485 33.1917C57.4375 33.1917 58.2718 33.3743 58.988 33.7395C59.7113 34.1047 60.277 34.6275 60.6852 35.3079C61.1006 35.981 61.3119 36.7795 61.319 37.7034H58.4079C58.4007 37.3167 58.3184 36.9657 58.1608 36.6506C58.0104 36.3355 57.7884 36.0849 57.4948 35.8987C57.2083 35.7053 56.8539 35.6086 56.4313 35.6086C55.9802 35.6086 55.6113 35.7053 55.3249 35.8987C55.0384 36.0849 54.8164 36.3427 54.6589 36.6721C54.5013 36.9944 54.3903 37.3632 54.3259 37.7786C54.2686 38.1868 54.2399 38.6165 54.2399 39.0676V39.3792C54.2399 39.8303 54.2686 40.2636 54.3259 40.679C54.3831 41.0943 54.4906 41.4631 54.6481 41.7854C54.8128 42.1077 55.0384 42.3619 55.3249 42.5481C55.6113 42.7343 55.9837 42.8274 56.4421 42.8274ZM69.2864 42.4084V37.2307C69.2864 36.8583 69.2255 36.5396 69.1038 36.2747C68.982 36.0025 68.7923 35.7913 68.5345 35.6409C68.2838 35.4905 67.958 35.4153 67.5569 35.4153C67.2132 35.4153 66.916 35.4762 66.6653 35.5979C66.4147 35.7125 66.2213 35.8808 66.0852 36.1028C65.9492 36.3176 65.8811 36.5719 65.8811 36.8655H62.7874C62.7874 36.3713 62.902 35.9023 63.1311 35.4583C63.3603 35.0142 63.6933 34.6239 64.1302 34.2874C64.567 33.9436 65.0862 33.675 65.6878 33.4817C66.2965 33.2883 66.9768 33.1917 67.7288 33.1917C68.6311 33.1917 69.4332 33.342 70.135 33.6428C70.8369 33.9436 71.3883 34.3948 71.7893 34.9963C72.1975 35.5979 72.4016 36.3499 72.4016 37.2522V42.2258C72.4016 42.8632 72.441 43.386 72.5198 43.7942C72.5986 44.1952 72.7132 44.5461 72.8636 44.8469V45.0295H69.7376C69.5872 44.7144 69.4726 44.3206 69.3938 43.8479C69.3222 43.3681 69.2864 42.8883 69.2864 42.4084ZM69.6946 37.9504L69.7161 39.7014H67.9866C67.5784 39.7014 67.2239 39.748 66.9231 39.8411C66.6223 39.9342 66.3753 40.0667 66.1819 40.2385C65.9886 40.4032 65.8453 40.5966 65.7522 40.8186C65.6663 41.0406 65.6233 41.2841 65.6233 41.5491C65.6233 41.814 65.6842 42.054 65.8059 42.2688C65.9277 42.4765 66.1031 42.6412 66.3323 42.7629C66.5615 42.8775 66.83 42.9348 67.138 42.9348C67.6035 42.9348 68.0081 42.8417 68.3518 42.6555C68.6956 42.4693 68.9606 42.2402 69.1468 41.968C69.3401 41.6959 69.4404 41.4381 69.4475 41.1946L70.2639 42.5051C70.1494 42.7987 69.9918 43.1031 69.7913 43.4182C69.5979 43.7333 69.3509 44.0305 69.0501 44.3098C68.7493 44.5819 68.3876 44.8075 67.9651 44.9866C67.5426 45.1584 67.0413 45.2444 66.4612 45.2444C65.7236 45.2444 65.054 45.0976 64.4524 44.804C63.858 44.5032 63.3854 44.0914 63.0345 43.5686C62.6907 43.0387 62.5188 42.4371 62.5188 41.7639C62.5188 41.1552 62.6334 40.6145 62.8626 40.1418C63.0917 39.6692 63.4283 39.2717 63.8723 38.9495C64.3235 38.62 64.8857 38.373 65.5589 38.2083C66.232 38.0364 67.0126 37.9504 67.9007 37.9504H69.6946ZM77.952 28.5295V45.0295H74.8475V28.5295H77.952ZM88.8809 35.6409V49.4983H85.7872V33.4065H88.6553L88.8809 35.6409ZM96.2393 39.0891V39.3147C96.2393 40.1597 96.1391 40.9439 95.9386 41.6672C95.7452 42.3905 95.4587 43.0208 95.0792 43.5579C94.6996 44.0878 94.227 44.5032 93.6612 44.804C93.1026 45.0976 92.4581 45.2444 91.7276 45.2444C91.0186 45.2444 90.4027 45.1012 89.88 44.8147C89.3572 44.5282 88.9167 44.1272 88.5587 43.6116C88.2078 43.0888 87.9249 42.4836 87.71 41.7961C87.4952 41.1086 87.3305 40.371 87.2159 39.5833V38.9924C87.3305 38.1474 87.4952 37.3739 87.71 36.6721C87.9249 35.9631 88.2078 35.3508 88.5587 34.8352C88.9167 34.3124 89.3536 33.9078 89.8692 33.6213C90.392 33.3349 91.0043 33.1917 91.7061 33.1917C92.4438 33.1917 93.0919 33.3313 93.6505 33.6106C94.2162 33.8899 94.6889 34.2909 95.0684 34.8137C95.4552 35.3365 95.7452 35.9596 95.9386 36.6829C96.1391 37.4062 96.2393 38.2083 96.2393 39.0891ZM93.1348 39.3147V39.0891C93.1348 38.595 93.0919 38.1402 93.0059 37.7249C92.9272 37.3023 92.7983 36.9335 92.6192 36.6184C92.4473 36.3033 92.2182 36.0598 91.9317 35.8879C91.6524 35.7089 91.3123 35.6194 90.9112 35.6194C90.4887 35.6194 90.127 35.6874 89.8262 35.8235C89.5326 35.9596 89.2927 36.1565 89.1065 36.4143C88.9203 36.6721 88.7807 36.9801 88.6876 37.3381C88.5945 37.6962 88.5372 38.1008 88.5157 38.552V40.0452C88.5515 40.5751 88.6518 41.0514 88.8165 41.4739C88.9812 41.8892 89.2354 42.2187 89.5792 42.4622C89.9229 42.7056 90.3741 42.8274 90.9327 42.8274C91.3409 42.8274 91.6846 42.7379 91.9639 42.5588C92.2432 42.3726 92.4688 42.1184 92.6407 41.7961C92.8197 41.4739 92.9451 41.1015 93.0167 40.679C93.0955 40.2564 93.1348 39.8017 93.1348 39.3147ZM103.412 45.2444C102.509 45.2444 101.7 45.1012 100.984 44.8147C100.268 44.5211 99.6592 44.1165 99.1579 43.6008C98.6637 43.0852 98.2842 42.4872 98.0192 41.8069C97.7542 41.1194 97.6218 40.3889 97.6218 39.6155V39.1858C97.6218 38.3049 97.7471 37.4993 97.9977 36.7688C98.2484 36.0383 98.6065 35.4045 99.072 34.8674C99.5446 34.3303 100.118 33.9185 100.791 33.6321C101.464 33.3385 102.223 33.1917 103.068 33.1917C103.892 33.1917 104.622 33.3277 105.259 33.5999C105.897 33.872 106.43 34.2587 106.86 34.76C107.297 35.2613 107.626 35.8629 107.848 36.5647C108.07 37.2594 108.181 38.0328 108.181 38.885V40.1741H98.943V38.1116H105.141V37.8752C105.141 37.4456 105.063 37.0624 104.905 36.7258C104.755 36.3821 104.525 36.1099 104.217 35.9094C103.91 35.7089 103.516 35.6086 103.036 35.6086C102.628 35.6086 102.277 35.6982 101.983 35.8772C101.689 36.0562 101.45 36.3069 101.263 36.6292C101.084 36.9514 100.948 37.331 100.855 37.7678C100.769 38.1975 100.726 38.6702 100.726 39.1858V39.6155C100.726 40.081 100.791 40.5107 100.92 40.9045C101.056 41.2984 101.245 41.6386 101.489 41.925C101.74 42.2115 102.04 42.4335 102.391 42.5911C102.749 42.7486 103.154 42.8274 103.605 42.8274C104.164 42.8274 104.683 42.72 105.163 42.5051C105.65 42.2831 106.069 41.9501 106.42 41.5061L107.924 43.1389C107.68 43.4898 107.347 43.8264 106.924 44.1487C106.509 44.4709 106.008 44.7359 105.421 44.9436C104.833 45.1441 104.164 45.2444 103.412 45.2444ZM115.536 33.4065V35.5979H108.769V33.4065H115.536ZM110.445 30.5383H113.538V41.5276C113.538 41.8642 113.581 42.122 113.667 42.301C113.76 42.4801 113.896 42.6054 114.075 42.677C114.254 42.7415 114.48 42.7737 114.752 42.7737C114.946 42.7737 115.117 42.7665 115.268 42.7522C115.425 42.7307 115.558 42.7092 115.665 42.6877L115.676 44.9651C115.411 45.051 115.125 45.1191 114.817 45.1692C114.509 45.2193 114.169 45.2444 113.796 45.2444C113.116 45.2444 112.521 45.1334 112.013 44.9114C111.512 44.6822 111.125 44.317 110.853 43.8157C110.581 43.3144 110.445 42.6555 110.445 41.8391V30.5383ZM127.378 42.8274C127.758 42.8274 128.095 42.7558 128.388 42.6125C128.682 42.4622 128.911 42.2545 129.076 41.9895C129.248 41.7174 129.337 41.3987 129.344 41.0334H132.255C132.248 41.8499 132.03 42.5767 131.6 43.2141C131.17 43.8443 130.594 44.342 129.871 44.7073C129.147 45.0653 128.338 45.2444 127.443 45.2444C126.541 45.2444 125.753 45.094 125.08 44.7932C124.414 44.4924 123.859 44.0771 123.415 43.5471C122.971 43.01 122.638 42.387 122.416 41.678C122.193 40.9618 122.082 40.1956 122.082 39.3792V39.0676C122.082 38.2441 122.193 37.4778 122.416 36.7688C122.638 36.0527 122.971 35.4296 123.415 34.8997C123.859 34.3625 124.414 33.9436 125.08 33.6428C125.746 33.342 126.526 33.1917 127.421 33.1917C128.374 33.1917 129.208 33.3743 129.924 33.7395C130.648 34.1047 131.213 34.6275 131.622 35.3079C132.037 35.981 132.248 36.7795 132.255 37.7034H129.344C129.337 37.3167 129.255 36.9657 129.097 36.6506C128.947 36.3355 128.725 36.0849 128.431 35.8987C128.145 35.7053 127.79 35.6086 127.368 35.6086C126.916 35.6086 126.548 35.7053 126.261 35.8987C125.975 36.0849 125.753 36.3427 125.595 36.6721C125.438 36.9944 125.327 37.3632 125.262 37.7786C125.205 38.1868 125.176 38.6165 125.176 39.0676V39.3792C125.176 39.8303 125.205 40.2636 125.262 40.679C125.319 41.0943 125.427 41.4631 125.584 41.7854C125.749 42.1077 125.975 42.3619 126.261 42.5481C126.548 42.7343 126.92 42.8274 127.378 42.8274ZM140.223 42.4084V37.2307C140.223 36.8583 140.162 36.5396 140.04 36.2747C139.918 36.0025 139.729 35.7913 139.471 35.6409C139.22 35.4905 138.894 35.4153 138.493 35.4153C138.149 35.4153 137.852 35.4762 137.602 35.5979C137.351 35.7125 137.158 35.8808 137.022 36.1028C136.885 36.3176 136.817 36.5719 136.817 36.8655H133.724C133.724 36.3713 133.838 35.9023 134.067 35.4583C134.297 35.0142 134.63 34.6239 135.066 34.2874C135.503 33.9436 136.023 33.675 136.624 33.4817C137.233 33.2883 137.913 33.1917 138.665 33.1917C139.567 33.1917 140.37 33.342 141.071 33.6428C141.773 33.9436 142.325 34.3948 142.726 34.9963C143.134 35.5979 143.338 36.3499 143.338 37.2522V42.2258C143.338 42.8632 143.377 43.386 143.456 43.7942C143.535 44.1952 143.649 44.5461 143.8 44.8469V45.0295H140.674C140.524 44.7144 140.409 44.3206 140.33 43.8479C140.259 43.3681 140.223 42.8883 140.223 42.4084ZM140.631 37.9504L140.652 39.7014H138.923C138.515 39.7014 138.16 39.748 137.859 39.8411C137.559 39.9342 137.312 40.0667 137.118 40.2385C136.925 40.4032 136.782 40.5966 136.689 40.8186C136.603 41.0406 136.56 41.2841 136.56 41.5491C136.56 41.814 136.621 42.054 136.742 42.2688C136.864 42.4765 137.039 42.6412 137.269 42.7629C137.498 42.8775 137.766 42.9348 138.074 42.9348C138.54 42.9348 138.944 42.8417 139.288 42.6555C139.632 42.4693 139.897 42.2402 140.083 41.968C140.276 41.6959 140.377 41.4381 140.384 41.1946L141.2 42.5051C141.086 42.7987 140.928 43.1031 140.728 43.4182C140.534 43.7333 140.287 44.0305 139.986 44.3098C139.686 44.5819 139.324 44.8075 138.901 44.9866C138.479 45.1584 137.978 45.2444 137.398 45.2444C136.66 45.2444 135.99 45.0976 135.389 44.804C134.794 44.5032 134.322 44.0914 133.971 43.5686C133.627 43.0387 133.455 42.4371 133.455 41.7639C133.455 41.1552 133.57 40.6145 133.799 40.1418C134.028 39.6692 134.365 39.2717 134.809 38.9495C135.26 38.62 135.822 38.373 136.495 38.2083C137.168 38.0364 137.949 37.9504 138.837 37.9504H140.631ZM148.716 35.9417V45.0295H145.623V33.4065H148.534L148.716 35.9417ZM152.218 33.3313L152.165 36.1995C152.014 36.178 151.832 36.1601 151.617 36.1458C151.409 36.1243 151.219 36.1135 151.048 36.1135C150.611 36.1135 150.231 36.1708 149.909 36.2854C149.594 36.3928 149.329 36.554 149.114 36.7688C148.906 36.9836 148.749 37.245 148.641 37.553C148.541 37.8609 148.484 38.2118 148.469 38.6057L147.846 38.4124C147.846 37.6604 147.922 36.9693 148.072 36.3391C148.222 35.7017 148.441 35.1467 148.727 34.6741C149.021 34.2014 149.379 33.8362 149.801 33.5784C150.224 33.3206 150.707 33.1917 151.252 33.1917C151.424 33.1917 151.599 33.206 151.778 33.2346C151.957 33.2561 152.104 33.2883 152.218 33.3313ZM158.714 45.2444C157.812 45.2444 157.003 45.1012 156.286 44.8147C155.57 44.5211 154.962 44.1165 154.46 43.6008C153.966 43.0852 153.587 42.4872 153.322 41.8069C153.057 41.1194 152.924 40.3889 152.924 39.6155V39.1858C152.924 38.3049 153.049 37.4993 153.3 36.7688C153.551 36.0383 153.909 35.4045 154.374 34.8674C154.847 34.3303 155.42 33.9185 156.093 33.6321C156.766 33.3385 157.525 33.1917 158.37 33.1917C159.194 33.1917 159.924 33.3277 160.562 33.5999C161.199 33.872 161.733 34.2587 162.162 34.76C162.599 35.2613 162.929 35.8629 163.151 36.5647C163.373 37.2594 163.484 38.0328 163.484 38.885V40.1741H154.245V38.1116H160.444V37.8752C160.444 37.4456 160.365 37.0624 160.207 36.7258C160.057 36.3821 159.828 36.1099 159.52 35.9094C159.212 35.7089 158.818 35.6086 158.338 35.6086C157.93 35.6086 157.579 35.6982 157.285 35.8772C156.992 36.0562 156.752 36.3069 156.566 36.6292C156.387 36.9514 156.251 37.331 156.157 37.7678C156.072 38.1975 156.029 38.6702 156.029 39.1858V39.6155C156.029 40.081 156.093 40.5107 156.222 40.9045C156.358 41.2984 156.548 41.6386 156.791 41.925C157.042 42.2115 157.343 42.4335 157.694 42.5911C158.052 42.7486 158.456 42.8274 158.907 42.8274C159.466 42.8274 159.985 42.72 160.465 42.5051C160.952 42.2831 161.371 41.9501 161.722 41.5061L163.226 43.1389C162.982 43.4898 162.649 43.8264 162.227 44.1487C161.811 44.4709 161.31 44.7359 160.723 44.9436C160.136 45.1441 159.466 45.2444 158.714 45.2444Z" fill="#FFDCC1"/>
<path d="M90.4668 3.00024C61.2538 6.59407 39.9978 10.7099 16.2267 26.9399C-11.2468 45.6978 9.46201 61.6551 29.7532 68.5753C66.2938 81.0374 123.918 73.1558 161.61 64.9952C187.876 59.3082 205.698 24.2111 176.484 11.6529C154.75 2.30968 127.114 5.79788 104.278 7.50827C100.401 7.63972 93.9731 7.63972 87.3501 7.63972" stroke="#FFDCC1" stroke-width="6" stroke-linecap="round"/>
</svg>
