<svg width="400" height="346" viewBox="0 0 400 346" fill="none" xmlns="http://www.w3.org/2000/svg">
<g clip-path="url(#clip0_2200_19141)">
<path d="M133.76 345.99C108.791 344.864 113.07 274.008 62.7358 251.159C38.954 240.366 17.2888 246.782 5.91415 229.033C-1.26169 217.838 -2.65556 199.653 5.91415 189.521C22.6865 169.687 63.5388 197.35 81.6763 180.038C103.772 158.946 57.688 104.023 81.6763 67.8254C98.0758 43.0808 139.886 38.141 166.909 42.5351C208.863 49.3588 229.111 80.9617 242.671 72.5641C257.654 63.282 235.948 22.8163 250.564 10.9265C270.193 -5.0415 350.59 34.3845 383.142 104.173C410.801 163.473 401.767 240.084 375.249 249.579C351.146 258.212 330.192 205.075 282.129 206.908C250.461 208.114 226.421 232.439 204.79 254.324C156.75 302.928 153.435 346.88 133.76 345.99Z" fill="#FFDCC1"/>
<path d="M208.696 2.90642C189.856 15.9905 185.884 27.9889 181.639 38.9827C176.505 52.2912 178.071 60.4361 170.064 67.4321C161.219 75.1576 151.588 71.964 132.183 74.8073C123.986 76.0077 93.1429 80.3501 92.1964 87.4495C91.5654 92.2055 103.996 100.873 167.959 118.007C154.536 139.489 151.725 158.099 151.123 168.582C150.446 180.374 152.557 181.896 153.228 182.281C163.318 188.082 192.756 136.037 214.255 142.24C227.172 145.968 225.01 167.192 246.876 179.116C248.413 179.955 264.566 188.599 270.026 183.332C281.223 172.528 235.673 114.601 246.876 104.308C249.612 101.798 253.277 104.365 274.231 106.416C291.651 108.116 300.365 108.972 301.586 106.416C304.122 101.131 245.941 90.6948 238.455 59.0001C235.512 46.5359 242.206 38.862 236.35 24.2266C231.434 11.9462 218.841 1.45264 214.493 1.45264C210.146 1.45264 208.696 2.90642 208.696 2.90642Z" fill="#E27B14"/>
<path d="M243.061 199.173C239.092 201.287 236.006 208.272 232.673 209.185C228.991 210.19 224.069 208.203 217.765 210.592C213.216 212.316 210.52 220.121 206.54 222.183C201.618 224.74 195.463 224.923 192.337 229.559C183.308 242.93 191.184 259.128 192.159 261.868C199.467 282.397 221.74 294.579 240.56 295.585C254.115 296.308 258.302 297.038 266.895 299.801C286.65 306.148 279.21 331.162 298.432 341.949C316.735 352.214 350.337 339.962 355.253 322.983C360.548 304.706 329.12 292.919 328.948 259.766C328.867 244.022 335.928 241.494 338.418 222.89C341.997 196.187 331.104 174.159 322.632 157.565C298.885 111.028 250.73 65.5306 232.14 75.3813C222.83 80.3096 220.513 99.3333 224.775 112.257C230.275 128.949 250.432 129.115 263.183 152.298C267.985 161.028 274.73 176.02 271.948 187.071C269.665 196.129 265.019 194.952 259.105 197.347C255.291 198.892 251.476 194.71 243.061 199.191V199.173Z" fill="#8C4A60"/>
<path d="M238.461 91.1713C234.067 95.0599 237.032 104.744 237.411 105.922C237.83 107.243 241.77 119.029 251.091 119.621C259.65 120.161 267.439 110.919 266.877 103.814C266 92.7854 244.851 85.5193 238.466 91.1713H238.461Z" fill="#E1E2C7"/>
<path d="M60.3726 197.066C71.6554 201.334 88.4507 206.256 109.301 207.342C129.349 208.381 145.984 205.504 157.439 202.603" stroke="#497A89" stroke-width="6" stroke-miterlimit="10" stroke-linecap="round"/>
<path d="M65.1047 219.984C77.7012 222.73 92.8616 225.004 110.087 225.515C135.343 226.268 156.888 222.994 173.218 219.191" stroke="#497A89" stroke-width="6" stroke-miterlimit="10" stroke-linecap="round"/>
<path d="M49.3191 248.784C61.9155 246.038 77.076 243.764 94.3014 243.253C119.557 242.5 141.102 245.774 157.433 249.577" stroke="#497A89" stroke-width="6" stroke-miterlimit="10" stroke-linecap="round"/>
<path d="M48.5859 69.4074C47.8995 68.8122 43.4788 65.1114 37.8244 66.201C36.9076 66.3786 31.5747 67.4058 30.2691 71.697C29.1363 75.4314 31.9204 78.777 32.3284 79.2522C34.9828 82.3386 40.3827 84.3498 44.9235 81.5418C48.9555 79.0458 50.5587 73.8282 48.5859 69.4074Z" fill="#15CC19"/>
</g>
<defs>
<clipPath id="clip0_2200_19141">
<rect width="400" height="346" fill="white"/>
</clipPath>
</defs>
</svg>
