<svg width="56" height="50" viewBox="0 0 56 50" fill="none" xmlns="http://www.w3.org/2000/svg">
<g clip-path="url(#clip0_2025_7845)">
<path d="M3.43023 46.7842C6.76632 35.0531 11.5975 30.8283 15.4984 29.1843C19.1278 27.6564 18.6112 23.0068 25.5548 19.8809C29.4163 18.1428 35.4887 18.3179 37.623 18.6244C42.452 19.3161 43.5991 30.0271 44.663 32.7043C46.2281 36.6446 48.1632 41.5174 45.6677 45.2759C43.0059 49.2841 37.113 49.295 34.6043 49.2994C32.2949 49.3038 27.2426 49.3125 26.0561 46.7842C23.9065 42.2091 37.634 31.4959 35.1078 31.6995C33.0129 31.8681 27.9059 33.8907 25.1346 39.8296C23.6 43.1175 22.0217 43.6385 20.5244 45.7794C18.9899 47.9706 14.8023 49.457 3.42804 46.7842H3.43023Z" fill="#497A89"/>
<path d="M28.07 0.0194568C24.7142 0.321544 22.2669 4.17425 22.0349 7.56289C21.7569 11.6257 24.5698 16.4942 28.5713 16.6146C32.2511 16.724 35.3376 12.7728 35.6113 9.07113C35.9506 4.52012 32.0847 -0.341735 28.07 0.0194568Z" fill="#497A89"/>
<path d="M46.5696 7.12549C46.0858 7.32688 43.0234 8.65782 42.1259 11.8669C41.9792 12.3879 41.1321 15.4154 43.0146 17.1994C44.652 18.7537 47.1059 18.1758 47.4584 18.0882C49.7415 17.5147 52.1823 15.2403 51.9021 12.1625C51.6548 9.43055 49.3694 7.25026 46.5696 7.12549Z" fill="#497A89"/>
<path d="M12.4184 9.13472C9.37787 9.59442 7.14505 12.913 7.67698 15.9492C8.01191 17.8493 9.48732 19.9683 11.8252 20.3929C14.6447 20.9074 16.6477 18.5782 16.8622 18.3199C18.4821 16.3717 18.9856 13.0837 17.1577 10.9122C15.9975 9.53531 14.1259 8.87641 12.4163 9.13472H12.4184Z" fill="#497A89"/>
<path d="M51.5125 22.6369C49.2008 22.9849 47.5043 25.5089 47.9093 27.8161C48.1632 29.2609 49.2862 30.8698 51.0615 31.1938C53.2046 31.5835 54.726 29.8147 54.8901 29.6177C56.1204 28.1379 56.5035 25.638 55.1156 23.9875C54.2334 22.9411 52.8106 22.4398 51.5125 22.6369Z" fill="#497A89"/>
<path d="M0.617294 22.4968C-0.993839 24.3181 0.713612 28.4751 3.76294 30.2153C5.29746 31.091 7.81048 31.7214 8.79554 30.7867C9.95574 29.6856 8.42997 26.9515 7.53685 25.3557C6.54083 23.5716 5.55577 21.8094 3.65787 21.5446C2.62902 21.4023 1.32654 21.6956 0.617294 22.4968Z" fill="#497A89"/>
</g>
<defs>
<clipPath id="clip0_2025_7845">
<rect width="56" height="49.2994" fill="white"/>
</clipPath>
</defs>
</svg>
