<svg width="182" height="130" viewBox="0 0 182 130" fill="none" xmlns="http://www.w3.org/2000/svg">
<path d="M26.5167 54.7441L29.0949 45.377H32.3283L28.4074 57H26.4523L26.5167 54.7441ZM24.7443 45.377L27.3332 54.7549L27.3869 57H25.421L21.5001 45.377H24.7443ZM36.8796 45.377V57H33.7751V45.377H36.8796ZM33.5818 42.3477C33.5818 41.8965 33.7393 41.5241 34.0544 41.2305C34.3695 40.9368 34.7921 40.79 35.322 40.79C35.8448 40.79 36.2638 40.9368 36.5789 41.2305C36.9011 41.5241 37.0623 41.8965 37.0623 42.3477C37.0623 42.7988 36.9011 43.1712 36.5789 43.4648C36.2638 43.7585 35.8448 43.9053 35.322 43.9053C34.7921 43.9053 34.3695 43.7585 34.0544 43.4648C33.7393 43.1712 33.5818 42.7988 33.5818 42.3477ZM45.6205 53.7881C45.6205 53.5661 45.556 53.3656 45.4271 53.1865C45.2982 53.0075 45.0583 52.8428 44.7074 52.6924C44.3636 52.5348 43.8659 52.3916 43.2142 52.2627C42.627 52.1338 42.0791 51.9727 41.5707 51.7793C41.0693 51.5788 40.6325 51.3389 40.2601 51.0596C39.8949 50.7803 39.6084 50.4508 39.4007 50.0713C39.193 49.6846 39.0892 49.2441 39.0892 48.75C39.0892 48.263 39.193 47.8047 39.4007 47.375C39.6156 46.9453 39.9199 46.5658 40.3138 46.2363C40.7149 45.8997 41.2018 45.6383 41.7748 45.4521C42.3548 45.2588 43.0065 45.1621 43.7298 45.1621C44.7396 45.1621 45.6061 45.3232 46.3294 45.6455C47.0599 45.9678 47.6185 46.4118 48.0052 46.9775C48.3991 47.5361 48.596 48.1735 48.596 48.8896H45.5023C45.5023 48.5889 45.4378 48.3203 45.3089 48.084C45.1872 47.8405 44.9938 47.6507 44.7289 47.5146C44.471 47.3714 44.1345 47.2998 43.7191 47.2998C43.3753 47.2998 43.0781 47.3607 42.8275 47.4824C42.5768 47.597 42.3835 47.7546 42.2474 47.9551C42.1185 48.1484 42.0541 48.3633 42.0541 48.5996C42.0541 48.7786 42.0899 48.9398 42.1615 49.083C42.2402 49.2191 42.3656 49.3444 42.5374 49.459C42.7093 49.5736 42.9313 49.681 43.2035 49.7812C43.4828 49.8743 43.8265 49.9603 44.2347 50.0391C45.0726 50.2109 45.821 50.4365 46.4798 50.7158C47.1387 50.988 47.6615 51.3604 48.0482 51.833C48.4349 52.2985 48.6283 52.9108 48.6283 53.6699C48.6283 54.1855 48.5137 54.6582 48.2845 55.0879C48.0554 55.5176 47.7259 55.8936 47.2962 56.2158C46.8666 56.5309 46.3509 56.778 45.7494 56.957C45.155 57.1289 44.4854 57.2148 43.7406 57.2148C42.6592 57.2148 41.7425 57.0215 40.9906 56.6348C40.2458 56.248 39.68 55.7575 39.2933 55.1631C38.9138 54.5615 38.724 53.9456 38.724 53.3154H41.6566C41.6709 53.738 41.7783 54.0781 41.9789 54.3359C42.1865 54.5938 42.4479 54.7799 42.763 54.8945C43.0853 55.0091 43.4326 55.0664 43.805 55.0664C44.2061 55.0664 44.5391 55.0127 44.8041 54.9053C45.069 54.7907 45.2695 54.6403 45.4056 54.4541C45.5488 54.2607 45.6205 54.0387 45.6205 53.7881ZM53.8027 45.377V57H50.6982V45.377H53.8027ZM50.5048 42.3477C50.5048 41.8965 50.6624 41.5241 50.9775 41.2305C51.2926 40.9368 51.7151 40.79 52.2451 40.79C52.7679 40.79 53.1868 40.9368 53.5019 41.2305C53.8242 41.5241 53.9853 41.8965 53.9853 42.3477C53.9853 42.7988 53.8242 43.1712 53.5019 43.4648C53.1868 43.7585 52.7679 43.9053 52.2451 43.9053C51.7151 43.9053 51.2926 43.7585 50.9775 43.4648C50.6624 43.1712 50.5048 42.7988 50.5048 42.3477ZM56.2593 40.5H59.3531V54.3359L59.0415 57H56.2593V40.5ZM66.7115 51.0703V51.2959C66.7115 52.1624 66.6184 52.9574 66.4322 53.6807C66.2531 54.404 65.9738 55.0306 65.5943 55.5605C65.2147 56.0833 64.7421 56.4915 64.1763 56.7852C63.6177 57.0716 62.9589 57.2148 62.1998 57.2148C61.4908 57.2148 60.8749 57.0716 60.3521 56.7852C59.8365 56.4987 59.4032 56.0941 59.0523 55.5713C58.7014 55.0485 58.4185 54.4362 58.2037 53.7344C57.9888 53.0326 57.8277 52.2663 57.7203 51.4355V50.9414C57.8277 50.1107 57.9888 49.3444 58.2037 48.6426C58.4185 47.9408 58.7014 47.3285 59.0523 46.8057C59.4032 46.2829 59.8365 45.8783 60.3521 45.5918C60.8677 45.3053 61.4764 45.1621 62.1783 45.1621C62.9445 45.1621 63.6106 45.3089 64.1763 45.6025C64.7492 45.889 65.2219 46.2972 65.5943 46.8271C65.9738 47.3499 66.2531 47.973 66.4322 48.6963C66.6184 49.4124 66.7115 50.2038 66.7115 51.0703ZM63.6177 51.2959V51.0703C63.6177 50.5977 63.5819 50.1536 63.5103 49.7383C63.4458 49.3158 63.3313 48.9469 63.1665 48.6318C63.0018 48.3096 62.7763 48.0553 62.4898 47.8691C62.2105 47.6829 61.8488 47.5898 61.4048 47.5898C60.9823 47.5898 60.6242 47.6615 60.3306 47.8047C60.037 47.9479 59.7935 48.1484 59.6001 48.4062C59.4139 48.6641 59.2743 48.972 59.1812 49.3301C59.0881 49.681 59.0308 50.0677 59.0093 50.4902V51.8975C59.0308 52.4632 59.1239 52.9645 59.2886 53.4014C59.4605 53.8311 59.7183 54.1712 60.0621 54.4219C60.413 54.6654 60.8677 54.7871 61.4263 54.7871C61.8632 54.7871 62.2248 54.7012 62.5113 54.5293C62.7977 54.3574 63.0197 54.1139 63.1773 53.7988C63.342 53.4837 63.4566 53.1149 63.521 52.6924C63.5855 52.2627 63.6177 51.7972 63.6177 51.2959ZM71.7999 40.5V57H68.6955V40.5H71.7999ZM79.6062 57.2148C78.7039 57.2148 77.8946 57.0716 77.1785 56.7852C76.4623 56.4915 75.8536 56.0869 75.3523 55.5713C74.8582 55.0557 74.4786 54.4577 74.2136 53.7773C73.9486 53.0898 73.8162 52.3594 73.8162 51.5859V51.1562C73.8162 50.2754 73.9415 49.4697 74.1921 48.7393C74.4428 48.0088 74.8009 47.375 75.2664 46.8379C75.739 46.3008 76.3119 45.889 76.9851 45.6025C77.6583 45.3089 78.4174 45.1621 79.2625 45.1621C80.086 45.1621 80.8165 45.2982 81.4539 45.5703C82.0912 45.8424 82.6248 46.2292 83.0544 46.7305C83.4913 47.2318 83.8207 47.8333 84.0427 48.5352C84.2647 49.2298 84.3757 50.0033 84.3757 50.8555V52.1445H75.1375V50.082H81.3357V49.8457C81.3357 49.416 81.2569 49.0329 81.0994 48.6963C80.949 48.3525 80.7198 48.0804 80.4119 47.8799C80.1039 47.6794 79.71 47.5791 79.2302 47.5791C78.822 47.5791 78.4711 47.6686 78.1775 47.8477C77.8839 48.0267 77.644 48.2773 77.4578 48.5996C77.2787 48.9219 77.1427 49.3014 77.0496 49.7383C76.9636 50.168 76.9207 50.6406 76.9207 51.1562V51.5859C76.9207 52.0514 76.9851 52.4811 77.114 52.875C77.2501 53.2689 77.4399 53.609 77.6833 53.8955C77.934 54.182 78.2348 54.404 78.5857 54.5615C78.9438 54.7191 79.3484 54.7979 79.7996 54.7979C80.3582 54.7979 80.8774 54.6904 81.3572 54.4756C81.8442 54.2536 82.2631 53.9206 82.614 53.4766L84.1179 55.1094C83.8744 55.4603 83.5414 55.7969 83.1189 56.1191C82.7035 56.4414 82.2022 56.7064 81.615 56.9141C81.0278 57.1146 80.3582 57.2148 79.6062 57.2148ZM97.7001 53.7881C97.7001 53.5661 97.6357 53.3656 97.5068 53.1865C97.3779 53.0075 97.138 52.8428 96.7871 52.6924C96.4433 52.5348 95.9456 52.3916 95.2939 52.2627C94.7067 52.1338 94.1588 51.9727 93.6503 51.7793C93.149 51.5788 92.7122 51.3389 92.3398 51.0596C91.9746 50.7803 91.6881 50.4508 91.4804 50.0713C91.2727 49.6846 91.1689 49.2441 91.1689 48.75C91.1689 48.263 91.2727 47.8047 91.4804 47.375C91.6953 46.9453 91.9996 46.5658 92.3935 46.2363C92.7945 45.8997 93.2815 45.6383 93.8544 45.4521C94.4345 45.2588 95.0862 45.1621 95.8095 45.1621C96.8193 45.1621 97.6858 45.3232 98.4091 45.6455C99.1396 45.9678 99.6982 46.4118 100.085 46.9775C100.479 47.5361 100.676 48.1735 100.676 48.8896H97.582C97.582 48.5889 97.5175 48.3203 97.3886 48.084C97.2669 47.8405 97.0735 47.6507 96.8085 47.5146C96.5507 47.3714 96.2141 47.2998 95.7988 47.2998C95.455 47.2998 95.1578 47.3607 94.9072 47.4824C94.6565 47.597 94.4632 47.7546 94.3271 47.9551C94.1982 48.1484 94.1337 48.3633 94.1337 48.5996C94.1337 48.7786 94.1695 48.9398 94.2412 49.083C94.3199 49.2191 94.4453 49.3444 94.6171 49.459C94.789 49.5736 95.011 49.681 95.2831 49.7812C95.5624 49.8743 95.9062 49.9603 96.3144 50.0391C97.1523 50.2109 97.9007 50.4365 98.5595 50.7158C99.2184 50.988 99.7412 51.3604 100.128 51.833C100.515 52.2985 100.708 52.9108 100.708 53.6699C100.708 54.1855 100.593 54.6582 100.364 55.0879C100.135 55.5176 99.8056 55.8936 99.3759 56.2158C98.9462 56.5309 98.4306 56.778 97.829 56.957C97.2346 57.1289 96.5651 57.2148 95.8203 57.2148C94.7389 57.2148 93.8222 57.0215 93.0703 56.6348C92.3255 56.248 91.7597 55.7575 91.373 55.1631C90.9934 54.5615 90.8037 53.9456 90.8037 53.3154H93.7363C93.7506 53.738 93.858 54.0781 94.0585 54.3359C94.2662 54.5938 94.5276 54.7799 94.8427 54.8945C95.165 55.0091 95.5123 55.0664 95.8847 55.0664C96.2858 55.0664 96.6188 55.0127 96.8837 54.9053C97.1487 54.7907 97.3492 54.6403 97.4853 54.4541C97.6285 54.2607 97.7001 54.0387 97.7001 53.7881ZM105.882 45.377V57H102.778V45.377H105.882ZM102.585 42.3477C102.585 41.8965 102.742 41.5241 103.057 41.2305C103.372 40.9368 103.795 40.79 104.325 40.79C104.848 40.79 105.266 40.9368 105.582 41.2305C105.904 41.5241 106.065 41.8965 106.065 42.3477C106.065 42.7988 105.904 43.1712 105.582 43.4648C105.266 43.7585 104.848 43.9053 104.325 43.9053C103.795 43.9053 103.372 43.7585 103.057 43.4648C102.742 43.1712 102.585 42.7988 102.585 42.3477ZM115.697 45.377H118.501V56.6133C118.501 57.6732 118.265 58.5719 117.792 59.3096C117.327 60.0544 116.675 60.6165 115.837 60.9961C114.999 61.3828 114.025 61.5762 112.915 61.5762C112.428 61.5762 111.913 61.5117 111.368 61.3828C110.831 61.2539 110.316 61.0534 109.821 60.7812C109.334 60.5091 108.926 60.1654 108.597 59.75L109.961 57.9238C110.319 58.3392 110.735 58.6615 111.207 58.8906C111.68 59.127 112.203 59.2451 112.776 59.2451C113.334 59.2451 113.807 59.1413 114.194 58.9336C114.58 58.7331 114.877 58.4359 115.085 58.042C115.293 57.6553 115.397 57.1862 115.397 56.6348V48.0625L115.697 45.377ZM107.877 51.3281V51.1025C107.877 50.2145 107.985 49.4089 108.199 48.6855C108.421 47.9551 108.733 47.3285 109.134 46.8057C109.542 46.2829 110.036 45.8783 110.616 45.5918C111.196 45.3053 111.852 45.1621 112.582 45.1621C113.356 45.1621 114.004 45.3053 114.527 45.5918C115.049 45.8783 115.479 46.2865 115.816 46.8164C116.152 47.3392 116.414 47.9587 116.6 48.6748C116.793 49.3838 116.944 50.1608 117.051 51.0059V51.5C116.944 52.3092 116.782 53.0612 116.568 53.7559C116.353 54.4505 116.07 55.0592 115.719 55.582C115.368 56.0977 114.931 56.4987 114.408 56.7852C113.893 57.0716 113.277 57.2148 112.561 57.2148C111.845 57.2148 111.196 57.068 110.616 56.7744C110.043 56.4808 109.553 56.069 109.145 55.5391C108.736 55.0091 108.421 54.3861 108.199 53.6699C107.985 52.9538 107.877 52.1732 107.877 51.3281ZM110.971 51.1025V51.3281C110.971 51.8079 111.017 52.2555 111.11 52.6709C111.204 53.0863 111.347 53.4551 111.54 53.7773C111.741 54.0924 111.988 54.3395 112.281 54.5186C112.582 54.6904 112.937 54.7764 113.345 54.7764C113.911 54.7764 114.373 54.6582 114.731 54.4219C115.089 54.1784 115.357 53.8454 115.536 53.4229C115.715 53.0003 115.819 52.5133 115.848 51.9619V50.5547C115.833 50.1035 115.773 49.6989 115.665 49.3408C115.558 48.9756 115.407 48.6641 115.214 48.4062C115.021 48.1484 114.77 47.9479 114.462 47.8047C114.154 47.6615 113.789 47.5898 113.366 47.5898C112.958 47.5898 112.604 47.6829 112.303 47.8691C112.009 48.0482 111.762 48.2952 111.562 48.6104C111.368 48.9255 111.221 49.2979 111.121 49.7275C111.021 50.1501 110.971 50.6084 110.971 51.1025ZM123.837 47.8584V57H120.743V45.377H123.643L123.837 47.8584ZM123.385 50.7803H122.548C122.548 49.9209 122.659 49.1475 122.881 48.46C123.103 47.7653 123.414 47.1745 123.815 46.6875C124.216 46.1934 124.692 45.8174 125.244 45.5596C125.802 45.2946 126.426 45.1621 127.113 45.1621C127.657 45.1621 128.155 45.2409 128.606 45.3984C129.057 45.556 129.444 45.8066 129.766 46.1504C130.096 46.4941 130.346 46.9489 130.518 47.5146C130.697 48.0804 130.787 48.7715 130.787 49.5879V57H127.672V49.5771C127.672 49.0615 127.6 48.6605 127.457 48.374C127.314 48.0876 127.102 47.887 126.823 47.7725C126.551 47.6507 126.214 47.5898 125.813 47.5898C125.398 47.5898 125.036 47.6722 124.728 47.8369C124.427 48.0016 124.177 48.2308 123.976 48.5244C123.783 48.8109 123.636 49.1475 123.536 49.5342C123.436 49.9209 123.385 50.3363 123.385 50.7803ZM139.324 53.7881C139.324 53.5661 139.259 53.3656 139.13 53.1865C139.001 53.0075 138.761 52.8428 138.41 52.6924C138.067 52.5348 137.569 52.3916 136.917 52.2627C136.33 52.1338 135.782 51.9727 135.274 51.7793C134.772 51.5788 134.336 51.3389 133.963 51.0596C133.598 50.7803 133.312 50.4508 133.104 50.0713C132.896 49.6846 132.792 49.2441 132.792 48.75C132.792 48.263 132.896 47.8047 133.104 47.375C133.319 46.9453 133.623 46.5658 134.017 46.2363C134.418 45.8997 134.905 45.6383 135.478 45.4521C136.058 45.2588 136.71 45.1621 137.433 45.1621C138.443 45.1621 139.309 45.3232 140.033 45.6455C140.763 45.9678 141.322 46.4118 141.708 46.9775C142.102 47.5361 142.299 48.1735 142.299 48.8896H139.205C139.205 48.5889 139.141 48.3203 139.012 48.084C138.89 47.8405 138.697 47.6507 138.432 47.5146C138.174 47.3714 137.838 47.2998 137.422 47.2998C137.078 47.2998 136.781 47.3607 136.531 47.4824C136.28 47.597 136.087 47.7546 135.951 47.9551C135.822 48.1484 135.757 48.3633 135.757 48.5996C135.757 48.7786 135.793 48.9398 135.865 49.083C135.943 49.2191 136.069 49.3444 136.241 49.459C136.412 49.5736 136.634 49.681 136.907 49.7812C137.186 49.8743 137.53 49.9603 137.938 50.0391C138.776 50.2109 139.524 50.4365 140.183 50.7158C140.842 50.988 141.365 51.3604 141.751 51.833C142.138 52.2985 142.331 52.9108 142.331 53.6699C142.331 54.1855 142.217 54.6582 141.988 55.0879C141.758 55.5176 141.429 55.8936 140.999 56.2158C140.57 56.5309 140.054 56.778 139.452 56.957C138.858 57.1289 138.188 57.2148 137.444 57.2148C136.362 57.2148 135.446 57.0215 134.694 56.6348C133.949 56.248 133.383 55.7575 132.996 55.1631C132.617 54.5615 132.427 53.9456 132.427 53.3154H135.36C135.374 53.738 135.481 54.0781 135.682 54.3359C135.89 54.5938 136.151 54.7799 136.466 54.8945C136.788 55.0091 137.136 55.0664 137.508 55.0664C137.909 55.0664 138.242 55.0127 138.507 54.9053C138.772 54.7907 138.973 54.6403 139.109 54.4541C139.252 54.2607 139.324 54.0387 139.324 53.7881ZM24.9554 73.3066V73.0811C24.9554 72.2288 25.0772 71.4447 25.3207 70.7285C25.5641 70.0052 25.9186 69.3786 26.3841 68.8486C26.8496 68.3187 27.4225 67.9069 28.1029 67.6133C28.7832 67.3125 29.5638 67.1621 30.4447 67.1621C31.3255 67.1621 32.1097 67.3125 32.7972 67.6133C33.4847 67.9069 34.0612 68.3187 34.5267 68.8486C34.9994 69.3786 35.3574 70.0052 35.6009 70.7285C35.8444 71.4447 35.9662 72.2288 35.9662 73.0811V73.3066C35.9662 74.1517 35.8444 74.9359 35.6009 75.6592C35.3574 76.3753 34.9994 77.002 34.5267 77.5391C34.0612 78.069 33.4883 78.4808 32.808 78.7744C32.1276 79.068 31.347 79.2148 30.4662 79.2148C29.5853 79.2148 28.8011 79.068 28.1136 78.7744C27.4333 78.4808 26.8568 78.069 26.3841 77.5391C25.9186 77.002 25.5641 76.3753 25.3207 75.6592C25.0772 74.9359 24.9554 74.1517 24.9554 73.3066ZM28.0492 73.0811V73.3066C28.0492 73.7936 28.0921 74.2484 28.1781 74.6709C28.264 75.0934 28.4001 75.4658 28.5863 75.7881C28.7796 76.1032 29.0303 76.3503 29.3382 76.5293C29.6462 76.7083 30.0222 76.7979 30.4662 76.7979C30.8959 76.7979 31.2647 76.7083 31.5726 76.5293C31.8806 76.3503 32.1276 76.1032 32.3138 75.7881C32.5 75.4658 32.6361 75.0934 32.722 74.6709C32.8151 74.2484 32.8617 73.7936 32.8617 73.3066V73.0811C32.8617 72.6084 32.8151 72.1644 32.722 71.749C32.6361 71.3265 32.4964 70.9541 32.3031 70.6318C32.1169 70.3024 31.8698 70.0446 31.5619 69.8584C31.2539 69.6722 30.8815 69.5791 30.4447 69.5791C30.0078 69.5791 29.6354 69.6722 29.3275 69.8584C29.0267 70.0446 28.7796 70.3024 28.5863 70.6318C28.4001 70.9541 28.264 71.3265 28.1781 71.749C28.0921 72.1644 28.0492 72.6084 28.0492 73.0811ZM41.7099 79H38.5947V66.3457C38.5947 65.4648 38.7666 64.7236 39.1103 64.1221C39.4612 63.5133 39.9518 63.055 40.582 62.7471C41.2194 62.432 41.9749 62.2744 42.8486 62.2744C43.135 62.2744 43.4108 62.2959 43.6757 62.3389C43.9407 62.3747 44.1985 62.4212 44.4492 62.4785L44.4169 64.8096C44.2809 64.7738 44.1376 64.7487 43.9873 64.7344C43.8369 64.7201 43.6614 64.7129 43.4609 64.7129C43.0885 64.7129 42.7698 64.7773 42.5048 64.9062C42.247 65.028 42.0501 65.2106 41.914 65.4541C41.7779 65.6976 41.7099 65.9948 41.7099 66.3457V79ZM44.0302 67.377V69.5684H36.8652V67.377H44.0302ZM54.0246 69.9121V79H50.9308V67.377H53.8419L54.0246 69.9121ZM57.5265 67.3018L57.4728 70.1699C57.3224 70.1484 57.1398 70.1305 56.925 70.1162C56.7173 70.0947 56.5275 70.084 56.3556 70.084C55.9188 70.084 55.5392 70.1413 55.2169 70.2559C54.9018 70.3633 54.6369 70.5244 54.422 70.7393C54.2143 70.9541 54.0568 71.2155 53.9494 71.5234C53.8491 71.8314 53.7918 72.1823 53.7775 72.5762L53.1544 72.3828C53.1544 71.6309 53.2296 70.9398 53.38 70.3096C53.5304 69.6722 53.7488 69.1172 54.0353 68.6445C54.3289 68.1719 54.687 67.8066 55.1095 67.5488C55.532 67.291 56.0154 67.1621 56.5597 67.1621C56.7316 67.1621 56.907 67.1764 57.0861 67.2051C57.2651 67.2266 57.4119 67.2588 57.5265 67.3018ZM64.0222 79.2148C63.1199 79.2148 62.3106 79.0716 61.5945 78.7852C60.8783 78.4915 60.2696 78.0869 59.7683 77.5713C59.2742 77.0557 58.8946 76.4577 58.6296 75.7773C58.3647 75.0898 58.2322 74.3594 58.2322 73.5859V73.1562C58.2322 72.2754 58.3575 71.4697 58.6082 70.7393C58.8588 70.0088 59.2169 69.375 59.6824 68.8379C60.155 68.3008 60.7279 67.889 61.4011 67.6025C62.0743 67.3089 62.8334 67.1621 63.6785 67.1621C64.502 67.1621 65.2325 67.2982 65.8699 67.5703C66.5072 67.8424 67.0408 68.2292 67.4705 68.7305C67.9073 69.2318 68.2367 69.8333 68.4587 70.5352C68.6807 71.2298 68.7917 72.0033 68.7917 72.8555V74.1445H59.5535V72.082H65.7517V71.8457C65.7517 71.416 65.6729 71.0329 65.5154 70.6963C65.365 70.3525 65.1358 70.0804 64.8279 69.8799C64.5199 69.6794 64.1261 69.5791 63.6462 69.5791C63.238 69.5791 62.8871 69.6686 62.5935 69.8477C62.2999 70.0267 62.06 70.2773 61.8738 70.5996C61.6947 70.9219 61.5587 71.3014 61.4656 71.7383C61.3796 72.168 61.3367 72.6406 61.3367 73.1562V73.5859C61.3367 74.0514 61.4011 74.4811 61.53 74.875C61.6661 75.2689 61.8559 75.609 62.0994 75.8955C62.35 76.182 62.6508 76.404 63.0017 76.5615C63.3598 76.7191 63.7644 76.7979 64.2156 76.7979C64.7742 76.7979 65.2934 76.6904 65.7732 76.4756C66.2602 76.2536 66.6791 75.9206 67.03 75.4766L68.5339 77.1094C68.2904 77.4603 67.9574 77.7969 67.5349 78.1191C67.1195 78.4414 66.6182 78.7064 66.031 78.9141C65.4438 79.1146 64.7742 79.2148 64.0222 79.2148ZM73.7191 62.5V79H70.6146V62.5H73.7191ZM79.4414 67.377V79H76.3369V67.377H79.4414ZM76.1435 64.3477C76.1435 63.8965 76.3011 63.5241 76.6162 63.2305C76.9313 62.9368 77.3538 62.79 77.8837 62.79C78.4065 62.79 78.8255 62.9368 79.1406 63.2305C79.4628 63.5241 79.624 63.8965 79.624 64.3477C79.624 64.7988 79.4628 65.1712 79.1406 65.4648C78.8255 65.7585 78.4065 65.9053 77.8837 65.9053C77.3538 65.9053 76.9313 65.7585 76.6162 65.4648C76.3011 65.1712 76.1435 64.7988 76.1435 64.3477ZM88.1714 76.3789V71.2012C88.1714 70.8288 88.1106 70.5101 87.9888 70.2451C87.8671 69.973 87.6773 69.7617 87.4195 69.6113C87.1688 69.4609 86.843 69.3857 86.4419 69.3857C86.0982 69.3857 85.801 69.4466 85.5503 69.5684C85.2997 69.6829 85.1063 69.8512 84.9703 70.0732C84.8342 70.2881 84.7662 70.5423 84.7662 70.8359H81.6724C81.6724 70.3418 81.787 69.8727 82.0162 69.4287C82.2453 68.9847 82.5783 68.5944 83.0152 68.2578C83.452 67.9141 83.9712 67.6455 84.5728 67.4521C85.1815 67.2588 85.8619 67.1621 86.6138 67.1621C87.5162 67.1621 88.3182 67.3125 89.0201 67.6133C89.7219 67.9141 90.2733 68.3652 90.6744 68.9668C91.0826 69.5684 91.2867 70.3203 91.2867 71.2227V76.1963C91.2867 76.8337 91.3261 77.3564 91.4048 77.7646C91.4836 78.1657 91.5982 78.5166 91.7486 78.8174V79H88.6226C88.4722 78.6849 88.3576 78.291 88.2789 77.8184C88.2072 77.3385 88.1714 76.8587 88.1714 76.3789ZM88.5796 71.9209L88.6011 73.6719H86.8716C86.4634 73.6719 86.1089 73.7184 85.8082 73.8115C85.5074 73.9046 85.2603 74.0371 85.0669 74.209C84.8736 74.3737 84.7304 74.5671 84.6373 74.7891C84.5513 75.0111 84.5084 75.2546 84.5084 75.5195C84.5084 75.7845 84.5692 76.0244 84.691 76.2393C84.8127 76.4469 84.9882 76.6117 85.2173 76.7334C85.4465 76.848 85.7151 76.9053 86.023 76.9053C86.4885 76.9053 86.8931 76.8122 87.2369 76.626C87.5806 76.4398 87.8456 76.2106 88.0318 75.9385C88.2251 75.6663 88.3254 75.4085 88.3326 75.165L89.149 76.4756C89.0344 76.7692 88.8768 77.0736 88.6763 77.3887C88.483 77.7038 88.2359 78.001 87.9351 78.2803C87.6343 78.5524 87.2727 78.778 86.8501 78.957C86.4276 79.1289 85.9263 79.2148 85.3462 79.2148C84.6086 79.2148 83.939 79.068 83.3375 78.7744C82.7431 78.4736 82.2704 78.0618 81.9195 77.5391C81.5757 77.0091 81.4039 76.4076 81.4039 75.7344C81.4039 75.1257 81.5184 74.585 81.7476 74.1123C81.9768 73.6396 82.3134 73.2422 82.7574 72.9199C83.2085 72.5905 83.7707 72.3434 84.4439 72.1787C85.1171 72.0068 85.8977 71.9209 86.7857 71.9209H88.5796ZM93.5714 62.5H96.6652V76.3359L96.3537 79H93.5714V62.5ZM104.024 73.0703V73.2959C104.024 74.1624 103.93 74.9574 103.744 75.6807C103.565 76.404 103.286 77.0306 102.906 77.5605C102.527 78.0833 102.054 78.4915 101.488 78.7852C100.93 79.0716 100.271 79.2148 99.5119 79.2148C98.8029 79.2148 98.187 79.0716 97.6642 78.7852C97.1486 78.4987 96.7153 78.0941 96.3644 77.5713C96.0135 77.0485 95.7306 76.4362 95.5158 75.7344C95.3009 75.0326 95.1398 74.2663 95.0324 73.4355V72.9414C95.1398 72.1107 95.3009 71.3444 95.5158 70.6426C95.7306 69.9408 96.0135 69.3285 96.3644 68.8057C96.7153 68.2829 97.1486 67.8783 97.6642 67.5918C98.1798 67.3053 98.7886 67.1621 99.4904 67.1621C100.257 67.1621 100.923 67.3089 101.488 67.6025C102.061 67.889 102.534 68.2972 102.906 68.8271C103.286 69.3499 103.565 69.973 103.744 70.6963C103.93 71.4124 104.024 72.2038 104.024 73.0703ZM100.93 73.2959V73.0703C100.93 72.5977 100.894 72.1536 100.822 71.7383C100.758 71.3158 100.643 70.9469 100.479 70.6318C100.314 70.3096 100.088 70.0553 99.8019 69.8691C99.5226 69.6829 99.161 69.5898 98.7169 69.5898C98.2944 69.5898 97.9363 69.6615 97.6427 69.8047C97.3491 69.9479 97.1056 70.1484 96.9123 70.4062C96.7261 70.6641 96.5864 70.972 96.4933 71.3301C96.4002 71.681 96.3429 72.0677 96.3214 72.4902V73.8975C96.3429 74.4632 96.436 74.9645 96.6007 75.4014C96.7726 75.8311 97.0304 76.1712 97.3742 76.4219C97.7251 76.6654 98.1798 76.7871 98.7384 76.7871C99.1753 76.7871 99.5369 76.7012 99.8234 76.5293C100.11 76.3574 100.332 76.1139 100.489 75.7988C100.654 75.4837 100.769 75.1149 100.833 74.6924C100.898 74.2627 100.93 73.7972 100.93 73.2959ZM109.112 67.377V79H106.008V67.377H109.112ZM105.814 64.3477C105.814 63.8965 105.972 63.5241 106.287 63.2305C106.602 62.9368 107.024 62.79 107.554 62.79C108.077 62.79 108.496 62.9368 108.811 63.2305C109.134 63.5241 109.295 63.8965 109.295 64.3477C109.295 64.7988 109.134 65.1712 108.811 65.4648C108.496 65.7585 108.077 65.9053 107.554 65.9053C107.024 65.9053 106.602 65.7585 106.287 65.4648C105.972 65.1712 105.814 64.7988 105.814 64.3477ZM114.834 62.5V79H111.73V62.5H114.834ZM120.557 67.377V79H117.452V67.377H120.557ZM117.259 64.3477C117.259 63.8965 117.416 63.5241 117.731 63.2305C118.047 62.9368 118.469 62.79 118.999 62.79C119.522 62.79 119.941 62.9368 120.256 63.2305C120.578 63.5241 120.739 63.8965 120.739 64.3477C120.739 64.7988 120.578 65.1712 120.256 65.4648C119.941 65.7585 119.522 65.9053 118.999 65.9053C118.469 65.9053 118.047 65.7585 117.731 65.4648C117.416 65.1712 117.259 64.7988 117.259 64.3477ZM128.707 67.377V69.5684H121.939V67.377H128.707ZM123.615 64.5088H126.709V75.498C126.709 75.8346 126.752 76.0924 126.837 76.2715C126.931 76.4505 127.067 76.5758 127.246 76.6475C127.425 76.7119 127.65 76.7441 127.922 76.7441C128.116 76.7441 128.288 76.737 128.438 76.7227C128.596 76.7012 128.728 76.6797 128.836 76.6582L128.846 78.9355C128.581 79.0215 128.295 79.0895 127.987 79.1396C127.679 79.1898 127.339 79.2148 126.966 79.2148C126.286 79.2148 125.692 79.1038 125.183 78.8818C124.682 78.6527 124.295 78.2874 124.023 77.7861C123.751 77.2848 123.615 76.626 123.615 75.8096V64.5088ZM133.817 77.6895L136.9 67.377H140.219L135.546 80.751C135.446 81.0446 135.31 81.3597 135.138 81.6963C134.973 82.0329 134.748 82.3516 134.461 82.6523C134.182 82.9603 133.827 83.2109 133.398 83.4043C132.975 83.5977 132.456 83.6943 131.84 83.6943C131.546 83.6943 131.306 83.6764 131.12 83.6406C130.934 83.6048 130.712 83.5547 130.454 83.4902V81.2236C130.533 81.2236 130.615 81.2236 130.701 81.2236C130.787 81.2308 130.87 81.2344 130.948 81.2344C131.357 81.2344 131.69 81.1878 131.947 81.0947C132.205 81.0016 132.413 80.8584 132.57 80.665C132.728 80.4788 132.853 80.2354 132.946 79.9346L133.817 77.6895ZM132.527 67.377L135.052 75.7988L135.492 79.0752L133.387 79.3008L129.208 67.377H132.527Z" fill="#E27B14"/>
<path d="M109.757 116.64C128.518 104.109 145.224 90.8878 161.372 75.2477C175.99 61.0892 175.459 51.0955 178.144 40.3938C182.702 22.2256 154.133 6.44938 141.494 4.39764C128.13 2.22819 108.814 2.78038 89.9314 4.71255C57.0971 8.07229 32.8761 13.7059 12.3379 40.3938C-11.5123 71.3856 13.6767 118.208 50.0638 126.066C55.0886 127.151 69.4182 127.315 79.6348 126.429C86.3222 125.849 91.0901 124.113 97.4789 121.988C102.821 119.138 106.545 117.708 111.204 114.164C112.41 113.438 113.465 113.438 115.351 111.303" stroke="#E27B14" stroke-width="6" stroke-linecap="round"/>
</svg>
