<svg width="537" height="204" viewBox="0 0 537 204" fill="none" xmlns="http://www.w3.org/2000/svg">
<path d="M331.37 119.783C328.312 114.83 320.464 114.028 315.05 116.284C308.555 118.996 303.203 127.103 306.112 133.382C308.786 139.151 317.282 140.87 323.21 138.431C330.501 135.436 335.032 125.707 331.37 119.779V119.783Z" fill="#E1E2C7"/>
<path d="M235.197 75.4313C234.51 74.8361 230.09 71.1353 224.435 72.2249C223.518 72.4025 218.186 73.4297 216.88 77.7209C215.747 81.4553 218.531 84.8009 218.939 85.2761C221.594 88.3625 226.994 90.3737 231.534 87.5657C235.566 85.0697 237.17 79.8521 235.197 75.4313Z" fill="#E1E2C7"/>
<path d="M305.181 102.637C302.123 98.2933 295.264 97.4053 290.982 100.578C288.304 102.565 286.173 106.482 287.32 110.423C288.707 115.18 293.853 116.471 294.419 116.605C298.682 117.604 304.154 115.842 306.098 111.34C307.331 108.484 306.899 105.081 305.181 102.637Z" fill="#E1E2C7"/>
<path d="M152.071 17.2575C143.109 17.151 133.722 39.7455 130.984 58.1127C128.519 74.6583 132.243 82.36 126.72 86.3049C118.453 92.2038 106.273 77.7149 87.9341 82.2943C79.331 84.4441 68.6972 90.9596 67.3792 100.426C66.5999 106.034 69.0917 112.59 73.7915 116.821C88.0648 129.678 113.242 112.522 123.468 123.409C126.901 127.065 124.323 129.286 126.88 155.045C128.827 174.663 130.838 178.586 134.023 181.219C140.226 186.332 152.166 187.594 158.1 182.356C171.275 170.731 148.672 132.535 158.714 126.262C164.762 122.488 174.201 135.562 186.092 132.291C198.971 128.742 208.164 107.831 202.005 98.3387C194.474 86.7365 167.951 98.3319 160.757 86.8555C154.761 77.2766 170.99 65.61 168.014 43.4199C166.359 31.078 159.019 17.3329 152.063 17.255L152.071 17.2575Z" fill="#6196A6"/>
<path d="M259.611 84.1153C281.824 125.822 287.131 150.675 303.984 177.795C307.869 184.047 311.984 187.155 316.877 185.449C348.055 174.575 349.371 126.942 362.664 78.9819C369.961 52.6554 375.131 36.1419 382.664 32.1419C386.407 30.1547 391.077 30.7819 396.424 33.8619C423.077 58.2486 444.464 81.3953 452.438 89.8353C456.891 92.9953 462.171 93.8753 472.944 100.115" stroke="#FFDCC1" stroke-width="18" stroke-linecap="round"/>
<path d="M20.9279 203.627C32.4861 203.627 41.8558 194.257 41.8558 182.699C41.8558 171.141 32.4861 161.771 20.9279 161.771C9.36976 161.771 0 171.141 0 182.699C0 194.257 9.36976 203.627 20.9279 203.627Z" fill="#E27B14"/>
<path d="M460.75 155.499C468.559 155.499 474.889 149.169 474.889 141.36C474.889 133.551 468.559 127.221 460.75 127.221C452.941 127.221 446.611 133.551 446.611 141.36C446.611 149.169 452.941 155.499 460.75 155.499Z" fill="#D6E513"/>
<path d="M515.905 161.856C527.463 161.856 536.833 152.486 536.833 140.928C536.833 129.37 527.463 120 515.905 120C504.347 120 494.977 129.37 494.977 140.928C494.977 152.486 504.347 161.856 515.905 161.856Z" fill="#D6E513"/>
</svg>
