<svg width="559" height="452" viewBox="0 0 559 452" fill="none" xmlns="http://www.w3.org/2000/svg">
<path d="M5.81123 270.976C8.86883 266.022 16.7168 265.221 22.1312 267.477C28.6256 270.189 33.9776 278.296 31.0688 284.574C28.3952 290.344 19.8992 292.062 13.9712 289.624C6.68003 286.629 2.14883 276.899 5.81123 270.971V270.976Z" fill="#E1E2C7"/>
<path d="M101.984 226.624C102.671 226.028 107.091 222.328 112.746 223.417C113.663 223.595 118.995 224.622 120.301 228.913C121.434 232.648 118.65 235.993 118.242 236.468C115.587 239.555 110.187 241.566 105.647 238.758C101.615 236.262 100.011 231.044 101.984 226.624Z" fill="#E1E2C7"/>
<path d="M32.0001 253.83C35.0577 249.486 41.9169 248.598 46.1985 251.771C48.8769 253.758 51.0081 257.675 49.8609 261.615C48.4737 266.372 43.3281 267.663 42.7617 267.798C38.4993 268.796 33.0273 267.035 31.0833 262.532C29.8497 259.676 30.2817 256.273 32.0001 253.83Z" fill="#E1E2C7"/>
<path d="M322.493 50.5777C330.908 97.0757 328.371 122.362 336.137 153.334C337.927 160.473 340.896 164.69 346.077 164.559C379.086 163.726 394.885 118.771 422.191 77.1617C437.179 54.3215 447.145 40.1757 455.54 38.6674C459.71 37.9181 463.967 39.9418 468.117 44.5075C486.049 75.8689 499.345 104.441 504.36 114.913C507.636 119.282 512.395 121.733 520.748 130.965" stroke="#FFDCC1" stroke-width="18" stroke-linecap="round"/>
<path d="M20.9279 189.509C32.4861 189.509 41.8558 180.139 41.8558 168.581C41.8558 157.023 32.4861 147.653 20.9279 147.653C9.36976 147.653 0 157.023 0 168.581C0 180.139 9.36976 189.509 20.9279 189.509Z" fill="#E27B14"/>
<path d="M62.5149 137.899C62.5149 119.85 77.1467 105.218 95.1959 105.218H450.018C468.067 105.218 482.699 119.85 482.699 137.899V336.319C482.699 354.368 468.067 369 450.018 369H95.1959C77.1467 369 62.5149 354.368 62.5149 336.319V137.899Z" fill="#EDE6E7"/>
<path d="M81.1897 142.567C81.1897 132.254 89.5507 123.893 99.8645 123.893H445.349C455.663 123.893 464.024 132.254 464.024 142.567V217.267C464.024 227.581 455.663 235.942 445.349 235.942H99.8645C89.5507 235.942 81.1897 227.581 81.1897 217.267V142.567Z" fill="#FFF7F8"/>
<path d="M104.533 179.917C104.533 161.868 119.165 147.236 137.214 147.236C155.263 147.236 169.895 161.868 169.895 179.917C169.895 197.967 155.263 212.598 137.214 212.598C119.165 212.598 104.533 197.967 104.533 179.917Z" fill="#F5EEEF"/>
<path d="M160.558 170.58L141.105 189.255L125.542 174.315L113.871 185.52" stroke="#665459" stroke-width="4.66871" stroke-linecap="round" stroke-linejoin="round"/>
<path d="M210.728 168.855V174.025C210.728 176.268 210.489 178.203 210.01 179.831C209.531 181.445 208.841 182.772 207.938 183.811C207.049 184.837 205.989 185.596 204.758 186.089C203.527 186.581 202.159 186.827 200.654 186.827C199.451 186.827 198.329 186.677 197.29 186.376C196.25 186.061 195.313 185.576 194.479 184.919C193.658 184.263 192.947 183.435 192.345 182.437C191.757 181.425 191.306 180.221 190.991 178.826C190.676 177.431 190.519 175.83 190.519 174.025V168.855C190.519 166.611 190.759 164.69 191.237 163.089C191.73 161.475 192.42 160.155 193.309 159.13C194.212 158.104 195.279 157.352 196.51 156.873C197.741 156.38 199.109 156.134 200.613 156.134C201.817 156.134 202.932 156.291 203.958 156.606C204.997 156.907 205.934 157.379 206.768 158.022C207.603 158.665 208.314 159.492 208.902 160.504C209.49 161.503 209.942 162.7 210.256 164.095C210.571 165.476 210.728 167.063 210.728 168.855ZM204.799 174.804V168.054C204.799 166.974 204.737 166.03 204.614 165.223C204.505 164.416 204.334 163.732 204.101 163.171C203.869 162.597 203.582 162.132 203.24 161.776C202.898 161.421 202.508 161.161 202.07 160.997C201.632 160.833 201.147 160.75 200.613 160.75C199.943 160.75 199.348 160.88 198.828 161.14C198.322 161.4 197.892 161.817 197.536 162.392C197.18 162.953 196.907 163.705 196.715 164.649C196.537 165.579 196.449 166.714 196.449 168.054V174.804C196.449 175.885 196.503 176.836 196.613 177.656C196.736 178.477 196.914 179.181 197.146 179.77C197.392 180.344 197.68 180.816 198.008 181.185C198.35 181.541 198.74 181.801 199.177 181.965C199.629 182.129 200.121 182.211 200.654 182.211C201.311 182.211 201.892 182.081 202.398 181.821C202.918 181.548 203.356 181.124 203.711 180.549C204.081 179.961 204.354 179.195 204.532 178.251C204.71 177.308 204.799 176.159 204.799 174.804ZM219.726 172.814L215.007 171.686L216.71 156.545H233.493V161.325H221.572L220.834 167.952C221.231 167.719 221.832 167.473 222.639 167.213C223.446 166.94 224.349 166.803 225.348 166.803C226.797 166.803 228.083 167.029 229.205 167.48C230.326 167.931 231.277 168.588 232.057 169.45C232.85 170.311 233.452 171.364 233.862 172.609C234.272 173.854 234.478 175.263 234.478 176.836C234.478 178.162 234.272 179.428 233.862 180.631C233.452 181.821 232.829 182.888 231.995 183.832C231.161 184.762 230.114 185.494 228.856 186.027C227.598 186.561 226.107 186.827 224.383 186.827C223.098 186.827 221.853 186.636 220.649 186.253C219.459 185.87 218.386 185.302 217.428 184.55C216.484 183.798 215.725 182.888 215.151 181.821C214.59 180.741 214.296 179.51 214.269 178.128H220.136C220.218 178.976 220.437 179.708 220.793 180.324C221.162 180.925 221.648 181.39 222.25 181.719C222.851 182.047 223.556 182.211 224.363 182.211C225.115 182.211 225.758 182.067 226.291 181.78C226.825 181.493 227.256 181.096 227.584 180.59C227.912 180.07 228.152 179.469 228.302 178.785C228.466 178.087 228.548 177.335 228.548 176.528C228.548 175.721 228.452 174.989 228.261 174.333C228.069 173.676 227.775 173.108 227.379 172.63C226.982 172.151 226.476 171.782 225.86 171.522C225.259 171.262 224.554 171.132 223.747 171.132C222.653 171.132 221.805 171.303 221.203 171.645C220.615 171.987 220.123 172.377 219.726 172.814ZM257.837 178.231C257.837 180.105 257.399 181.684 256.524 182.97C255.649 184.242 254.445 185.207 252.913 185.863C251.395 186.506 249.671 186.827 247.743 186.827C245.814 186.827 244.084 186.506 242.552 185.863C241.02 185.207 239.81 184.242 238.921 182.97C238.032 181.684 237.587 180.105 237.587 178.231C237.587 176.972 237.84 175.837 238.346 174.825C238.852 173.799 239.557 172.924 240.459 172.199C241.376 171.46 242.449 170.899 243.68 170.516C244.911 170.12 246.252 169.921 247.702 169.921C249.644 169.921 251.381 170.263 252.913 170.947C254.445 171.631 255.649 172.596 256.524 173.84C257.399 175.085 257.837 176.548 257.837 178.231ZM251.887 177.841C251.887 176.925 251.709 176.138 251.354 175.482C251.012 174.811 250.526 174.298 249.897 173.943C249.268 173.587 248.536 173.409 247.702 173.409C246.867 173.409 246.136 173.587 245.506 173.943C244.877 174.298 244.385 174.811 244.029 175.482C243.687 176.138 243.516 176.925 243.516 177.841C243.516 178.744 243.687 179.523 244.029 180.18C244.385 180.836 244.877 181.343 245.506 181.698C246.149 182.04 246.895 182.211 247.743 182.211C248.591 182.211 249.323 182.04 249.938 181.698C250.567 181.343 251.046 180.836 251.374 180.18C251.716 179.523 251.887 178.744 251.887 177.841ZM257.201 164.464C257.201 165.982 256.798 167.33 255.991 168.506C255.184 169.668 254.062 170.578 252.626 171.235C251.203 171.891 249.576 172.219 247.743 172.219C245.896 172.219 244.255 171.891 242.819 171.235C241.383 170.578 240.261 169.668 239.454 168.506C238.647 167.33 238.244 165.982 238.244 164.464C238.244 162.659 238.647 161.14 239.454 159.909C240.275 158.665 241.396 157.721 242.819 157.078C244.255 156.435 245.883 156.114 247.702 156.114C249.548 156.114 251.183 156.435 252.605 157.078C254.041 157.721 255.163 158.665 255.97 159.909C256.791 161.14 257.201 162.659 257.201 164.464ZM251.292 164.731C251.292 163.924 251.149 163.226 250.861 162.638C250.574 162.036 250.164 161.571 249.63 161.243C249.111 160.915 248.468 160.75 247.702 160.75C246.963 160.75 246.327 160.908 245.794 161.222C245.274 161.537 244.87 161.995 244.583 162.597C244.31 163.185 244.173 163.896 244.173 164.731C244.173 165.538 244.31 166.249 244.583 166.864C244.87 167.466 245.281 167.938 245.814 168.28C246.348 168.622 246.991 168.793 247.743 168.793C248.495 168.793 249.131 168.622 249.651 168.28C250.184 167.938 250.588 167.466 250.861 166.864C251.149 166.249 251.292 165.538 251.292 164.731Z" fill="#665459"/>
<path d="M197.633 198.013H195.257V196.765H197.633C198.047 196.765 198.381 196.699 198.636 196.565C198.891 196.431 199.077 196.247 199.194 196.013C199.316 195.775 199.376 195.503 199.376 195.198C199.376 194.91 199.316 194.64 199.194 194.389C199.077 194.134 198.891 193.93 198.636 193.775C198.381 193.62 198.047 193.543 197.633 193.543H195.74V201.417H194.167V192.289H197.633C198.34 192.289 198.939 192.415 199.433 192.665C199.93 192.912 200.308 193.255 200.567 193.694C200.826 194.128 200.956 194.626 200.956 195.186C200.956 195.775 200.826 196.281 200.567 196.703C200.308 197.125 199.93 197.449 199.433 197.674C198.939 197.9 198.34 198.013 197.633 198.013ZM201.606 198.101V197.956C201.606 197.468 201.677 197.014 201.82 196.596C201.962 196.174 202.166 195.808 202.434 195.499C202.706 195.186 203.036 194.943 203.424 194.772C203.817 194.596 204.26 194.509 204.753 194.509C205.251 194.509 205.694 194.596 206.083 194.772C206.475 194.943 206.808 195.186 207.079 195.499C207.351 195.808 207.558 196.174 207.7 196.596C207.842 197.014 207.913 197.468 207.913 197.956V198.101C207.913 198.59 207.842 199.043 207.7 199.461C207.558 199.879 207.351 200.245 207.079 200.558C206.808 200.867 206.477 201.11 206.089 201.285C205.7 201.457 205.259 201.542 204.766 201.542C204.269 201.542 203.824 201.457 203.431 201.285C203.042 201.11 202.712 200.867 202.44 200.558C202.169 200.245 201.962 199.879 201.82 199.461C201.677 199.043 201.606 198.59 201.606 198.101ZM203.117 197.956V198.101C203.117 198.406 203.149 198.694 203.211 198.966C203.274 199.237 203.372 199.476 203.506 199.68C203.64 199.885 203.811 200.046 204.02 200.163C204.229 200.28 204.478 200.339 204.766 200.339C205.046 200.339 205.288 200.28 205.493 200.163C205.702 200.046 205.874 199.885 206.007 199.68C206.141 199.476 206.239 199.237 206.302 198.966C206.369 198.694 206.402 198.406 206.402 198.101V197.956C206.402 197.656 206.369 197.371 206.302 197.104C206.239 196.832 206.139 196.592 206.001 196.383C205.867 196.174 205.696 196.011 205.487 195.894C205.282 195.773 205.038 195.712 204.753 195.712C204.469 195.712 204.223 195.773 204.014 195.894C203.809 196.011 203.64 196.174 203.506 196.383C203.372 196.592 203.274 196.832 203.211 197.104C203.149 197.371 203.117 197.656 203.117 197.956ZM210.563 194.634V201.417H209.046V194.634H210.563ZM208.946 192.854C208.946 192.624 209.021 192.433 209.172 192.283C209.326 192.128 209.539 192.051 209.811 192.051C210.079 192.051 210.29 192.128 210.444 192.283C210.599 192.433 210.676 192.624 210.676 192.854C210.676 193.079 210.599 193.267 210.444 193.418C210.29 193.568 210.079 193.643 209.811 193.643C209.539 193.643 209.326 193.568 209.172 193.418C209.021 193.267 208.946 193.079 208.946 192.854ZM213.483 196.082V201.417H211.972V194.634H213.396L213.483 196.082ZM213.214 197.775L212.725 197.768C212.729 197.288 212.796 196.847 212.925 196.446C213.059 196.044 213.243 195.7 213.477 195.411C213.715 195.123 213.999 194.901 214.33 194.747C214.66 194.588 215.028 194.509 215.433 194.509C215.759 194.509 216.054 194.555 216.317 194.646C216.584 194.734 216.812 194.878 217 195.079C217.192 195.28 217.339 195.541 217.439 195.863C217.539 196.18 217.589 196.571 217.589 197.035V201.417H216.072V197.029C216.072 196.703 216.024 196.446 215.928 196.258C215.836 196.065 215.7 195.93 215.521 195.85C215.345 195.767 215.126 195.725 214.862 195.725C214.603 195.725 214.371 195.779 214.167 195.888C213.962 195.996 213.788 196.145 213.646 196.333C213.508 196.521 213.402 196.738 213.327 196.985C213.251 197.231 213.214 197.495 213.214 197.775ZM222.008 194.634V195.737H218.184V194.634H222.008ZM219.287 192.973H220.798V199.543C220.798 199.752 220.827 199.912 220.886 200.025C220.948 200.134 221.034 200.207 221.143 200.245C221.251 200.282 221.379 200.301 221.525 200.301C221.629 200.301 221.73 200.295 221.826 200.282C221.922 200.27 221.999 200.257 222.058 200.245L222.064 201.398C221.939 201.436 221.792 201.469 221.625 201.498C221.462 201.528 221.274 201.542 221.061 201.542C220.714 201.542 220.407 201.482 220.139 201.361C219.872 201.235 219.663 201.032 219.513 200.752C219.362 200.472 219.287 200.1 219.287 199.637V192.973ZM226.746 199.58C226.746 199.43 226.708 199.294 226.633 199.173C226.557 199.047 226.413 198.934 226.2 198.834C225.991 198.734 225.682 198.642 225.272 198.558C224.913 198.479 224.583 198.385 224.282 198.276C223.985 198.163 223.73 198.028 223.517 197.869C223.304 197.71 223.139 197.522 223.022 197.305C222.905 197.087 222.846 196.836 222.846 196.552C222.846 196.276 222.907 196.015 223.028 195.769C223.149 195.522 223.323 195.305 223.548 195.117C223.774 194.929 224.048 194.78 224.37 194.672C224.696 194.563 225.059 194.509 225.46 194.509C226.029 194.509 226.516 194.605 226.921 194.797C227.331 194.985 227.644 195.242 227.861 195.568C228.079 195.89 228.187 196.253 228.187 196.659H226.677C226.677 196.479 226.631 196.312 226.539 196.157C226.451 195.998 226.317 195.871 226.137 195.775C225.958 195.675 225.732 195.624 225.46 195.624C225.201 195.624 224.986 195.666 224.815 195.75C224.648 195.829 224.522 195.934 224.439 196.063C224.359 196.193 224.319 196.335 224.319 196.49C224.319 196.602 224.34 196.705 224.382 196.797C224.428 196.884 224.503 196.966 224.608 197.041C224.712 197.112 224.854 197.179 225.034 197.242C225.218 197.305 225.448 197.365 225.724 197.424C226.242 197.532 226.687 197.672 227.059 197.844C227.435 198.011 227.724 198.228 227.924 198.496C228.125 198.759 228.225 199.093 228.225 199.499C228.225 199.8 228.16 200.075 228.031 200.326C227.905 200.573 227.721 200.788 227.479 200.972C227.237 201.152 226.946 201.292 226.608 201.392C226.273 201.492 225.897 201.542 225.479 201.542C224.865 201.542 224.345 201.434 223.918 201.216C223.492 200.995 223.168 200.713 222.947 200.37C222.729 200.023 222.621 199.664 222.621 199.292H224.081C224.098 199.572 224.175 199.795 224.313 199.963C224.455 200.126 224.631 200.245 224.84 200.32C225.053 200.391 225.272 200.426 225.498 200.426C225.77 200.426 225.997 200.391 226.181 200.32C226.365 200.245 226.505 200.144 226.601 200.019C226.697 199.889 226.746 199.743 226.746 199.58Z" fill="#837377"/>
<path d="M342.45 192.098L339.429 200.417H338.194L341.673 191.289H342.469L342.45 192.098ZM344.983 200.417L341.955 192.098L341.936 191.289H342.732L346.224 200.417H344.983ZM344.826 197.038V198.028H339.698V197.038H344.826ZM348.298 190.788V200.417H347.132V190.788H348.298ZM351.186 190.788V200.417H350.02V190.788H351.186ZM358.606 193.634V194.524H354.938V193.634H358.606ZM356.18 191.985H357.339V198.737C357.339 198.967 357.375 199.14 357.446 199.257C357.517 199.374 357.609 199.452 357.722 199.489C357.835 199.527 357.956 199.546 358.085 199.546C358.182 199.546 358.282 199.537 358.386 199.521C358.495 199.5 358.577 199.483 358.631 199.47L358.637 200.417C358.545 200.446 358.424 200.473 358.274 200.498C358.127 200.528 357.95 200.542 357.741 200.542C357.456 200.542 357.195 200.486 356.957 200.373C356.719 200.26 356.529 200.072 356.387 199.809C356.249 199.541 356.18 199.182 356.18 198.731V191.985ZM360.993 193.634V200.417H359.827V193.634H360.993ZM359.739 191.835C359.739 191.647 359.795 191.488 359.908 191.358C360.025 191.229 360.197 191.164 360.422 191.164C360.644 191.164 360.813 191.229 360.93 191.358C361.051 191.488 361.112 191.647 361.112 191.835C361.112 192.014 361.051 192.169 360.93 192.299C360.813 192.424 360.644 192.487 360.422 192.487C360.197 192.487 360.025 192.424 359.908 192.299C359.795 192.169 359.739 192.014 359.739 191.835ZM363.775 194.982V200.417H362.609V193.634H363.712L363.775 194.982ZM363.537 196.768L362.997 196.75C363.002 196.286 363.062 195.857 363.179 195.464C363.296 195.067 363.47 194.723 363.7 194.43C363.929 194.138 364.216 193.912 364.558 193.753C364.901 193.59 365.298 193.509 365.75 193.509C366.067 193.509 366.36 193.555 366.627 193.646C366.895 193.734 367.127 193.874 367.323 194.066C367.519 194.259 367.672 194.505 367.781 194.806C367.889 195.107 367.944 195.471 367.944 195.897V200.417H366.784V195.953C366.784 195.598 366.723 195.314 366.602 195.101C366.485 194.888 366.318 194.733 366.101 194.637C365.883 194.537 365.628 194.486 365.336 194.486C364.993 194.486 364.707 194.547 364.477 194.668C364.247 194.789 364.063 194.957 363.925 195.17C363.787 195.383 363.687 195.627 363.624 195.903C363.566 196.175 363.537 196.463 363.537 196.768ZM367.931 196.129L367.154 196.367C367.158 195.995 367.219 195.638 367.336 195.295C367.457 194.952 367.63 194.647 367.856 194.38C368.086 194.112 368.368 193.901 368.702 193.747C369.037 193.588 369.419 193.509 369.849 193.509C370.213 193.509 370.535 193.557 370.815 193.653C371.099 193.749 371.337 193.897 371.53 194.098C371.726 194.294 371.874 194.547 371.975 194.856C372.075 195.166 372.125 195.533 372.125 195.96V200.417H370.959V195.947C370.959 195.567 370.898 195.272 370.777 195.063C370.66 194.85 370.493 194.702 370.276 194.618C370.063 194.53 369.808 194.486 369.511 194.486C369.256 194.486 369.03 194.53 368.834 194.618C368.637 194.706 368.472 194.827 368.339 194.982C368.205 195.132 368.102 195.306 368.031 195.502C367.965 195.699 367.931 195.907 367.931 196.129ZM376.462 200.542C375.99 200.542 375.561 200.463 375.177 200.304C374.796 200.141 374.468 199.913 374.192 199.621C373.921 199.328 373.712 198.981 373.566 198.58C373.419 198.179 373.346 197.74 373.346 197.264V197C373.346 196.449 373.428 195.958 373.591 195.527C373.754 195.093 373.975 194.725 374.255 194.424C374.535 194.123 374.853 193.895 375.208 193.74C375.563 193.586 375.931 193.509 376.311 193.509C376.796 193.509 377.214 193.592 377.565 193.759C377.92 193.926 378.211 194.161 378.437 194.461C378.662 194.758 378.829 195.109 378.938 195.515C379.047 195.916 379.101 196.355 379.101 196.831V197.351H374.036V196.405H377.941V196.317C377.925 196.016 377.862 195.724 377.753 195.439C377.649 195.155 377.482 194.921 377.252 194.737C377.022 194.553 376.708 194.461 376.311 194.461C376.048 194.461 375.806 194.518 375.584 194.631C375.363 194.739 375.172 194.902 375.014 195.12C374.855 195.337 374.732 195.602 374.644 195.916C374.556 196.229 374.512 196.591 374.512 197V197.264C374.512 197.585 374.556 197.888 374.644 198.173C374.736 198.453 374.867 198.699 375.039 198.912C375.214 199.126 375.425 199.293 375.672 199.414C375.923 199.535 376.207 199.596 376.524 199.596C376.934 199.596 377.281 199.512 377.565 199.345C377.849 199.178 378.098 198.954 378.311 198.674L379.013 199.232C378.867 199.454 378.681 199.665 378.455 199.865C378.23 200.066 377.952 200.229 377.622 200.354C377.296 200.48 376.909 200.542 376.462 200.542ZM384.333 190.788V200.417H383.173V190.788H384.333ZM384.057 196.768L383.574 196.75C383.578 196.286 383.647 195.857 383.781 195.464C383.915 195.067 384.103 194.723 384.345 194.43C384.588 194.138 384.876 193.912 385.21 193.753C385.549 193.59 385.923 193.509 386.333 193.509C386.667 193.509 386.968 193.555 387.235 193.646C387.503 193.734 387.731 193.876 387.919 194.073C388.111 194.269 388.257 194.524 388.357 194.838C388.458 195.147 388.508 195.525 388.508 195.972V200.417H387.342V195.96C387.342 195.604 387.29 195.32 387.185 195.107C387.081 194.89 386.928 194.733 386.727 194.637C386.527 194.537 386.28 194.486 385.988 194.486C385.699 194.486 385.436 194.547 385.198 194.668C384.964 194.789 384.761 194.957 384.59 195.17C384.423 195.383 384.291 195.627 384.195 195.903C384.103 196.175 384.057 196.463 384.057 196.768ZM391.271 193.634V200.417H390.105V193.634H391.271ZM390.017 191.835C390.017 191.647 390.074 191.488 390.187 191.358C390.304 191.229 390.475 191.164 390.701 191.164C390.922 191.164 391.091 191.229 391.208 191.358C391.33 191.488 391.39 191.647 391.39 191.835C391.39 192.014 391.33 192.169 391.208 192.299C391.091 192.424 390.922 192.487 390.701 192.487C390.475 192.487 390.304 192.424 390.187 192.299C390.074 192.169 390.017 192.014 390.017 191.835ZM397.294 193.634H398.347V200.273C398.347 200.87 398.226 201.38 397.984 201.802C397.741 202.225 397.403 202.544 396.968 202.762C396.538 202.983 396.04 203.094 395.476 203.094C395.242 203.094 394.966 203.056 394.649 202.981C394.335 202.91 394.026 202.787 393.721 202.611C393.42 202.44 393.167 202.208 392.962 201.915L393.57 201.226C393.855 201.568 394.151 201.807 394.461 201.94C394.774 202.074 395.083 202.141 395.388 202.141C395.756 202.141 396.074 202.072 396.341 201.934C396.609 201.796 396.816 201.591 396.962 201.32C397.112 201.052 397.188 200.722 397.188 200.329V195.126L397.294 193.634ZM392.624 197.101V196.969C392.624 196.451 392.684 195.981 392.805 195.558C392.931 195.132 393.108 194.767 393.338 194.461C393.572 194.156 393.855 193.922 394.185 193.759C394.515 193.592 394.887 193.509 395.301 193.509C395.727 193.509 396.099 193.584 396.416 193.734C396.738 193.88 397.01 194.096 397.231 194.38C397.457 194.66 397.635 194.998 397.764 195.396C397.894 195.793 397.984 196.242 398.034 196.743V197.32C397.988 197.817 397.898 198.265 397.764 198.662C397.635 199.059 397.457 199.397 397.231 199.677C397.01 199.957 396.738 200.173 396.416 200.323C396.095 200.469 395.718 200.542 395.288 200.542C394.883 200.542 394.515 200.457 394.185 200.285C393.859 200.114 393.579 199.874 393.345 199.564C393.111 199.255 392.931 198.892 392.805 198.474C392.684 198.051 392.624 197.594 392.624 197.101ZM393.783 196.969V197.101C393.783 197.439 393.817 197.757 393.884 198.054C393.955 198.35 394.061 198.612 394.203 198.837C394.35 199.063 394.536 199.241 394.761 199.37C394.987 199.495 395.257 199.558 395.57 199.558C395.955 199.558 396.272 199.477 396.523 199.314C396.774 199.151 396.972 198.935 397.119 198.668C397.269 198.4 397.386 198.11 397.47 197.797V196.286C397.424 196.056 397.353 195.834 397.256 195.621C397.165 195.404 397.043 195.212 396.893 195.044C396.747 194.873 396.565 194.737 396.347 194.637C396.13 194.537 395.875 194.486 395.583 194.486C395.265 194.486 394.991 194.553 394.761 194.687C394.536 194.817 394.35 194.996 394.203 195.226C394.061 195.452 393.955 195.715 393.884 196.016C393.817 196.313 393.783 196.631 393.783 196.969ZM401.035 190.788V200.417H399.875V190.788H401.035ZM400.759 196.768L400.277 196.75C400.281 196.286 400.35 195.857 400.484 195.464C400.617 195.067 400.805 194.723 401.048 194.43C401.29 194.138 401.579 193.912 401.913 193.753C402.251 193.59 402.625 193.509 403.035 193.509C403.369 193.509 403.67 193.555 403.938 193.646C404.205 193.734 404.433 193.876 404.621 194.073C404.813 194.269 404.96 194.524 405.06 194.838C405.16 195.147 405.21 195.525 405.21 195.972V200.417H404.044V195.96C404.044 195.604 403.992 195.32 403.888 195.107C403.783 194.89 403.631 194.733 403.43 194.637C403.229 194.537 402.983 194.486 402.69 194.486C402.402 194.486 402.139 194.547 401.9 194.668C401.666 194.789 401.464 194.957 401.292 195.17C401.125 195.383 400.993 195.627 400.897 195.903C400.805 196.175 400.759 196.463 400.759 196.768Z" fill="#837377"/>
<path d="M416.495 191.258V200.417H414.984V193.051L412.746 193.809V192.562L416.313 191.258H416.495ZM425.552 199.213V200.417H419.434V199.383L422.405 196.142C422.731 195.774 422.988 195.456 423.176 195.189C423.364 194.921 423.496 194.681 423.571 194.468C423.651 194.25 423.69 194.039 423.69 193.835C423.69 193.546 423.636 193.293 423.527 193.076C423.423 192.854 423.268 192.681 423.063 192.556C422.859 192.426 422.61 192.361 422.317 192.361C421.979 192.361 421.695 192.434 421.465 192.581C421.235 192.727 421.062 192.93 420.945 193.189C420.828 193.444 420.769 193.736 420.769 194.066H419.258C419.258 193.536 419.379 193.051 419.622 192.612C419.864 192.169 420.215 191.818 420.675 191.559C421.135 191.296 421.688 191.164 422.336 191.164C422.946 191.164 423.465 191.266 423.891 191.471C424.317 191.676 424.641 191.966 424.863 192.342C425.088 192.719 425.201 193.164 425.201 193.678C425.201 193.962 425.155 194.244 425.063 194.524C424.971 194.804 424.84 195.084 424.668 195.364C424.501 195.64 424.303 195.918 424.073 196.198C423.843 196.474 423.59 196.754 423.314 197.038L421.34 199.213H425.552ZM432.447 195.088V196.58C432.447 197.295 432.376 197.905 432.234 198.411C432.096 198.912 431.895 199.32 431.632 199.633C431.368 199.947 431.053 200.177 430.685 200.323C430.322 200.469 429.914 200.542 429.463 200.542C429.103 200.542 428.769 200.496 428.46 200.404C428.155 200.313 427.879 200.168 427.632 199.972C427.386 199.775 427.174 199.523 426.999 199.213C426.828 198.9 426.694 198.526 426.598 198.091C426.506 197.657 426.46 197.153 426.46 196.58V195.088C426.46 194.369 426.531 193.763 426.673 193.27C426.815 192.773 427.018 192.37 427.281 192.06C427.544 191.747 427.858 191.519 428.221 191.377C428.589 191.235 428.999 191.164 429.45 191.164C429.814 191.164 430.148 191.21 430.453 191.302C430.762 191.39 431.038 191.53 431.281 191.722C431.527 191.914 431.736 192.165 431.908 192.474C432.083 192.779 432.217 193.149 432.309 193.584C432.401 194.014 432.447 194.516 432.447 195.088ZM430.936 196.793V194.863C430.936 194.499 430.915 194.179 430.873 193.903C430.831 193.623 430.769 193.387 430.685 193.195C430.606 192.999 430.505 192.84 430.384 192.719C430.263 192.593 430.125 192.503 429.97 192.449C429.816 192.391 429.642 192.361 429.45 192.361C429.216 192.361 429.007 192.407 428.823 192.499C428.639 192.587 428.485 192.729 428.359 192.926C428.234 193.122 428.138 193.381 428.071 193.703C428.008 194.02 427.977 194.407 427.977 194.863V196.793C427.977 197.161 427.998 197.485 428.04 197.765C428.081 198.045 428.144 198.286 428.228 198.486C428.311 198.683 428.412 198.846 428.529 198.975C428.65 199.1 428.788 199.192 428.942 199.251C429.101 199.309 429.275 199.339 429.463 199.339C429.701 199.339 429.912 199.293 430.096 199.201C430.28 199.109 430.434 198.963 430.56 198.762C430.685 198.557 430.779 198.292 430.842 197.966C430.905 197.64 430.936 197.249 430.936 196.793ZM439.51 195.088V196.58C439.51 197.295 439.439 197.905 439.297 198.411C439.159 198.912 438.959 199.32 438.695 199.633C438.432 199.947 438.117 200.177 437.749 200.323C437.385 200.469 436.978 200.542 436.526 200.542C436.167 200.542 435.833 200.496 435.523 200.404C435.218 200.313 434.942 200.168 434.696 199.972C434.449 199.775 434.238 199.523 434.063 199.213C433.891 198.9 433.758 198.526 433.661 198.091C433.569 197.657 433.524 197.153 433.524 196.58V195.088C433.524 194.369 433.595 193.763 433.737 193.27C433.879 192.773 434.081 192.37 434.345 192.06C434.608 191.747 434.922 191.519 435.285 191.377C435.653 191.235 436.062 191.164 436.514 191.164C436.877 191.164 437.212 191.21 437.517 191.302C437.826 191.39 438.102 191.53 438.344 191.722C438.591 191.914 438.8 192.165 438.971 192.474C439.147 192.779 439.281 193.149 439.373 193.584C439.464 194.014 439.51 194.516 439.51 195.088ZM438 196.793V194.863C438 194.499 437.979 194.179 437.937 193.903C437.895 193.623 437.832 193.387 437.749 193.195C437.669 192.999 437.569 192.84 437.448 192.719C437.327 192.593 437.189 192.503 437.034 192.449C436.88 192.391 436.706 192.361 436.514 192.361C436.28 192.361 436.071 192.407 435.887 192.499C435.703 192.587 435.548 192.729 435.423 192.926C435.298 193.122 435.202 193.381 435.135 193.703C435.072 194.02 435.041 194.407 435.041 194.863V196.793C435.041 197.161 435.062 197.485 435.103 197.765C435.145 198.045 435.208 198.286 435.291 198.486C435.375 198.683 435.475 198.846 435.592 198.975C435.713 199.1 435.851 199.192 436.006 199.251C436.165 199.309 436.338 199.339 436.526 199.339C436.765 199.339 436.976 199.293 437.16 199.201C437.343 199.109 437.498 198.963 437.623 198.762C437.749 198.557 437.843 198.292 437.906 197.966C437.968 197.64 438 197.249 438 196.793Z" fill="#665459"/>
<path d="M81.1897 266.288C81.1897 255.974 89.5507 247.613 99.8645 247.613H248.096C258.41 247.613 266.771 255.974 266.771 266.288V332.626C266.771 342.939 258.41 351.3 248.096 351.3H99.8645C89.5507 351.3 81.1897 342.939 81.1897 332.626V266.288Z" fill="#FFF7F8"/>
<path d="M104.533 299.457C104.533 290.433 111.849 283.117 120.874 283.117C129.898 283.117 137.214 290.433 137.214 299.457C137.214 308.482 129.898 315.798 120.874 315.798C111.849 315.798 104.533 308.482 104.533 299.457Z" fill="#FFDCC1"/>
<path d="M127.8 302.375C127.8 302.086 127.685 301.809 127.481 301.604L123.708 297.831L123.637 297.764C123.28 297.442 122.816 297.262 122.333 297.262C121.817 297.262 121.322 297.467 120.958 297.831L120.102 298.686C119.533 299.256 118.761 299.575 117.956 299.575C117.15 299.575 116.378 299.256 115.809 298.686C115.24 298.117 114.92 297.345 114.92 296.54C114.92 295.734 115.24 294.962 115.809 294.393L117.553 292.649H112.92L112.157 301.037L118.157 307.037C118.362 307.242 118.639 307.357 118.928 307.357C119.218 307.357 119.495 307.242 119.7 307.037C119.904 306.833 120.019 306.555 120.019 306.266C120.019 306.013 119.931 305.769 119.772 305.575L119.7 305.495L119.213 305.008C118.833 304.629 118.833 304.013 119.213 303.633C119.593 303.253 120.209 303.253 120.589 303.633L122.534 305.578C122.635 305.68 122.755 305.76 122.888 305.815C123.02 305.87 123.162 305.898 123.305 305.898C123.448 305.898 123.59 305.87 123.723 305.815C123.855 305.76 123.975 305.68 124.077 305.578C124.178 305.477 124.258 305.357 124.313 305.225C124.368 305.092 124.396 304.95 124.396 304.807C124.396 304.664 124.368 304.522 124.313 304.39C124.272 304.29 124.216 304.198 124.148 304.115L124.077 304.036L122.131 302.091C121.751 301.711 121.751 301.095 122.131 300.715C122.511 300.335 123.127 300.335 123.507 300.715L125.938 303.147C126.143 303.351 126.42 303.466 126.71 303.466C126.999 303.466 127.276 303.351 127.481 303.147C127.685 302.942 127.8 302.665 127.8 302.375ZM129.745 302.375C129.745 303.181 129.426 303.953 128.856 304.522C128.287 305.092 127.515 305.411 126.71 305.411C126.567 305.411 126.425 305.401 126.286 305.381C126.247 305.582 126.189 305.779 126.11 305.969C125.958 306.337 125.734 306.672 125.452 306.954C125.17 307.236 124.835 307.459 124.467 307.612C124.099 307.765 123.704 307.843 123.305 307.843C122.907 307.843 122.512 307.765 122.144 307.612C122.004 307.554 121.869 307.486 121.74 307.409C121.589 307.781 121.365 308.123 121.075 308.413C120.506 308.982 119.734 309.302 118.928 309.302C118.123 309.302 117.351 308.982 116.782 308.413L110.459 302.091C110.255 301.886 110.152 301.602 110.178 301.315L111.151 290.616C111.2 290.081 111.673 289.686 112.208 289.735C112.713 289.781 113.093 290.206 113.092 290.704H119.759C120.558 290.214 121.457 289.896 122.399 289.78C123.857 289.6 125.333 289.913 126.594 290.666L126.595 290.666L127.052 290.938L127.057 290.941C127.238 291.05 127.449 291.097 127.658 291.076L127.747 291.062L128.666 290.877L128.659 290.792C128.61 290.257 129.005 289.783 129.54 289.735C130.074 289.686 130.548 290.081 130.596 290.616L131.569 301.315C131.594 301.587 131.502 301.857 131.318 302.059C131.134 302.26 130.873 302.375 130.6 302.375H129.745ZM116.865 296.54C116.865 296.829 116.98 297.106 117.184 297.311C117.389 297.515 117.666 297.63 117.956 297.63C118.245 297.63 118.522 297.515 118.727 297.311L119.583 296.455C120.313 295.726 121.302 295.317 122.333 295.317C123.299 295.317 124.229 295.676 124.942 296.322L125.082 296.455L128.856 300.229C128.921 300.293 128.982 300.361 129.039 300.43H129.535L128.843 292.826L128.127 292.971L128.123 292.971C127.413 293.111 126.676 292.982 126.056 292.609L125.599 292.337L125.598 292.336C124.708 291.804 123.666 291.584 122.637 291.711C121.608 291.838 120.651 292.304 119.917 293.036L117.184 295.768C116.98 295.973 116.865 296.25 116.865 296.54Z" fill="#623F20"/>
<path d="M163.786 289.297V293.319C163.786 295.063 163.599 296.569 163.227 297.835C162.855 299.09 162.318 300.122 161.615 300.93C160.924 301.728 160.099 302.319 159.142 302.702C158.185 303.085 157.121 303.276 155.95 303.276C155.014 303.276 154.142 303.159 153.333 302.925C152.525 302.68 151.796 302.303 151.147 301.792C150.509 301.281 149.956 300.638 149.488 299.861C149.03 299.074 148.679 298.138 148.435 297.053C148.19 295.968 148.067 294.723 148.067 293.319V289.297C148.067 287.553 148.254 286.058 148.626 284.813C149.009 283.558 149.546 282.531 150.238 281.734C150.94 280.936 151.77 280.351 152.727 279.978C153.685 279.595 154.748 279.404 155.919 279.404C156.855 279.404 157.722 279.526 158.52 279.771C159.328 280.005 160.057 280.372 160.706 280.872C161.355 281.372 161.908 282.015 162.365 282.803C162.823 283.579 163.174 284.51 163.419 285.595C163.663 286.67 163.786 287.904 163.786 289.297ZM159.174 293.925V288.675C159.174 287.835 159.126 287.101 159.03 286.473C158.945 285.845 158.812 285.313 158.631 284.877C158.45 284.43 158.227 284.069 157.961 283.792C157.695 283.515 157.392 283.313 157.052 283.186C156.711 283.058 156.333 282.994 155.919 282.994C155.397 282.994 154.935 283.095 154.53 283.297C154.137 283.5 153.802 283.824 153.525 284.271C153.248 284.707 153.036 285.292 152.887 286.026C152.748 286.75 152.679 287.633 152.679 288.675V293.925C152.679 294.766 152.722 295.505 152.807 296.143C152.903 296.781 153.041 297.329 153.222 297.787C153.413 298.234 153.637 298.601 153.892 298.888C154.158 299.164 154.461 299.367 154.802 299.494C155.153 299.622 155.536 299.686 155.95 299.686C156.461 299.686 156.913 299.585 157.307 299.383C157.711 299.17 158.052 298.84 158.328 298.393C158.615 297.936 158.828 297.34 158.966 296.606C159.105 295.872 159.174 294.978 159.174 293.925ZM177.532 279.675V302.957H172.936V284.973L167.415 286.728V283.106L177.037 279.675H177.532ZM200.406 299.367V302.957H184.512V299.893L192.028 291.835C192.783 290.994 193.379 290.255 193.815 289.617C194.252 288.968 194.565 288.388 194.757 287.877C194.959 287.356 195.06 286.861 195.06 286.393C195.06 285.691 194.943 285.09 194.709 284.59C194.475 284.079 194.129 283.686 193.672 283.409C193.225 283.132 192.672 282.994 192.012 282.994C191.31 282.994 190.704 283.164 190.193 283.505C189.693 283.845 189.31 284.319 189.044 284.925C188.789 285.531 188.661 286.218 188.661 286.984H184.049C184.049 285.601 184.379 284.335 185.039 283.186C185.698 282.026 186.629 281.106 187.831 280.425C189.033 279.734 190.459 279.388 192.108 279.388C193.736 279.388 195.108 279.654 196.225 280.186C197.353 280.707 198.204 281.462 198.778 282.452C199.363 283.43 199.656 284.601 199.656 285.962C199.656 286.728 199.533 287.478 199.289 288.212C199.044 288.936 198.693 289.659 198.236 290.383C197.789 291.095 197.246 291.819 196.608 292.553C195.97 293.287 195.262 294.047 194.486 294.835L190.448 299.367H200.406Z" fill="#665459"/>
<path d="M152.871 321.986H154.438C154.388 322.583 154.221 323.116 153.936 323.584C153.652 324.048 153.253 324.414 152.739 324.681C152.225 324.949 151.6 325.082 150.865 325.082C150.3 325.082 149.793 324.982 149.341 324.781C148.89 324.577 148.503 324.288 148.181 323.916C147.86 323.54 147.613 323.087 147.442 322.556C147.275 322.025 147.191 321.432 147.191 320.776V320.017C147.191 319.361 147.277 318.767 147.448 318.237C147.624 317.706 147.874 317.252 148.2 316.876C148.526 316.496 148.917 316.205 149.373 316.005C149.832 315.804 150.348 315.704 150.921 315.704C151.648 315.704 152.263 315.838 152.764 316.105C153.266 316.373 153.654 316.743 153.93 317.215C154.21 317.687 154.382 318.228 154.444 318.838H152.877C152.835 318.446 152.743 318.109 152.601 317.829C152.463 317.549 152.258 317.336 151.987 317.19C151.715 317.039 151.36 316.964 150.921 316.964C150.562 316.964 150.248 317.031 149.981 317.165C149.713 317.298 149.49 317.495 149.31 317.754C149.13 318.013 148.994 318.333 148.902 318.713C148.815 319.089 148.771 319.52 148.771 320.005V320.776C148.771 321.235 148.81 321.653 148.89 322.029C148.973 322.401 149.099 322.721 149.266 322.989C149.437 323.256 149.655 323.463 149.918 323.609C150.181 323.755 150.497 323.829 150.865 323.829C151.312 323.829 151.673 323.758 151.949 323.615C152.229 323.473 152.44 323.266 152.582 322.995C152.729 322.719 152.825 322.383 152.871 321.986ZM159.307 323.597V320.362C159.307 320.119 159.264 319.91 159.176 319.735C159.088 319.559 158.954 319.424 158.775 319.327C158.599 319.231 158.378 319.183 158.11 319.183C157.864 319.183 157.65 319.225 157.471 319.309C157.291 319.392 157.151 319.505 157.051 319.647C156.95 319.789 156.9 319.95 156.9 320.13H155.396C155.396 319.862 155.46 319.603 155.59 319.353C155.72 319.102 155.908 318.878 156.154 318.682C156.401 318.485 156.695 318.331 157.038 318.218C157.381 318.105 157.765 318.049 158.192 318.049C158.701 318.049 159.153 318.134 159.546 318.306C159.943 318.477 160.254 318.736 160.48 319.083C160.71 319.426 160.825 319.856 160.825 320.374V323.39C160.825 323.699 160.845 323.977 160.887 324.224C160.933 324.466 160.998 324.677 161.082 324.857V324.957H159.533C159.462 324.794 159.406 324.587 159.364 324.336C159.326 324.081 159.307 323.835 159.307 323.597ZM159.527 320.832L159.539 321.766H158.455C158.175 321.766 157.928 321.793 157.715 321.848C157.502 321.898 157.324 321.973 157.182 322.073C157.04 322.174 156.934 322.295 156.863 322.437C156.792 322.579 156.756 322.74 156.756 322.92C156.756 323.099 156.798 323.264 156.881 323.415C156.965 323.561 157.086 323.676 157.245 323.76C157.408 323.843 157.604 323.885 157.834 323.885C158.144 323.885 158.413 323.822 158.643 323.697C158.877 323.567 159.061 323.411 159.195 323.227C159.328 323.039 159.399 322.861 159.408 322.694L159.897 323.365C159.847 323.536 159.761 323.72 159.64 323.916C159.519 324.113 159.36 324.301 159.163 324.481C158.971 324.656 158.739 324.8 158.467 324.913C158.2 325.026 157.891 325.082 157.54 325.082C157.097 325.082 156.702 324.995 156.355 324.819C156.008 324.639 155.736 324.399 155.54 324.098C155.343 323.793 155.245 323.448 155.245 323.064C155.245 322.704 155.312 322.387 155.446 322.111C155.584 321.831 155.784 321.597 156.048 321.409C156.315 321.221 156.641 321.079 157.026 320.982C157.41 320.882 157.849 320.832 158.342 320.832H159.527ZM163.688 319.465V324.957H162.177V318.174H163.619L163.688 319.465ZM165.763 318.13L165.751 319.534C165.659 319.518 165.558 319.505 165.45 319.497C165.345 319.488 165.241 319.484 165.136 319.484C164.877 319.484 164.649 319.522 164.453 319.597C164.256 319.668 164.091 319.773 163.958 319.91C163.828 320.044 163.728 320.207 163.657 320.399C163.586 320.592 163.544 320.807 163.531 321.045L163.187 321.07C163.187 320.644 163.228 320.249 163.312 319.885C163.396 319.522 163.521 319.202 163.688 318.926C163.859 318.65 164.073 318.435 164.327 318.281C164.587 318.126 164.885 318.049 165.224 318.049C165.316 318.049 165.414 318.057 165.519 318.074C165.627 318.09 165.709 318.109 165.763 318.13ZM169.341 325.082C168.84 325.082 168.386 325.001 167.981 324.838C167.58 324.671 167.237 324.439 166.953 324.142C166.673 323.845 166.457 323.496 166.307 323.095C166.157 322.694 166.081 322.261 166.081 321.797V321.547C166.081 321.016 166.159 320.535 166.313 320.105C166.468 319.674 166.683 319.307 166.959 319.001C167.235 318.692 167.561 318.456 167.937 318.293C168.313 318.13 168.721 318.049 169.159 318.049C169.644 318.049 170.068 318.13 170.432 318.293C170.796 318.456 171.097 318.686 171.335 318.983C171.577 319.275 171.757 319.624 171.874 320.03C171.995 320.435 172.056 320.882 172.056 321.371V322.017H166.815V320.932H170.564V320.813C170.555 320.542 170.501 320.287 170.401 320.048C170.305 319.81 170.156 319.618 169.956 319.472C169.755 319.325 169.488 319.252 169.153 319.252C168.902 319.252 168.679 319.307 168.482 319.415C168.29 319.52 168.129 319.672 168 319.873C167.87 320.073 167.77 320.316 167.699 320.6C167.632 320.88 167.598 321.196 167.598 321.547V321.797C167.598 322.094 167.638 322.37 167.718 322.625C167.801 322.876 167.922 323.095 168.081 323.283C168.24 323.471 168.432 323.62 168.658 323.728C168.884 323.833 169.141 323.885 169.429 323.885C169.793 323.885 170.117 323.812 170.401 323.666C170.685 323.519 170.931 323.312 171.14 323.045L171.937 323.816C171.79 324.029 171.6 324.234 171.366 324.43C171.132 324.623 170.846 324.779 170.507 324.901C170.173 325.022 169.784 325.082 169.341 325.082ZM183.124 320.293V323.778C182.994 323.95 182.792 324.138 182.516 324.343C182.244 324.543 181.883 324.717 181.431 324.863C180.98 325.009 180.418 325.082 179.745 325.082C179.172 325.082 178.648 324.986 178.171 324.794C177.695 324.598 177.283 324.311 176.936 323.935C176.594 323.559 176.328 323.101 176.14 322.562C175.952 322.019 175.858 321.4 175.858 320.707V320.073C175.858 319.384 175.944 318.77 176.115 318.23C176.291 317.687 176.541 317.227 176.867 316.851C177.193 316.475 177.586 316.191 178.046 315.999C178.51 315.802 179.034 315.704 179.619 315.704C180.368 315.704 180.986 315.829 181.475 316.08C181.968 316.327 182.349 316.669 182.616 317.108C182.884 317.547 183.053 318.049 183.124 318.613H181.582C181.532 318.295 181.433 318.011 181.287 317.76C181.145 317.509 180.94 317.313 180.673 317.171C180.409 317.025 180.067 316.951 179.645 316.951C179.281 316.951 178.961 317.02 178.685 317.158C178.41 317.296 178.18 317.499 177.996 317.766C177.816 318.034 177.68 318.36 177.588 318.744C177.496 319.129 177.45 319.568 177.45 320.061V320.707C177.45 321.208 177.503 321.653 177.607 322.042C177.716 322.431 177.87 322.759 178.071 323.026C178.276 323.294 178.524 323.496 178.817 323.634C179.11 323.768 179.44 323.835 179.808 323.835C180.167 323.835 180.462 323.806 180.691 323.747C180.921 323.684 181.103 323.611 181.237 323.528C181.375 323.44 181.481 323.356 181.557 323.277V321.465H179.657V320.293H183.124ZM186.1 318.174V324.957H184.583V318.174H186.1ZM184.483 316.394C184.483 316.164 184.558 315.974 184.708 315.823C184.863 315.668 185.076 315.591 185.348 315.591C185.615 315.591 185.826 315.668 185.981 315.823C186.136 315.974 186.213 316.164 186.213 316.394C186.213 316.619 186.136 316.807 185.981 316.958C185.826 317.108 185.615 317.183 185.348 317.183C185.076 317.183 184.863 317.108 184.708 316.958C184.558 316.807 184.483 316.619 184.483 316.394ZM189.728 323.76L191.39 318.174H192.957L190.6 324.957H189.622L189.728 323.76ZM188.456 318.174L190.148 323.785L190.23 324.957H189.252L186.882 318.174H188.456ZM196.56 325.082C196.059 325.082 195.605 325.001 195.2 324.838C194.799 324.671 194.456 324.439 194.172 324.142C193.892 323.845 193.676 323.496 193.526 323.095C193.376 322.694 193.3 322.261 193.3 321.797V321.547C193.3 321.016 193.378 320.535 193.532 320.105C193.687 319.674 193.902 319.307 194.178 319.001C194.454 318.692 194.78 318.456 195.156 318.293C195.532 318.13 195.94 318.049 196.378 318.049C196.863 318.049 197.287 318.13 197.651 318.293C198.015 318.456 198.316 318.686 198.554 318.983C198.796 319.275 198.976 319.624 199.093 320.03C199.214 320.435 199.275 320.882 199.275 321.371V322.017H194.034V320.932H197.783V320.813C197.774 320.542 197.72 320.287 197.62 320.048C197.524 319.81 197.375 319.618 197.175 319.472C196.974 319.325 196.706 319.252 196.372 319.252C196.121 319.252 195.898 319.307 195.701 319.415C195.509 319.52 195.348 319.672 195.219 319.873C195.089 320.073 194.989 320.316 194.918 320.6C194.851 320.88 194.817 321.196 194.817 321.547V321.797C194.817 322.094 194.857 322.37 194.937 322.625C195.02 322.876 195.141 323.095 195.3 323.283C195.459 323.471 195.651 323.62 195.877 323.728C196.103 323.833 196.36 323.885 196.648 323.885C197.012 323.885 197.335 323.812 197.62 323.666C197.904 323.519 198.15 323.312 198.359 323.045L199.156 323.816C199.009 324.029 198.819 324.234 198.585 324.43C198.351 324.623 198.065 324.779 197.726 324.901C197.392 325.022 197.003 325.082 196.56 325.082ZM201.718 319.622V324.957H200.207V318.174H201.63L201.718 319.622ZM201.449 321.315L200.96 321.308C200.964 320.828 201.031 320.387 201.16 319.986C201.294 319.584 201.478 319.24 201.712 318.951C201.95 318.663 202.234 318.441 202.564 318.287C202.895 318.128 203.262 318.049 203.668 318.049C203.994 318.049 204.288 318.095 204.552 318.186C204.819 318.274 205.047 318.418 205.235 318.619C205.427 318.82 205.574 319.081 205.674 319.403C205.774 319.72 205.824 320.111 205.824 320.575V324.957H204.307V320.569C204.307 320.243 204.259 319.986 204.163 319.798C204.071 319.605 203.935 319.47 203.756 319.39C203.58 319.307 203.361 319.265 203.097 319.265C202.838 319.265 202.606 319.319 202.401 319.428C202.197 319.536 202.023 319.685 201.881 319.873C201.743 320.061 201.637 320.278 201.561 320.525C201.486 320.771 201.449 321.035 201.449 321.315Z" fill="#837377"/>
<path d="M278.443 266.288C278.443 255.974 286.804 247.613 297.118 247.613H445.349C455.663 247.613 464.024 255.974 464.024 266.288V332.626C464.024 342.939 455.663 351.3 445.349 351.3H297.118C286.804 351.3 278.443 342.939 278.443 332.626V266.288Z" fill="#FFF7F8"/>
<path d="M301.786 299.457C301.786 290.433 309.102 283.117 318.127 283.117C327.151 283.117 334.467 290.433 334.467 299.457C334.467 308.482 327.151 315.798 318.127 315.798C309.102 315.798 301.786 308.482 301.786 299.457Z" fill="#FFD9E2"/>
<g clip-path="url(#clip0_2274_19393)">
<path d="M319.099 302.375C319.099 301.864 318.999 301.359 318.803 300.886C318.608 300.414 318.321 299.985 317.96 299.624C317.599 299.263 317.17 298.977 316.698 298.781C316.226 298.586 315.72 298.485 315.209 298.485H311.806L311.698 298.488C311.156 298.513 310.637 298.718 310.224 299.074C309.784 299.453 309.494 299.977 309.407 300.551C309.319 301.125 309.44 301.712 309.748 302.204C310.056 302.697 310.53 303.063 311.084 303.237H311.084C312.724 303.747 313.837 304.863 314.347 306.505C314.521 307.06 314.888 307.534 315.381 307.842C315.874 308.149 316.461 308.27 317.035 308.182C317.61 308.095 318.134 307.804 318.512 307.363C318.891 306.922 319.099 306.361 319.099 305.78V302.375ZM326.88 303.348C326.88 302.811 326.445 302.375 325.908 302.375C325.371 302.376 324.935 302.811 324.935 303.348C324.935 303.885 325.371 304.321 325.908 304.321C326.445 304.321 326.88 303.885 326.88 303.348ZM324.935 295.567C324.935 295.03 324.5 294.594 323.963 294.594C323.425 294.594 322.99 295.03 322.99 295.567C322.99 296.104 323.425 296.539 323.963 296.539C324.5 296.539 324.935 296.104 324.935 295.567ZM318.127 291.676C318.127 291.139 317.691 290.704 317.154 290.704C316.617 290.704 316.181 291.139 316.181 291.676C316.181 292.213 316.617 292.649 317.154 292.649C317.691 292.649 318.127 292.213 318.127 291.676ZM328.826 303.348C328.826 304.96 327.519 306.266 325.908 306.266C324.296 306.266 322.99 304.959 322.99 303.348C322.99 301.737 324.296 300.43 325.908 300.43C327.519 300.43 328.826 301.736 328.826 303.348ZM321.045 305.78C321.044 306.826 320.669 307.837 319.988 308.631C319.306 309.424 318.363 309.947 317.329 310.105C316.295 310.263 315.238 310.046 314.351 309.492C313.464 308.938 312.804 308.085 312.491 307.087L312.49 307.084C312.17 306.05 311.533 305.413 310.505 305.094L310.502 305.093C309.505 304.781 308.652 304.121 308.098 303.235C307.544 302.348 307.326 301.292 307.484 300.259C307.641 299.225 308.163 298.282 308.955 297.6C309.747 296.917 310.758 296.541 311.803 296.539H315.209C315.975 296.539 316.734 296.69 317.442 296.984C318.15 297.277 318.793 297.707 319.335 298.249C319.877 298.791 320.307 299.434 320.601 300.142C320.894 300.85 321.045 301.609 321.045 302.375V305.78ZM326.88 295.567C326.88 297.178 325.574 298.485 323.963 298.485C322.351 298.485 321.045 297.178 321.045 295.567C321.045 293.955 322.351 292.649 323.963 292.649C325.574 292.649 326.88 293.955 326.88 295.567ZM320.072 291.676C320.072 293.288 318.766 294.594 317.154 294.594C315.543 294.594 314.236 293.288 314.236 291.676C314.236 290.065 315.543 288.758 317.154 288.758C318.766 288.758 320.072 290.065 320.072 291.676Z" fill="#703348"/>
</g>
<path d="M361.039 289.297V293.319C361.039 295.063 360.853 296.569 360.48 297.835C360.108 299.09 359.571 300.122 358.869 300.93C358.177 301.728 357.353 302.319 356.395 302.702C355.438 303.085 354.374 303.276 353.204 303.276C352.267 303.276 351.395 303.159 350.587 302.925C349.778 302.68 349.049 302.303 348.4 301.792C347.762 301.281 347.209 300.638 346.741 299.861C346.283 299.074 345.932 298.138 345.688 297.053C345.443 295.968 345.321 294.723 345.321 293.319V289.297C345.321 287.553 345.507 286.058 345.879 284.813C346.262 283.558 346.799 282.531 347.491 281.734C348.193 280.936 349.023 280.351 349.98 279.978C350.938 279.595 352.002 279.404 353.172 279.404C354.108 279.404 354.975 279.526 355.773 279.771C356.581 280.005 357.31 280.372 357.959 280.872C358.608 281.372 359.161 282.015 359.619 282.803C360.076 283.579 360.427 284.51 360.672 285.595C360.916 286.67 361.039 287.904 361.039 289.297ZM356.427 293.925V288.675C356.427 287.835 356.379 287.101 356.283 286.473C356.198 285.845 356.065 285.313 355.885 284.877C355.704 284.43 355.48 284.069 355.214 283.792C354.948 283.515 354.645 283.313 354.305 283.186C353.964 283.058 353.587 282.994 353.172 282.994C352.65 282.994 352.188 283.095 351.783 283.297C351.39 283.5 351.055 283.824 350.778 284.271C350.502 284.707 350.289 285.292 350.14 286.026C350.002 286.75 349.932 287.633 349.932 288.675V293.925C349.932 294.766 349.975 295.505 350.06 296.143C350.156 296.781 350.294 297.329 350.475 297.787C350.666 298.234 350.89 298.601 351.145 298.888C351.411 299.164 351.714 299.367 352.055 299.494C352.406 299.622 352.789 299.686 353.204 299.686C353.714 299.686 354.166 299.585 354.56 299.383C354.964 299.17 355.305 298.84 355.581 298.393C355.869 297.936 356.081 297.34 356.22 296.606C356.358 295.872 356.427 294.978 356.427 293.925ZM374.785 279.675V302.957H370.189V284.973L364.668 286.728V283.106L374.29 279.675H374.785ZM397.547 279.723V282.196L388.563 302.957H383.712L392.696 283.313H381.127V279.723H397.547Z" fill="#665459"/>
<path d="M350.124 321.986H351.691C351.641 322.583 351.474 323.116 351.19 323.584C350.905 324.048 350.506 324.414 349.992 324.681C349.478 324.949 348.853 325.082 348.118 325.082C347.554 325.082 347.046 324.982 346.594 324.781C346.143 324.577 345.756 324.288 345.435 323.916C345.113 323.54 344.866 323.087 344.695 322.556C344.528 322.025 344.444 321.432 344.444 320.776V320.017C344.444 319.361 344.53 318.767 344.701 318.237C344.877 317.706 345.127 317.252 345.453 316.876C345.779 316.496 346.17 316.205 346.626 316.005C347.085 315.804 347.602 315.704 348.174 315.704C348.901 315.704 349.516 315.838 350.017 316.105C350.519 316.373 350.907 316.743 351.183 317.215C351.463 317.687 351.635 318.228 351.697 318.838H350.13C350.088 318.446 349.996 318.109 349.854 317.829C349.716 317.549 349.512 317.336 349.24 317.19C348.968 317.039 348.613 316.964 348.174 316.964C347.815 316.964 347.501 317.031 347.234 317.165C346.966 317.298 346.743 317.495 346.563 317.754C346.383 318.013 346.248 318.333 346.156 318.713C346.068 319.089 346.024 319.52 346.024 320.005V320.776C346.024 321.235 346.064 321.653 346.143 322.029C346.227 322.401 346.352 322.721 346.519 322.989C346.691 323.256 346.908 323.463 347.171 323.609C347.434 323.755 347.75 323.829 348.118 323.829C348.565 323.829 348.926 323.758 349.202 323.615C349.482 323.473 349.693 323.266 349.835 322.995C349.982 322.719 350.078 322.383 350.124 321.986ZM356.561 323.597V320.362C356.561 320.119 356.517 319.91 356.429 319.735C356.341 319.559 356.208 319.424 356.028 319.327C355.852 319.231 355.631 319.183 355.363 319.183C355.117 319.183 354.904 319.225 354.724 319.309C354.544 319.392 354.404 319.505 354.304 319.647C354.204 319.789 354.153 319.95 354.153 320.13H352.649C352.649 319.862 352.714 319.603 352.843 319.353C352.973 319.102 353.161 318.878 353.407 318.682C353.654 318.485 353.949 318.331 354.291 318.218C354.634 318.105 355.018 318.049 355.445 318.049C355.955 318.049 356.406 318.134 356.799 318.306C357.196 318.477 357.507 318.736 357.733 319.083C357.963 319.426 358.078 319.856 358.078 320.374V323.39C358.078 323.699 358.099 323.977 358.14 324.224C358.186 324.466 358.251 324.677 358.335 324.857V324.957H356.786C356.715 324.794 356.659 324.587 356.617 324.336C356.579 324.081 356.561 323.835 356.561 323.597ZM356.78 320.832L356.793 321.766H355.708C355.428 321.766 355.181 321.793 354.968 321.848C354.755 321.898 354.578 321.973 354.435 322.073C354.293 322.174 354.187 322.295 354.116 322.437C354.045 322.579 354.009 322.74 354.009 322.92C354.009 323.099 354.051 323.264 354.135 323.415C354.218 323.561 354.339 323.676 354.498 323.76C354.661 323.843 354.858 323.885 355.087 323.885C355.397 323.885 355.666 323.822 355.896 323.697C356.13 323.567 356.314 323.411 356.448 323.227C356.582 323.039 356.653 322.861 356.661 322.694L357.15 323.365C357.1 323.536 357.014 323.72 356.893 323.916C356.772 324.113 356.613 324.301 356.416 324.481C356.224 324.656 355.992 324.8 355.721 324.913C355.453 325.026 355.144 325.082 354.793 325.082C354.35 325.082 353.955 324.995 353.608 324.819C353.261 324.639 352.989 324.399 352.793 324.098C352.597 323.793 352.498 323.448 352.498 323.064C352.498 322.704 352.565 322.387 352.699 322.111C352.837 321.831 353.037 321.597 353.301 321.409C353.568 321.221 353.894 321.079 354.279 320.982C354.663 320.882 355.102 320.832 355.595 320.832H356.78ZM360.941 319.465V324.957H359.43V318.174H360.872L360.941 319.465ZM363.016 318.13L363.004 319.534C362.912 319.518 362.811 319.505 362.703 319.497C362.598 319.488 362.494 319.484 362.389 319.484C362.13 319.484 361.902 319.522 361.706 319.597C361.51 319.668 361.345 319.773 361.211 319.91C361.081 320.044 360.981 320.207 360.91 320.399C360.839 320.592 360.797 320.807 360.785 321.045L360.44 321.07C360.44 320.644 360.482 320.249 360.565 319.885C360.649 319.522 360.774 319.202 360.941 318.926C361.113 318.65 361.326 318.435 361.581 318.281C361.84 318.126 362.139 318.049 362.477 318.049C362.569 318.049 362.667 318.057 362.772 318.074C362.88 318.09 362.962 318.109 363.016 318.13ZM366.594 325.082C366.093 325.082 365.639 325.001 365.234 324.838C364.833 324.671 364.49 324.439 364.206 324.142C363.926 323.845 363.711 323.496 363.56 323.095C363.41 322.694 363.335 322.261 363.335 321.797V321.547C363.335 321.016 363.412 320.535 363.566 320.105C363.721 319.674 363.936 319.307 364.212 319.001C364.488 318.692 364.814 318.456 365.19 318.293C365.566 318.13 365.974 318.049 366.413 318.049C366.897 318.049 367.322 318.13 367.685 318.293C368.049 318.456 368.35 318.686 368.588 318.983C368.83 319.275 369.01 319.624 369.127 320.03C369.248 320.435 369.309 320.882 369.309 321.371V322.017H364.068V320.932H367.817V320.813C367.809 320.542 367.754 320.287 367.654 320.048C367.558 319.81 367.409 319.618 367.209 319.472C367.008 319.325 366.741 319.252 366.406 319.252C366.156 319.252 365.932 319.307 365.736 319.415C365.543 319.52 365.382 319.672 365.253 319.873C365.123 320.073 365.023 320.316 364.952 320.6C364.885 320.88 364.852 321.196 364.852 321.547V321.797C364.852 322.094 364.891 322.37 364.971 322.625C365.054 322.876 365.176 323.095 365.334 323.283C365.493 323.471 365.685 323.62 365.911 323.728C366.137 323.833 366.394 323.885 366.682 323.885C367.046 323.885 367.37 323.812 367.654 323.666C367.938 323.519 368.185 323.312 368.394 323.045L369.19 323.816C369.044 324.029 368.853 324.234 368.619 324.43C368.385 324.623 368.099 324.779 367.76 324.901C367.426 325.022 367.037 325.082 366.594 325.082ZM373.368 315.829H376.597C377.291 315.829 377.882 315.934 378.371 316.143C378.86 316.352 379.234 316.661 379.493 317.071C379.756 317.476 379.888 317.978 379.888 318.575C379.888 319.031 379.804 319.432 379.637 319.779C379.47 320.126 379.234 320.418 378.929 320.656C378.624 320.891 378.26 321.072 377.838 321.202L377.362 321.434H374.459L374.447 320.186H376.622C376.998 320.186 377.311 320.119 377.562 319.986C377.813 319.852 378.001 319.67 378.126 319.44C378.256 319.206 378.321 318.943 378.321 318.65C378.321 318.333 378.258 318.057 378.133 317.823C378.012 317.585 377.823 317.403 377.569 317.277C377.314 317.148 376.99 317.083 376.597 317.083H374.942V324.957H373.368V315.829ZM378.578 324.957L376.434 320.857L378.083 320.851L380.258 324.876V324.957H378.578ZM384.062 325.082C383.56 325.082 383.107 325.001 382.701 324.838C382.3 324.671 381.957 324.439 381.673 324.142C381.393 323.845 381.178 323.496 381.028 323.095C380.877 322.694 380.802 322.261 380.802 321.797V321.547C380.802 321.016 380.879 320.535 381.034 320.105C381.188 319.674 381.404 319.307 381.68 319.001C381.955 318.692 382.281 318.456 382.657 318.293C383.034 318.13 383.441 318.049 383.88 318.049C384.365 318.049 384.789 318.13 385.153 318.293C385.516 318.456 385.817 318.686 386.055 318.983C386.298 319.275 386.477 319.624 386.594 320.03C386.716 320.435 386.776 320.882 386.776 321.371V322.017H381.535V320.932H385.284V320.813C385.276 320.542 385.222 320.287 385.121 320.048C385.025 319.81 384.877 319.618 384.676 319.472C384.475 319.325 384.208 319.252 383.874 319.252C383.623 319.252 383.399 319.307 383.203 319.415C383.011 319.52 382.85 319.672 382.72 319.873C382.591 320.073 382.49 320.316 382.419 320.6C382.352 320.88 382.319 321.196 382.319 321.547V321.797C382.319 322.094 382.359 322.37 382.438 322.625C382.522 322.876 382.643 323.095 382.802 323.283C382.96 323.471 383.153 323.62 383.378 323.728C383.604 323.833 383.861 323.885 384.149 323.885C384.513 323.885 384.837 323.812 385.121 323.666C385.405 323.519 385.652 323.312 385.861 323.045L386.657 323.816C386.511 324.029 386.321 324.234 386.087 324.43C385.853 324.623 385.566 324.779 385.228 324.901C384.893 325.022 384.505 325.082 384.062 325.082ZM390.492 323.879C390.739 323.879 390.96 323.831 391.157 323.735C391.357 323.634 391.518 323.496 391.639 323.321C391.765 323.145 391.834 322.943 391.846 322.713H393.269C393.261 323.152 393.132 323.551 392.881 323.91C392.63 324.27 392.298 324.556 391.884 324.769C391.47 324.978 391.013 325.082 390.511 325.082C389.993 325.082 389.541 324.995 389.157 324.819C388.772 324.639 388.453 324.393 388.198 324.079C387.943 323.766 387.751 323.404 387.621 322.995C387.496 322.585 387.433 322.146 387.433 321.678V321.459C387.433 320.991 387.496 320.552 387.621 320.142C387.751 319.729 387.943 319.365 388.198 319.052C388.453 318.738 388.772 318.494 389.157 318.318C389.541 318.138 389.991 318.049 390.505 318.049C391.048 318.049 391.525 318.157 391.934 318.375C392.344 318.588 392.666 318.887 392.9 319.271C393.138 319.651 393.261 320.094 393.269 320.6H391.846C391.834 320.349 391.771 320.124 391.658 319.923C391.55 319.718 391.395 319.555 391.194 319.434C390.998 319.313 390.762 319.252 390.486 319.252C390.181 319.252 389.928 319.315 389.727 319.44C389.527 319.561 389.37 319.729 389.257 319.942C389.144 320.151 389.063 320.387 389.013 320.65C388.967 320.909 388.944 321.179 388.944 321.459V321.678C388.944 321.958 388.967 322.23 389.013 322.493C389.059 322.757 389.138 322.993 389.251 323.202C389.368 323.406 389.527 323.572 389.727 323.697C389.928 323.818 390.183 323.879 390.492 323.879ZM397.186 325.082C396.685 325.082 396.231 325.001 395.826 324.838C395.425 324.671 395.082 324.439 394.798 324.142C394.518 323.845 394.302 323.496 394.152 323.095C394.001 322.694 393.926 322.261 393.926 321.797V321.547C393.926 321.016 394.004 320.535 394.158 320.105C394.313 319.674 394.528 319.307 394.804 319.001C395.08 318.692 395.406 318.456 395.782 318.293C396.158 318.13 396.565 318.049 397.004 318.049C397.489 318.049 397.913 318.13 398.277 318.293C398.641 318.456 398.941 318.686 399.18 318.983C399.422 319.275 399.602 319.624 399.719 320.03C399.84 320.435 399.901 320.882 399.901 321.371V322.017H394.66V320.932H398.409V320.813C398.4 320.542 398.346 320.287 398.246 320.048C398.149 319.81 398.001 319.618 397.8 319.472C397.6 319.325 397.332 319.252 396.998 319.252C396.747 319.252 396.524 319.307 396.327 319.415C396.135 319.52 395.974 319.672 395.845 319.873C395.715 320.073 395.615 320.316 395.544 320.6C395.477 320.88 395.443 321.196 395.443 321.547V321.797C395.443 322.094 395.483 322.37 395.562 322.625C395.646 322.876 395.767 323.095 395.926 323.283C396.085 323.471 396.277 323.62 396.503 323.728C396.728 323.833 396.985 323.885 397.274 323.885C397.637 323.885 397.961 323.812 398.246 323.666C398.53 323.519 398.776 323.312 398.985 323.045L399.781 323.816C399.635 324.029 399.445 324.234 399.211 324.43C398.977 324.623 398.691 324.779 398.352 324.901C398.018 325.022 397.629 325.082 397.186 325.082ZM402.463 318.174V324.957H400.946V318.174H402.463ZM400.846 316.394C400.846 316.164 400.921 315.974 401.071 315.823C401.226 315.668 401.439 315.591 401.711 315.591C401.978 315.591 402.189 315.668 402.344 315.823C402.499 315.974 402.576 316.164 402.576 316.394C402.576 316.619 402.499 316.807 402.344 316.958C402.189 317.108 401.978 317.183 401.711 317.183C401.439 317.183 401.226 317.108 401.071 316.958C400.921 316.807 400.846 316.619 400.846 316.394ZM406.091 323.76L407.753 318.174H409.32L406.963 324.957H405.985L406.091 323.76ZM404.819 318.174L406.511 323.785L406.593 324.957H405.615L403.245 318.174H404.819ZM412.923 325.082C412.422 325.082 411.968 325.001 411.563 324.838C411.162 324.671 410.819 324.439 410.535 324.142C410.255 323.845 410.039 323.496 409.889 323.095C409.739 322.694 409.663 322.261 409.663 321.797V321.547C409.663 321.016 409.741 320.535 409.895 320.105C410.05 319.674 410.265 319.307 410.541 319.001C410.817 318.692 411.143 318.456 411.519 318.293C411.895 318.13 412.303 318.049 412.741 318.049C413.226 318.049 413.65 318.13 414.014 318.293C414.378 318.456 414.678 318.686 414.917 318.983C415.159 319.275 415.339 319.624 415.456 320.03C415.577 320.435 415.638 320.882 415.638 321.371V322.017H410.397V320.932H414.146V320.813C414.137 320.542 414.083 320.287 413.983 320.048C413.887 319.81 413.738 319.618 413.538 319.472C413.337 319.325 413.069 319.252 412.735 319.252C412.484 319.252 412.261 319.307 412.064 319.415C411.872 319.52 411.711 319.672 411.582 319.873C411.452 320.073 411.352 320.316 411.281 320.6C411.214 320.88 411.18 321.196 411.18 321.547V321.797C411.18 322.094 411.22 322.37 411.299 322.625C411.383 322.876 411.504 323.095 411.663 323.283C411.822 323.471 412.014 323.62 412.24 323.728C412.466 323.833 412.723 323.885 413.011 323.885C413.375 323.885 413.698 323.812 413.983 323.666C414.267 323.519 414.513 323.312 414.722 323.045L415.519 323.816C415.372 324.029 415.182 324.234 414.948 324.43C414.714 324.623 414.428 324.779 414.089 324.901C413.755 325.022 413.366 325.082 412.923 325.082ZM420.72 323.553V315.328H422.237V324.957H420.865L420.72 323.553ZM416.307 321.641V321.509C416.307 320.995 416.368 320.527 416.489 320.105C416.61 319.679 416.786 319.313 417.015 319.008C417.245 318.698 417.525 318.462 417.855 318.299C418.186 318.132 418.558 318.049 418.971 318.049C419.381 318.049 419.74 318.128 420.05 318.287C420.359 318.446 420.622 318.673 420.839 318.97C421.057 319.263 421.23 319.614 421.36 320.023C421.489 320.429 421.581 320.88 421.636 321.377V321.797C421.581 322.282 421.489 322.725 421.36 323.126C421.23 323.528 421.057 323.875 420.839 324.167C420.622 324.46 420.357 324.685 420.043 324.844C419.734 325.003 419.373 325.082 418.959 325.082C418.549 325.082 418.179 324.997 417.849 324.825C417.523 324.654 417.245 324.414 417.015 324.104C416.786 323.795 416.61 323.432 416.489 323.014C416.368 322.592 416.307 322.134 416.307 321.641ZM417.818 321.509V321.641C417.818 321.95 417.845 322.238 417.899 322.506C417.958 322.773 418.048 323.009 418.169 323.214C418.29 323.415 418.447 323.574 418.639 323.691C418.835 323.804 419.07 323.86 419.341 323.86C419.684 323.86 419.966 323.785 420.187 323.634C420.409 323.484 420.582 323.281 420.708 323.026C420.837 322.767 420.925 322.479 420.971 322.161V321.026C420.946 320.78 420.894 320.55 420.814 320.337C420.739 320.124 420.637 319.938 420.507 319.779C420.378 319.616 420.217 319.49 420.024 319.403C419.836 319.311 419.613 319.265 419.354 319.265C419.078 319.265 418.844 319.323 418.652 319.44C418.459 319.557 418.301 319.718 418.175 319.923C418.054 320.128 417.964 320.366 417.906 320.638C417.847 320.909 417.818 321.2 417.818 321.509Z" fill="#837377"/>
<path d="M269.986 272.911C261.023 272.804 251.637 295.399 248.899 313.766C246.434 330.312 250.158 338.013 244.635 341.958C236.368 347.857 224.188 333.368 205.849 337.948C197.246 340.097 186.612 346.613 185.294 356.08C184.515 361.688 187.006 368.243 191.706 372.475C205.98 385.331 231.157 368.176 241.382 379.062C244.816 382.718 242.238 384.939 244.795 410.698C246.742 430.316 248.752 434.24 251.938 436.873C258.141 441.985 270.081 443.247 276.015 438.009C289.19 426.384 266.587 388.189 276.629 381.916C282.677 378.141 292.116 391.215 304.007 387.944C316.886 384.396 326.079 363.484 319.92 353.992C312.388 342.39 285.866 353.985 278.672 342.509C272.676 332.93 288.905 321.263 285.928 299.073C284.274 286.731 276.934 272.986 269.978 272.908L269.986 272.911Z" fill="#15CC19"/>
<path d="M482.814 172.226C490.623 172.226 496.953 165.896 496.953 158.087C496.953 150.278 490.623 143.948 482.814 143.948C475.005 143.948 468.675 150.278 468.675 158.087C468.675 165.896 475.005 172.226 482.814 172.226Z" fill="#D6E513"/>
<path d="M537.881 178.582C549.439 178.582 558.809 169.213 558.809 157.654C558.809 146.096 549.439 136.727 537.881 136.727C526.323 136.727 516.953 146.096 516.953 157.654C516.953 169.213 526.323 178.582 537.881 178.582Z" fill="#D6E513"/>
<defs>
<clipPath id="clip0_2274_19393">
<rect width="23.3436" height="23.3436" fill="white" transform="translate(306.455 287.786)"/>
</clipPath>
</defs>
</svg>
