<?xml version="1.0" encoding="UTF-8"?>
<svg version="1.1" xmlns="http://www.w3.org/2000/svg" width="140" height="141">
<path d="M0 0 C8.17235182 7.98921789 13.70905498 17.09500445 17.7890625 27.7265625 C18.129375 28.59925781 18.4696875 29.47195312 18.8203125 30.37109375 C24.35699305 47.8782827 21.57838885 67.66195466 14.0390625 83.9765625 C10.95171185 89.81686562 7.16763034 94.79852733 2.7890625 99.7265625 C2.23476562 100.36335938 1.68046875 101.00015625 1.109375 101.65625 C-10.18604268 113.81638865 -27.29287889 121.08444358 -43.69921875 122.046875 C-64.23160224 122.77379659 -82.94760616 116.92252802 -98.2109375 102.7265625 C-110.5849205 90.9025343 -118.76686916 74.24753855 -119.44921875 57.07421875 C-119.92525629 34.41097208 -113.68047732 16.71776057 -97.9609375 0.1015625 C-70.46596091 -26.60252644 -27.93343213 -24.39568875 0 0 Z " fill="#8C4A5F" transform="translate(119.2109375,19.2734375)"/>
<path d="M0 0 C3.34878176 2.18027068 5.47989279 4.17399713 7.125 7.8125 C7.61419922 8.86630859 7.61419922 8.86630859 8.11328125 9.94140625 C8.87100351 11.70052356 9.59526525 13.47399013 10.3125 15.25 C12.17945562 19.81250389 14.94016619 23.88502375 17.57421875 28.03515625 C19.20634296 31.42908029 19.57734837 33.28424511 19 37 C16.38412368 41.36189498 13.62117431 42.96242666 8.9375 44.75 C7.89464844 45.15734375 6.85179687 45.5646875 5.77734375 45.984375 C-0.60835322 48.31951032 -6.52498212 49.27387095 -13 46.625 C-16 45 -16 45 -17 43 C-17.55215704 37.83442556 -16.40524862 35.48520033 -13.25 31.4375 C-12.55390625 30.52871094 -11.8578125 29.61992188 -11.140625 28.68359375 C-6.79032258 23.22983871 -6.79032258 23.22983871 -5 21 C-13.36484206 25.18242103 -17.66226576 31.19508543 -22.60546875 38.984375 C-24.82895043 42.19814684 -26.24384201 43.74794734 -30 45 C-32.45536342 45.14675735 -34.91542552 45.22100698 -37.375 45.25 C-38.68210937 45.27578125 -39.98921875 45.3015625 -41.3359375 45.328125 C-45.16442604 44.98527528 -47.0492318 44.42742441 -50 42 C-51.15304767 36.61911088 -50.04619504 33.46749868 -47.3125 28.75 C-42.91684503 22.30423304 -37.28096167 17.41353543 -31.45068359 12.31445312 C-29.61384605 10.65010891 -27.96931507 8.84178018 -26.3125 7 C-19.41166616 0.09916616 -9.41805365 -1.67870943 0 0 Z " fill="#D4E214" transform="translate(83,61)"/>
<path d="M0 0 C1 1 1 1 1.375 3.75 C1.21962923 13.18877423 -4.27993835 22.77166339 -10 30 C-10.47695313 30.61359375 -10.95390625 31.2271875 -11.4453125 31.859375 C-17.07247296 38.25001954 -26.24860111 43.59910072 -34.75 44.31640625 C-38 44 -38 44 -41 42 C-40.51195798 30.77503358 -32.40964147 22.71362676 -25 15 C-24.33871094 14.28714844 -23.67742188 13.57429688 -22.99609375 12.83984375 C-9.24857158 -1.57422495 -9.24857158 -1.57422495 0 0 Z " fill="#D4E114" transform="translate(66,33)"/>
<path d="M0 0 C11.02224537 -0.81646262 19.64539284 4.12221734 28 11 C34.15188596 16.75692052 40.60502188 25.48286103 41.1328125 34.19140625 C41.13023438 34.97386719 41.12765625 35.75632813 41.125 36.5625 C41.12886719 37.74005859 41.12886719 37.74005859 41.1328125 38.94140625 C41 41 41 41 40 43 C34.08917421 43.75457351 31.07972322 42.29128451 26.3125 38.8125 C25.549375 38.214375 24.78625 37.61625 24 37 C23.278125 36.443125 22.55625 35.88625 21.8125 35.3125 C12.94446796 27.96470203 2.16513374 16.34172925 -1 5 C-0.609375 2.22265625 -0.609375 2.22265625 0 0 Z " fill="#D4E114" transform="translate(74,33)"/>
</svg>
