<?xml version="1.0" encoding="UTF-8"?>
<svg version="1.1" xmlns="http://www.w3.org/2000/svg" width="154" height="132">
<path d="M0 0 C6.38735021 5.82564856 8.78954088 13.4981579 11.66162109 21.40087891 C13.75019047 26.91620282 16.3555482 31.59959464 19.7421875 36.41796875 C29.07138126 49.72596867 29.07138126 49.72596867 28.5546875 58.23046875 C27.63855213 63.20377504 25.72629356 65.75383274 21.69921875 68.83984375 C10.21943582 76.50620481 -5.76226041 81.92049339 -19.5703125 79.79296875 C-24.95828453 78.53520872 -30.61585751 76.32633309 -33.6640625 71.48046875 C-35.28554695 67.19974981 -34.22981538 63.20403064 -32.45703125 59.16796875 C-28.57432523 52.20429542 -23.31029605 46.36431032 -18.0546875 40.421875 C-15.41908884 37.51608952 -15.41908884 37.51608952 -13.4453125 34.41796875 C-26.12268716 37.58731241 -33.11886701 48.49889293 -39.4453125 59.04296875 C-39.9403125 59.87570313 -40.4353125 60.7084375 -40.9453125 61.56640625 C-44.31312766 67.07418729 -47.4574536 71.68697505 -53.578125 74.34375 C-64.24688859 76.41474528 -76.4929066 76.68134295 -86.5078125 71.98046875 C-88.86645374 70.07833872 -90.2563793 68.3753514 -90.8515625 65.359375 C-91.28972853 54.24091199 -85.179707 45.46658514 -78.19921875 37.26953125 C-74.35809619 33.29219867 -70.20173971 29.75061094 -65.97070312 26.19702148 C-61.37329251 22.31462188 -57.36399844 18.17568146 -53.41015625 13.6328125 C-42.26607029 1.07079115 -16.22830978 -10.56643282 0 0 Z " fill="#8C4A60" transform="translate(103.4453125,51.58203125)"/>
<path d="M0 0 C8.76573054 3.95084637 16.66666469 8.7651805 24 15 C24.82628906 15.639375 25.65257812 16.27875 26.50390625 16.9375 C38.03440697 26.46504989 46.81669335 43.60437792 48.23828125 58.49609375 C48.37080711 62.74389643 48.07561982 66.19469699 46 70 C44 72 44 72 41 72.4375 C28.21380542 72.01306201 16.69090988 59.09677773 8 51 C7.28199219 50.34773438 6.56398438 49.69546875 5.82421875 49.0234375 C-5.90164418 37.91923823 -22.64656001 19.08325327 -24.375 2.375 C-24 -1 -24 -1 -22.4375 -2.9375 C-15.03616125 -6.16372458 -7.09505866 -2.74127266 0 0 Z " fill="#8C4A60" transform="translate(106,4)"/>
<path d="M0 0 C3.31392159 4.97088238 2.5779689 10.19597543 2 16 C-2.66272879 36.34250977 -14.61611717 55.13787979 -31.8828125 66.9765625 C-41.67414418 72.98429865 -53.22732581 78.41127062 -65 76 C-67.34375 74.40625 -67.34375 74.40625 -69 72 C-69.77906985 66.41333671 -68.23209587 62.31222556 -65.6875 57.4375 C-65.15334473 56.39758911 -65.15334473 56.39758911 -64.60839844 55.33666992 C-60.60686023 47.84361022 -55.55129552 41.39561316 -50 35 C-49.52546387 34.44715332 -49.05092773 33.89430664 -48.56201172 33.32470703 C-37.43289248 20.46833038 -18.44458269 -1.3414242 0 0 Z " fill="#8C4A60" transform="translate(69,0)"/>
</svg>
