<?xml version="1.0" encoding="UTF-8"?>
<svg version="1.1" xmlns="http://www.w3.org/2000/svg" width="154" height="131">
<path d="M0 0 C3.90492965 4.11573562 5.76054597 9.00454416 7.8046875 14.22265625 C11.97719787 24.46215942 17.08652194 34.03833441 23.54296875 43.015625 C26.74299933 48.10863142 27.75941168 52.55563651 26.84375 58.43359375 C25.2825689 63.90251651 21.93876488 66.60441178 17.1875 69.51171875 C3.96531101 76.50122606 -10.83832709 81.77756688 -25.79296875 77.4765625 C-29.69915235 75.93275832 -32.28398569 74.11391421 -34.79296875 70.6640625 C-36.50513083 64.99252562 -35.27071684 60.85885221 -32.79296875 55.6640625 C-31.18982719 53.16134728 -29.37770127 50.8864708 -27.48046875 48.6015625 C-26.9920752 47.99666992 -26.50368164 47.39177734 -26.00048828 46.76855469 C-22.67451413 42.66773578 -19.24391313 38.65989283 -15.79296875 34.6640625 C-15.29796875 33.6740625 -15.29796875 33.6740625 -14.79296875 32.6640625 C-27.9027016 38.11048596 -34.44443904 47.0540491 -41.54443359 58.92431641 C-45.49722084 65.49102216 -49.29647484 70.98982416 -56.79296875 73.6640625 C-60.57254239 74.08409758 -64.30615489 74.08287265 -68.10546875 74.0390625 C-69.09998047 74.05066406 -70.09449219 74.06226562 -71.11914062 74.07421875 C-78.1000606 74.04671677 -85.49309649 73.76683257 -90.8203125 68.7578125 C-92.70335963 64.7043456 -92.52196384 61.02010692 -91.79296875 56.6640625 C-87.15617868 44.01976616 -78.2001478 33.31350618 -67.41796875 25.4140625 C-63.80460546 22.69334057 -61.14067443 19.78789251 -58.35546875 16.2265625 C-48.9391401 4.35025871 -37.5688225 -2.02416634 -22.53515625 -4.0546875 C-14.7649785 -4.85162881 -6.5533446 -4.88288421 0 0 Z " fill="#D6E513" transform="translate(104.79296875,52.3359375)"/>
<path d="M0 0 C19.60240951 4.35304904 37.7300139 17.47132721 48.97265625 33.87890625 C55.42363406 44.38400174 60.18758866 56.48633432 59 69 C57.875 72.5 57.875 72.5 56 75 C52.1118871 76.70697639 49.23780003 75.96426935 45.375 74.625 C29.42680955 67.60303555 15.37415437 52.65020312 5 39 C4.25234375 38.05640625 3.5046875 37.1128125 2.734375 36.140625 C-13.84462617 14.82476636 -13.84462617 14.82476636 -13 3 C-9.68892383 -1.52270025 -5.08549956 -0.60442413 0 0 Z " fill="#D6E513" transform="translate(95,0)"/>
<path d="M0 0 C2.73876092 2.73876092 2.36382947 4.35229905 2.4375 8.1875 C2.16243877 25.00061785 -6.42648058 40.35831053 -17 53 C-17.721875 53.99 -18.44375 54.98 -19.1875 56 C-28.25937938 66.63803445 -43.14203568 74.77867409 -57.0859375 76.21484375 C-61.6100871 76.42507375 -64.39840796 75.72847882 -68 73 C-69 72 -69 72 -69.3125 69.0625 C-68.86934459 50.85619854 -48.5596687 31.8825719 -36.171875 19.921875 C-12.91262497 -1.8782 -12.91262497 -1.8782 0 0 Z " fill="#D6E513" transform="translate(69,0)"/>
</svg>
