<?xml version="1.0" encoding="UTF-8"?>
<svg version="1.1" xmlns="http://www.w3.org/2000/svg" width="133" height="174">
<path d="M0 0 C4.49390446 3.44423335 6.65321075 7.6815684 9 12.6875 C9.68568472 14.11613184 10.3718822 15.5445177 11.05859375 16.97265625 C11.38714355 17.66246582 11.71569336 18.35227539 12.05419922 19.06298828 C13.30734433 21.629445 14.69319485 24.11905715 16.0625 26.625 C17.53193342 29.59375363 17.99941681 30.98425398 18.125 34.375 C15.70977627 40.01052205 10.50336323 41.85382293 5.18359375 44.16796875 C-1.05995557 46.54699559 -7.2513949 47.12889138 -13.5 44.5625 C-16 43 -16 43 -17 42 C-17.60600087 37.7579939 -17.8042305 35.31954172 -15.54296875 31.609375 C-13.75926227 29.34125139 -11.90324281 27.16814812 -10 25 C-8.9883462 23.67548712 -7.98442389 22.34487449 -7 21 C-13.18152465 24.80525024 -16.6319001 28.99616642 -20.1640625 35.31640625 C-22.46050972 38.67312803 -24.60210198 40.74547051 -28 43 C-30.9462552 43.41714306 -33.2188946 43.57498736 -36.125 43.4375 C-36.82753906 43.43169922 -37.53007813 43.42589844 -38.25390625 43.41992188 C-41.90879175 43.3335588 -45.00030763 43.2106914 -48 41 C-49.66221998 36.30667299 -49.1158517 33.56461233 -47.0625 29.0625 C-44.18880133 23.79538656 -40.40407221 20.00616836 -36 16 C-35.195625 15.175 -34.39125 14.35 -33.5625 13.5 C-32.716875 12.675 -31.87125 11.85 -31 11 C-30.33226563 10.34773438 -29.66453125 9.69546875 -28.9765625 9.0234375 C-20.38636355 0.96096409 -12.03486643 -2.18554325 0 0 Z " fill="#8C4A60" transform="translate(84,27)"/>
<path d="M0 0 C3.5625 0.1875 3.5625 0.1875 6.5625 1.1875 C7.2225 0.8575 7.8825 0.5275 8.5625 0.1875 C15.49678064 -0.38088366 15.49678064 -0.38088366 19.375 1.6875 C22.27382068 5.00043792 23.2365224 8.00020231 24.5625 12.1875 C25.160625 11.094375 25.75875 10.00125 26.375 8.875 C29.964072 2.68478871 29.964072 2.68478871 34.375 1.3125 C38.24018381 1.16092416 40.27859035 2.23279188 43.5625 4.1875 C43.5625 3.5275 43.5625 2.8675 43.5625 2.1875 C45.5425 2.1875 47.5225 2.1875 49.5625 2.1875 C51.62557811 6.31365621 50.79160205 11.65264414 50.8125 16.1875 C50.833125 17.30640625 50.85375 18.4253125 50.875 19.578125 C50.88273437 21.17914063 50.88273437 21.17914063 50.890625 22.8125 C50.90464355 24.28589844 50.90464355 24.28589844 50.91894531 25.7890625 C50.80131836 26.58054687 50.68369141 27.37203125 50.5625 28.1875 C46.83256781 30.67412146 45.80069267 29.98216113 41.5625 29.1875 C40.5725 29.5175 39.5825 29.8475 38.5625 30.1875 C29.74657446 30.75626939 29.74657446 30.75626939 25.5625 27.1875 C24.25 24.5 24.25 24.5 23.5625 22.1875 C22.510625 23.363125 22.510625 23.363125 21.4375 24.5625 C17.70796407 27.96772845 14.70584296 29.09431118 9.6875 29.3125 C8.635625 29.250625 8.635625 29.250625 7.5625 29.1875 C7.624375 30.445625 7.68625 31.70375 7.75 33 C7.72771115 35.51863951 7.69752197 36.91745606 6.5625 39.1875 C3.39259169 40.77245415 0.02186747 40.89890218 -3.4375 40.1875 C-5.66174063 38.60090849 -6.34577411 37.73391011 -6.80078125 35.0234375 C-6.69468468 29.88183449 -6.19935661 25.24677825 -4.77734375 20.29296875 C-4.35667017 17.68672667 -4.87219834 15.75846097 -5.4375 13.1875 C-5.55011583 11.29398265 -5.61206126 9.39681914 -5.625 7.5 C-5.63917969 6.54738281 -5.65335938 5.59476562 -5.66796875 4.61328125 C-5.28015128 0.53133808 -3.95152397 0.21553767 0 0 Z M10.5625 11.1875 C10.8925 12.5075 11.2225 13.8275 11.5625 15.1875 C12.5525 14.8575 13.5425 14.5275 14.5625 14.1875 C14.5625 13.1975 14.5625 12.2075 14.5625 11.1875 C13.2425 11.1875 11.9225 11.1875 10.5625 11.1875 Z M32.5625 12.1875 C32.8925 13.8375 33.2225 15.4875 33.5625 17.1875 C34.8825 16.8575 36.2025 16.5275 37.5625 16.1875 C37.2325 14.5375 36.9025 12.8875 36.5625 11.1875 C34.4879644 11.0384288 34.4879644 11.0384288 32.5625 12.1875 Z " fill="#8C4A60" transform="translate(29.4375,81.8125)"/>
<path d="M0 0 C3.32177706 4.98266559 2.11651851 9.80705668 1 15.4375 C0.67331214 16.95977467 0.34227513 18.4811541 0 20 C0.680625 19.175 1.36125 18.35 2.0625 17.5 C5 15 5 15 8.625 14.4375 C12 15 12 15 14.0625 16.6875 C15 19 15 19 14.5 21.5625 C12.72477465 24.44724119 10.99812233 25.50093884 8 27 C10.97 28.65 13.94 30.3 17 32 C17.36180905 39.35678392 17.36180905 39.35678392 15.875 42 C13.01815949 43.52364827 11.18224791 43.51955068 8 43 C5.75 40.6875 5.75 40.6875 4 38 C3.34 37.01 2.68 36.02 2 35 C1.731875 36.11375 1.46375 37.2275 1.1875 38.375 C0 42 0 42 -3 44 C-6 44.4375 -6 44.4375 -9 44 C-10.8125 41.625 -10.8125 41.625 -12 39 C-12.33 38.34 -12.66 37.68 -13 37 C-14.45823212 36.9729957 -15.91660675 36.95360213 -17.375 36.9375 C-18.59316406 36.92009766 -18.59316406 36.92009766 -19.8359375 36.90234375 C-22.04937142 36.85533666 -22.04937142 36.85533666 -24 38 C-29.02628116 38.37934197 -31.92858056 38.02448301 -36 35 C-38.71770858 32.28229142 -38.69746585 30.17802317 -39.02734375 26.44140625 C-38.96804731 21.14708104 -36.79899284 16.80282116 -33.75 12.5625 C-30.37735388 9.41980702 -28.57857756 8.91823969 -24 9 C-21.0625 10.4375 -21.0625 10.4375 -19 12 C-19 11.34 -19 10.68 -19 10 C-17.1875 9.3125 -17.1875 9.3125 -15 9 C-12.9514375 10.53928041 -12.09577803 11.43954405 -11.65942383 13.99291992 C-11.67513428 14.73131104 -11.69084473 15.46970215 -11.70703125 16.23046875 C-11.71669922 17.03291016 -11.72636719 17.83535156 -11.73632812 18.66210938 C-11.76146484 19.49548828 -11.78660156 20.32886719 -11.8125 21.1875 C-11.83280273 22.4549707 -11.83280273 22.4549707 -11.85351562 23.74804688 C-11.88884201 25.83230384 -11.94264861 27.91623277 -12 30 C-10.09956508 26.83019061 -9.84834766 24.94640117 -10.375 21.3125 C-12.0835774 7.35568706 -12.0835774 7.35568706 -9 2 C-5.54970958 -0.30019361 -4.05445642 -0.43132515 0 0 Z M-30 20 C-30 21.32 -30 22.64 -30 24 C-29.01 24.33 -28.02 24.66 -27 25 C-26.34 24.67 -25.68 24.34 -25 24 C-25.33 22.35 -25.66 20.7 -26 19 C-28.0745356 18.8509288 -28.0745356 18.8509288 -30 20 Z " fill="#8C4A60" transform="translate(63,114)"/>
<path d="M0 0 C2.33944736 0.28730055 4.6739143 0.61936779 7 1 C7 1.66 7 2.32 7 3 C7.9590625 2.2575 7.9590625 2.2575 8.9375 1.5 C12.909834 -0.44563298 16.63671353 -0.83343674 21 0 C22.77734375 1.33984375 22.77734375 1.33984375 24 3 C23.92723252 6.42007148 23.36209681 8.44176742 21.5 11.3125 C17.87306259 13.76068275 14.29624913 13.81639961 10 14 C9.95101562 14.98742187 9.90203125 15.97484375 9.8515625 16.9921875 C9.77679688 18.27351563 9.70203125 19.55484375 9.625 20.875 C9.55539063 22.15117187 9.48578125 23.42734375 9.4140625 24.7421875 C9 28 9 28 7 30 C-1.20588235 30.52941176 -1.20588235 30.52941176 -5 28 C-5.5775 28.474375 -6.155 28.94875 -6.75 29.4375 C-10.97723816 32.37308206 -14.91821467 32.26746239 -20 32 C-23.42777187 30.98724922 -25.88421464 29.92179884 -28 27 C-30.35226901 21.23694093 -30.37130609 16.06577731 -29 10 C-26.58879923 5.08829474 -24.17802112 2.79239193 -19 1 C-15.01514819 0.43632745 -11.81748137 0.60903065 -8.125 2.375 C-6 4 -6 4 -4 6 C-3.525625 5.195625 -3.05125 4.39125 -2.5625 3.5625 C-1 1 -1 1 0 0 Z M-15 8 C-15 8.66 -15 9.32 -15 10 C-14.01 9.67 -13.02 9.34 -12 9 C-12.99 8.67 -13.98 8.34 -15 8 Z M-4 11 C-4.598125 11.825 -5.19625 12.65 -5.8125 13.5 C-7.83614956 15.58835929 -8.83972819 15.98086643 -11.78125 16.33203125 C-14.53563439 16.31428393 -17.25442969 16.21637594 -20 16 C-19.67 17.32 -19.34 18.64 -19 20 C-17.15274948 20.69159401 -17.15274948 20.69159401 -15 21 C-14.01 20.34 -13.02 19.68 -12 19 C-5.66666667 18.66666667 -5.66666667 18.66666667 -3 20 C-2.19032562 17.08517222 -1.78154007 15.53886783 -2.9375 12.6875 C-3.288125 12.130625 -3.63875 11.57375 -4 11 Z " fill="#8C4A60" transform="translate(109,119)"/>
<path d="M0 0 C3.4375 0.5 3.4375 0.5 5.375 1.5625 C7.13853667 4.77836099 6.89994359 6.85825676 6.4375 10.5 C5.29858334 13.05201696 4.00679591 15.47704615 2.66796875 17.9296875 C1.13262855 21.13684259 0.54697113 24.1807694 0.08984375 27.6875 C-0.5625 29.5 -0.5625 29.5 -2.3984375 30.76171875 C-5.70365096 31.88930962 -8.21162069 31.29202602 -11.5625 30.5 C-13.5 28.9375 -13.5 28.9375 -14.5625 27.5 C-15.243125 28.325 -15.92375 29.15 -16.625 30 C-19.5625 32.5 -19.5625 32.5 -23.125 33.0625 C-26.5625 32.5 -26.5625 32.5 -28.8125 31.125 C-30.98064752 27.87277871 -31.71228833 24.71510755 -32.703125 20.9609375 C-33.57393165 18.46726391 -34.45899813 17.15168176 -36.25 15.25 C-38.5625 12.5 -38.5625 12.5 -39 9.3125 C-38.5625 6.5 -38.5625 6.5 -36.5625 3.5 C-32.58569797 2.44952399 -30.44309923 2.07884385 -26.6875 3.875 C-24.5625 5.5 -24.5625 5.5 -23.5625 6.5 C-22.881875 5.675 -22.20125 4.85 -21.5 4 C-18.5625 1.5 -18.5625 1.5 -15 0.9375 C-11.12108118 1.57223217 -9.94195087 2.45430289 -7.5625 5.5 C-7.046875 4.675 -6.53125 3.85 -6 3 C-3.5625 0.5 -3.5625 0.5 0 0 Z M-7.5625 9.5 C-7.5625 11.48 -7.5625 13.46 -7.5625 15.5 C-7.2325 15.5 -6.9025 15.5 -6.5625 15.5 C-6.5625 13.52 -6.5625 11.54 -6.5625 9.5 C-6.8925 9.5 -7.2225 9.5 -7.5625 9.5 Z M-23.5625 12.5 C-23.5625 14.15 -23.5625 15.8 -23.5625 17.5 C-23.2325 17.5 -22.9025 17.5 -22.5625 17.5 C-22.5625 15.85 -22.5625 14.2 -22.5625 12.5 C-22.8925 12.5 -23.2225 12.5 -23.5625 12.5 Z " fill="#8C4A60" transform="translate(119.5625,84.5)"/>
<path d="M0 0 C1 1 1 1 1.375 4.8125 C1.20692987 15.41772528 -5.08646246 25.32932459 -12 33 C-14.83234851 35.38872766 -17.735758 37.25828104 -21 39 C-22.7325 39.928125 -22.7325 39.928125 -24.5 40.875 C-28.69705268 42.22405265 -32.62132008 42.68667689 -37 42 C-37.66 41.34 -38.32 40.68 -39 40 C-39 28.78743572 -29.93690949 19.93178758 -22.48632812 12.43408203 C-8.97885305 -0.5985902 -8.97885305 -0.5985902 0 0 Z " fill="#8C4A60" transform="translate(67,0)"/>
<path d="M0 0 C9.8954685 -1.19428068 17.78453231 3.3233985 25.6875 8.89453125 C32.9172893 14.89085988 38.24007464 22.67239559 40 32 C40.42424242 38.36363636 40.42424242 38.36363636 38 42 C33.98815412 42.8806491 31.39339798 41.92873248 28 39.875 C17.02836819 32.00364317 4.35691317 20.07073951 0 7 C-0.03954234 4.66700175 -0.04401732 2.33291811 0 0 Z " fill="#8C4A60" transform="translate(74,0)"/>
<path d="M0 0 C2.9375 0.8125 2.9375 0.8125 4.9375 2.8125 C5.16796875 4.6875 5.16796875 4.6875 5.125 6.8125 C5.11855469 7.51375 5.11210937 8.215 5.10546875 8.9375 C4.9375 10.8125 4.9375 10.8125 3.9375 12.8125 C4.865625 12.585625 5.79375 12.35875 6.75 12.125 C9.9375 11.8125 9.9375 11.8125 11.8125 12.875 C13.37821111 15.57150247 13.14141303 17.75380459 12.9375 20.8125 C10.6275 21.1425 8.3175 21.4725 5.9375 21.8125 C5.57618238 27.83446037 6.10153843 31.38718221 8.9375 36.8125 C8.9375 39.5 8.9375 39.5 7.9375 41.8125 C5.25277313 44.04977239 3.82695662 44.87603262 0.3125 44.625 C-2.0625 43.8125 -2.0625 43.8125 -5.0625 41.8125 C-6.90423673 35.70845828 -5.90384405 29.01255849 -5.0625 22.8125 C-6.01125 22.85375 -6.96 22.895 -7.9375 22.9375 C-11.0625 22.8125 -11.0625 22.8125 -13.0625 20.8125 C-13.33241906 18.12410615 -13.14987357 15.52108064 -13.0625 12.8125 C-10.6875 11.75 -10.6875 11.75 -8.0625 10.8125 C-7.4025 11.1425 -6.7425 11.4725 -6.0625 11.8125 C-6.09730469 11.19761719 -6.13210937 10.58273438 -6.16796875 9.94921875 C-6.19503906 9.14097656 -6.22210937 8.33273438 -6.25 7.5 C-6.28480469 6.69949219 -6.31960937 5.89898437 -6.35546875 5.07421875 C-6.0625 2.8125 -6.0625 2.8125 -4.7421875 1.0078125 C-3.0625 -0.1875 -3.0625 -0.1875 0 0 Z " fill="#8C4A60" transform="translate(13.0625,108.1875)"/>
<path d="M0 0 C0.99 0 1.98 0 3 0 C3.66 1.98 4.32 3.96 5 6 C7.64 5.67 10.28 5.34 13 5 C13 5.99 13 6.98 13 8 C11.10454608 8.48066535 9.20861961 8.95946743 7.3125 9.4375 C5.72888672 9.83775391 5.72888672 9.83775391 4.11328125 10.24609375 C1.41654669 10.89912985 -1.27589916 11.47595287 -4 12 C-4.78375 12.165 -5.5675 12.33 -6.375 12.5 C-9.57009904 13.10859029 -12.77810626 13.55777929 -16 14 C-16.33 14.99 -16.66 15.98 -17 17 C-18.98 17.33 -20.96 17.66 -23 18 C-24.82941851 14.23355012 -25.23162684 12.03077875 -24 8 C-22.16738497 6.16738497 -19.2218651 6.65518436 -16.75 6.5 C-10.69960583 6.11671711 -5.58836689 5.39501438 0 3 C0 2.01 0 1.02 0 0 Z M-1 6 C-0.34 6.66 0.32 7.32 1 8 C1 7.34 1 6.68 1 6 C0.34 6 -0.32 6 -1 6 Z M-8 8 C-7.34 8.66 -6.68 9.32 -6 10 C-6 9.34 -6 8.68 -6 8 C-6.66 8 -7.32 8 -8 8 Z M-15 9 C-15 9.66 -15 10.32 -15 11 C-14.34 11 -13.68 11 -13 11 C-13 10.34 -13 9.68 -13 9 C-13.66 9 -14.32 9 -15 9 Z M-22 10 C-22 10.66 -22 11.32 -22 12 C-21.34 12 -20.68 12 -20 12 C-20 11.34 -20 10.68 -20 10 C-20.66 10 -21.32 10 -22 10 Z " fill="#8C4A60" transform="translate(106,154)"/>
<path d="M0 0 C2.31 0 4.62 0 7 0 C7 0.66 7 1.32 7 2 C11.34492771 3.13896163 15.38620785 2.93100471 19.8125 2.5625 C20.50537109 2.51029297 21.19824219 2.45808594 21.91210938 2.40429688 C23.60854437 2.27560181 25.30434863 2.13863816 27 2 C29 7.75 29 7.75 29 10 C27.1746875 9.9690625 27.1746875 9.9690625 25.3125 9.9375 C22.87465234 9.92896113 20.88943532 10.02487705 18.5 10.5625 C14.78257988 11.21304852 11.71378771 10.68086108 8 10 C7.67 9.34 7.34 8.68 7 8 C6.67 8.66 6.34 9.32 6 10 C4.35 10 2.7 10 1 10 C-1.42857143 3.71428571 -1.42857143 3.71428571 0 0 Z M24 5 C25 7 25 7 25 7 Z " fill="#8C4A60" transform="translate(51,160)"/>
<path d="M0 0 C0.66 0.66 1.32 1.32 2 2 C4.8755685 2.95852283 6.87110089 3 10 3 C10 3.66 10 4.32 10 5 C11.918125 4.938125 11.918125 4.938125 13.875 4.875 C16.0546875 4.8046875 16.0546875 4.8046875 18 5 C18.66 5.66 19.32 6.32 20 7 C19.625 9.625 19.625 9.625 19 12 C15.25553856 12.96286151 12.73773154 12.91164184 9 12 C8.05125 11.855625 7.1025 11.71125 6.125 11.5625 C2.64715412 10.93648774 -0.61684788 10.01494564 -4 9 C-4.82638376 6.10765685 -5 4.11257569 -5 1 C-3 0 -3 0 0 0 Z M-1 4 C0 6 0 6 0 6 Z M11 8 C12 10 12 10 12 10 Z " fill="#8C4A60" transform="translate(29,156)"/>
<path d="M0 0 C1.4540625 0.0309375 1.4540625 0.0309375 2.9375 0.0625 C4.0625 5.8125 4.0625 5.8125 2.9375 8.0625 C0.93795254 8.10504356 -1.06291636 8.10330783 -3.0625 8.0625 C-4.0625 7.0625 -4.0625 7.0625 -4.1875 4.0625 C-4.02164894 0.08207447 -4.02164894 0.08207447 0 0 Z " fill="#8C4A60" transform="translate(78.0625,115.9375)"/>
</svg>
