<?xml version="1.0" encoding="UTF-8"?>
<svg id="Layer_2" data-name="Layer 2" xmlns="http://www.w3.org/2000/svg" viewBox="0 0 388.09 84.92">
  <defs>
    <style>
      .cls-1 {
        fill: #8c4a60;
      }
    </style>
  </defs>
  <g id="text">
    <g>
      <g>
        <g>
          <path class="cls-1" d="M116.7,43.48c-1.84,7.65-6.33,11.11-13.39,11.11-1.99,0-3.53-.37-4.78-1.18-1.47-.96-2.35-1.4-2.65-1.47.81,2.28,1.4,4.56,1.91,7.58.07.88.15,1.47.15,1.84,0,4.93-3.68,7.87-8.68,7.87-2.13,0-3.9-.44-5.15-1.4-2.13-1.54-3.16-4.27-3.16-8.17,0-1.54.66-4.12,1.91-7.8,1.25-3.6,1.84-6.91,1.84-9.93,0-1.1-.52-3.9-1.54-8.31-.51-2.28-.81-4.12-.81-5.37,0-2.94.66-5.15,1.99-6.62,1.18-1.25,2.8-1.91,4.78-1.91,1.77,0,3.16.29,4.12.88.81.66,1.62,1.4,2.43,2.06,3.16-1.4,6.55-2.8,8.61-2.8,4.78,0,8.39,1.84,10.81,5.44,1.99,3.02,3.02,6.69,3.02,11.11,0,2.06-1.18,6.4-1.4,7.06ZM108.09,35.31c0-1.69-.88-2.94-2.94-3.31-1.4-.29-4.27.37-4.27,2.5,0,1.54.37,2.72,1.1,3.53.59.66,1.32,1.03,2.13,1.03.88,0,1.77-.37,2.65-1.03.29-.22.66-.52,1.03-1.03.22-.52.29-1.18.29-1.69Z"/>
          <path class="cls-1" d="M146.12,54.51c-2.35,0-3.09-.29-4.63-2.43-1.84.96-3.16,1.54-3.97,1.91-1.47.66-3.02.96-4.63.96-4.93,0-8.53-1.32-10.89-3.9-2.06-2.28-3.09-5.52-3.09-9.64,0-7.14,4.41-16.48,10.3-20.01.96-.52,3.31-1.03,4.49-1.03,1.62,0,3.16.37,4.56,1.18.96.52,2.43,1.77,4.27,3.6l1.1-2.94c.66-1.1,1.77-1.69,3.46-1.69,2.72,0,4.34,3.38,4.34,7.72,0,2.65-.88,9.05-1.69,15.15,0,1.03.29,2.21.96,3.6.66,1.4.96,2.43.96,3.09,0,2.13-2.21,4.41-5.52,4.41ZM127.95,35.9c0,1.25.37,2.35,1.25,3.02.66.66,1.54.96,2.57.96,2.06,0,4.78-1.25,4.78-4.41,0-2.43-1.77-4.19-4.05-4.19-.96,0-1.91.29-2.72.88-1.25.81-1.84,2.06-1.84,3.75Z"/>
          <path class="cls-1" d="M178.56,49.36c-1.25,3.31-3.9,5-7.94,5s-6.62-1.32-8.09-3.97c-.88-1.54-1.54-4.27-1.99-8.31-.51-4.05-2.43-7.94-5.74-11.7-1.47-1.69-2.21-3.46-2.21-5.37s.88-3.83,2.72-5.37c1.54-1.32,3.02-1.99,4.41-1.99,6.4,0,11.33,3.53,11.33,9.49,0,.81-.15,1.91-.51,3.31-.81,3.24-1.18,4.86-1.18,4.93,0,.37.22.81.59,1.18.22.22.44.37.66.37,1.03,0,1.69-.74,2.06-2.21.22-.81.29-1.69.29-2.65,0-1.18-.15-2.57-.37-4.19,0-.22-.07-.59-.15-.96l.15-1.62v-.29c0-2.06,1.03-3.9,3.16-5.52,1.77-1.4,3.38-2.06,4.86-2.06,6.25,0,10.45,3.6,10.45,9.71,0,.81-.15,1.91-.52,3.31-.81,3.24-1.18,4.86-1.18,4.93,0,.37.22.81.59,1.18.22.22.44.37.66.37,1.03,0,1.69-.74,2.06-2.21.22-.81.29-1.69.29-2.65,0-1.18-.15-2.57-.37-4.19,0-.22-.07-.59-.15-.96,0-5.22,4.27-9.27,8.68-9.27,3.9,0,7.14,3.02,7.14,7.14,0,2.94-.74,5.44-2.21,7.58-3.83,5.44-5.81,8.46-5.89,9.12-.96,5.15-1.47,7.87-1.54,8.09-1.32,3.16-3.97,4.78-8.02,4.78s-6.84-1.47-8.61-4.49c-1.32-2.28-1.99-5.22-1.99-8.9-.51,2.8-.96,5.59-1.47,8.39Z"/>
          <path class="cls-1" d="M237.92,25.38c-.81.29-2.21.44-4.27.44-.96.29-1.69.66-2.06,1.1-.66.81-1.03,1.84-1.03,3.16l-.22,6.11c0,2.87.74,5.22,2.28,6.99,1.47,1.84,2.21,3.38,2.21,4.63,0,2.06-1.03,3.75-3.02,5.08-1.77,1.18-3.9,1.77-6.33,1.77-2.57,0-6.84-3.53-6.84-5.3-.22-.37-.37-.74-.44-.96-.29-.81-.44-1.47-.44-1.99,0-6.47,1.25-11.92,2.35-17.21-.07-.66-.15-1.1-.22-1.4-.22-.96-.52-1.69-.88-2.13-1.1.74-1.77,1.25-2.13,1.47-.66.44-1.47.66-2.57.66-4.05,0-6.25-3.02-6.25-7.36,0-3.31,2.13-6.18,5-6.18.59,0,1.25.22,1.91.59,2.06,1.18,3.24,1.77,3.53,1.84.22-.37.29-.81.29-1.32,0-1.32-.37-2.87-1.03-4.63-.37-.88-.52-1.69-.52-2.5,0-4.12,2.43-8.24,5.3-8.24,4.12,0,7.65,3.38,7.65,6.99,0,1.32-.29,3.02-.81,5-.29,1.1-.44,2.06-.44,2.87,0,.52.37,2.35.59,2.72.59-.59,1.32-1.03,2.13-1.4,1.1-.51,2.21-.74,3.16-.74,1.54,0,2.94.74,4.12,2.28.96,1.25,1.47,2.43,1.47,3.38,0,2.21-.81,3.6-2.5,4.27Z"/>
          <path class="cls-1" d="M267.71,54.51c-2.35,0-3.09-.29-4.63-2.43-1.84.96-3.16,1.54-3.97,1.91-1.47.66-3.02.96-4.63.96-4.93,0-8.53-1.32-10.89-3.9-2.06-2.28-3.09-5.52-3.09-9.64,0-7.14,4.41-16.48,10.3-20.01.96-.52,3.31-1.03,4.49-1.03,1.62,0,3.16.37,4.56,1.18.96.52,2.43,1.77,4.27,3.6l1.1-2.94c.66-1.1,1.77-1.69,3.46-1.69,2.72,0,4.34,3.38,4.34,7.72,0,2.65-.88,9.05-1.69,15.15,0,1.03.29,2.21.96,3.6.66,1.4.96,2.43.96,3.09,0,2.13-2.21,4.41-5.52,4.41ZM249.54,35.9c0,1.25.37,2.35,1.25,3.02.66.66,1.54.96,2.57.96,2.06,0,4.78-1.25,4.78-4.41,0-2.43-1.77-4.19-4.05-4.19-.96,0-1.91.29-2.72.88-1.25.81-1.84,2.06-1.84,3.75Z"/>
          <path class="cls-1" d="M275.21,15.89c.22-2.72.51-5.52.81-8.31.52-2.28,1.4-3.83,2.72-4.71,1.77-1.25,4.86-2.28,6.62-2.28,1.25,0,2.28.44,3.09,1.25,1.18,1.25,1.77,3.16,1.77,5.74,0,5.66-3.24,12.65-3.24,16.92.15.96.22,1.54.22,1.84.07.96.22,2.13,1.03,2.13s1.54-1.1,2.28-3.38c.52-1.4,1.03-2.43,1.54-3.09,1.25-1.54,3.53-2.35,6.69-2.35,1.69,0,3.09.29,4.34.88,1.99.96,3.02,2.5,3.02,4.63,0,1.91-1.54,3.68-4.71,5.22-3.16,1.54-4.71,2.94-4.71,4.05,0,.96,1.1,1.77,3.38,2.43,2.21.66,3.75,1.25,4.63,1.62,3.6,1.69,4.93,3.75,4.93,7.21,0,2.21-.96,4.19-2.8,6.03-1.69,1.62-3.16,2.43-4.49,2.43-2.13,0-4.12-1.4-5.96-4.12-1.54-2.94-2.43-4.63-2.65-5-.59-.81-1.03-1.47-1.4-1.84-1.1-1.25-2.06-1.84-2.94-1.84-.37,0-1.03.96-1.03,1.25.52,1.25,1.03,3.02,1.03,4.85,0,.81-1.69,4.85-2.57,4.85-.37.52-.81.96-1.18,1.18-1.18.81-2.8,1.18-4.78,1.18-2.65,0-4.49-1.18-5.52-3.53-.74-1.69-1.1-4.05-1.1-7.21.52-1.62,1.03-3.31,1.54-5,1.1-3.6,1.62-6.25,1.62-7.94,0-.52,0-.96-.07-1.18l-2.13-13.9Z"/>
          <path class="cls-1" d="M330.15,54.51c-1.4.22-3.16.44-5.44.44h-1.03c-.44-.07-.74-.15-.96-.15-3.24-.52-5.66-1.32-7.21-2.43-3.6-2.65-5.88-8.61-5.88-15.08s1.77-11.25,5.3-14.71c3.31-3.24,7.72-4.85,13.24-4.85,7.36,0,12.65,4.34,12.65,10.89,0,3.83-4.93,7.8-11.77,7.8-2.13,0-3.53-.07-4.34-.29-1.32-.37-2.57-1.1-3.75-2.35-.22.66-.59,1.91-.59,2.72s.29,1.77.81,2.87c1.1,2.13,3.75,3.24,6.11,3.24.37,0,1.54-.66,3.53-2.06,1.99-1.4,3.6-2.06,4.71-2.06,3.83,0,6.03,1.84,6.03,5.88s-6.4,10.15-11.4,10.15ZM330.08,24.64c-.37-.07-.88-.07-1.62-.15-.96,0-2.28,1.18-2.06,2.94.15.37.29.59.44.74.44.52,1.1.74,1.91.74.52,0,.88-.07,1.18-.15.96-.22,1.47-.88,1.69-1.84,0-.15,0-.37.07-.66,0-.81-.51-1.4-1.62-1.62Z"/>
          <path class="cls-1" d="M365.02,33.32c-.74,0-1.62-.15-2.57-.44-.96-.29-1.69-.44-2.06-.44-2.43,0-3.9,2.13-3.9,5.15,0,.07.15,1.47.52,4.19.22,1.54.29,3.09.29,4.71,0,3.02-.81,5.22-2.5,6.62-1.25,1.03-2.87,1.54-4.85,1.54-3.46,0-8.46-3.97-8.46-7.43,0-.74.37-2.57,1.18-5.44.74-2.87,1.1-4.63,1.1-5.3,0-.74-.29-2.5-.96-5.22-.37-1.47-.52-2.57-.52-3.24,0-2.5.59-4.78,1.77-6.92,1.4-2.43,3.09-3.68,5.22-3.68,1.54,0,2.8.44,3.9,1.4.59.51,1.47,1.62,2.72,3.31.51-.22,2.21-1.25,4.93-3.02,1.99-1.25,3.83-1.91,5.66-1.91,5.96,0,8.97,1.99,8.97,6.03s-5.96,10.08-10.45,10.08Z"/>
        </g>
        <path class="cls-1" d="M388.09,8.62c0,3.33-1.7,6.19-5.03,6.19s-6.04-2.87-6.04-6.19,2.72-6.11,6.04-6.11,5.03,2.78,5.03,6.11Z"/>
      </g>
      <g>
        <path class="cls-1" d="M239.87,66.66l2.27.56-1.87,7.62c-.05.21-.06.38-.02.51.04.13.11.23.21.31.1.07.23.13.38.17.11.03.22.04.33.05.11,0,.2.01.26.01l-.06,1.78c-.12,0-.29.01-.51,0-.22,0-.48-.03-.77-.1-.55-.11-1.01-.3-1.38-.57-.37-.27-.62-.6-.77-1.01-.14-.41-.14-.88,0-1.41l1.94-7.92ZM243.19,69.55l-.42,1.7-4.93-1.21.42-1.7,4.93,1.21Z"/>
        <path class="cls-1" d="M244.46,78.61c-.53-.11-.98-.3-1.35-.57s-.64-.61-.8-1.03c-.16-.41-.19-.89-.07-1.43.1-.46.26-.82.49-1.1s.52-.48.84-.61c.33-.13.69-.2,1.08-.22.39-.02.79,0,1.21.04.49.05.89.08,1.19.1.3.02.53,0,.68-.07.15-.06.25-.18.28-.35v-.03c.08-.34.03-.62-.15-.86-.17-.23-.46-.39-.85-.47-.41-.09-.76-.06-1.04.06s-.49.32-.62.58l-2.08-.62c.21-.48.51-.87.91-1.17.39-.3.86-.5,1.4-.59s1.14-.07,1.8.07c.46.1.89.24,1.28.44.4.2.74.44,1.02.73s.48.64.59,1.03c.12.39.12.83.02,1.32l-1.17,5.56-2.17-.46.24-1.14h-.06c-.19.22-.41.41-.67.55-.26.15-.56.24-.9.29-.33.04-.71.02-1.11-.06ZM245.44,77.17c.34.07.65.07.93-.01.29-.08.53-.22.72-.42.19-.2.32-.44.38-.73l.18-.87c-.08.03-.19.05-.32.06-.13.01-.28.02-.44.01s-.32,0-.48-.02c-.16,0-.3-.02-.43-.03-.28-.02-.52,0-.74.04-.22.04-.4.13-.54.25-.14.12-.23.29-.28.5-.07.31,0,.57.19.78.19.21.46.35.81.43Z"/>
        <path class="cls-1" d="M250.41,79.67l1.86-11.07,2.3.39-1.86,11.07-2.3-.39ZM252.89,77.63l.47-2.76.33.06,3.19-2.7,2.64.44-4.27,3.57-.55-.09-1.82,1.48ZM255.6,80.54l-1.84-4.03,1.81-1.37,2.73,5.85-2.7-.45Z"/>
        <path class="cls-1" d="M262.56,81.69c-.86-.11-1.58-.38-2.15-.8s-.99-.98-1.24-1.67c-.25-.69-.32-1.47-.21-2.35.11-.86.37-1.59.78-2.2.42-.61.95-1.05,1.6-1.34.65-.29,1.39-.38,2.21-.27.55.07,1.05.22,1.51.46s.84.55,1.15.95c.31.4.54.87.67,1.43.13.56.15,1.19.06,1.9l-.08.64-7.05-.89.18-1.44,4.87.61c.04-.33,0-.64-.11-.91-.11-.28-.29-.5-.52-.68-.24-.18-.52-.29-.86-.33-.35-.04-.67,0-.96.12-.29.13-.53.32-.72.57-.19.25-.3.54-.35.87l-.17,1.37c-.05.41-.02.78.1,1.1.12.32.31.58.57.78.26.2.59.32.98.37.26.03.5.03.72-.02.22-.05.42-.13.59-.26.17-.13.31-.29.42-.49l2.12.41c-.17.5-.45.92-.84,1.26-.38.34-.85.58-1.41.73-.55.15-1.18.18-1.86.09Z"/>
        <path class="cls-1" d="M275.35,74.3l-.14,1.75-5.06-.39.14-1.75,5.06.39ZM271.6,71.99l2.33.18-.61,7.83c-.02.21,0,.38.06.51.06.12.14.21.26.27s.25.09.41.1c.11,0,.22,0,.33,0,.11-.01.2-.02.26-.03l.23,1.76c-.12.03-.29.06-.5.09-.22.03-.47.04-.78.03-.56-.02-1.05-.13-1.46-.34-.41-.2-.71-.5-.92-.87-.21-.38-.29-.84-.24-1.39l.63-8.13Z"/>
        <path class="cls-1" d="M278.22,78.02l-.21,4.86-2.33-.1.47-11.22,2.27.1-.18,4.29h.1c.21-.48.53-.86.97-1.13.44-.26.97-.38,1.61-.36.58.02,1.09.17,1.52.45.43.27.75.65.97,1.13.22.48.32,1.05.29,1.71l-.23,5.36-2.33-.1.21-4.94c.03-.52-.09-.93-.34-1.23-.25-.3-.62-.46-1.09-.48-.32-.01-.6.04-.85.17s-.45.31-.59.56c-.15.25-.23.56-.25.92Z"/>
        <path class="cls-1" d="M288.67,83.3c-.87,0-1.61-.17-2.23-.53-.62-.35-1.1-.85-1.44-1.5s-.51-1.42-.51-2.3c0-.87.17-1.63.5-2.28.34-.65.81-1.16,1.42-1.53.61-.37,1.33-.55,2.16-.55.56,0,1.07.09,1.55.26.48.18.9.44,1.26.8.36.35.64.8.84,1.33.2.54.3,1.16.3,1.88v.64s-7.11,0-7.11,0v-1.45s4.91,0,4.91,0c0-.34-.07-.63-.22-.89-.15-.26-.35-.46-.61-.61-.26-.15-.56-.22-.9-.22-.35,0-.67.08-.94.24-.27.16-.48.38-.64.65s-.23.58-.23.91v1.38c0,.42.08.78.24,1.08.16.3.38.54.66.7.29.16.62.25,1.01.25.26,0,.5-.04.71-.11.22-.07.4-.18.55-.33.15-.15.27-.33.35-.54l2.16.14c-.11.52-.33.97-.67,1.36-.34.39-.77.69-1.3.9-.53.21-1.14.32-1.84.32Z"/>
        <path class="cls-1" d="M293.63,83.15l-.46-8.41,2.22-.12.08,1.48h.1c.15-.51.42-.91.81-1.22.39-.31.87-.48,1.44-.51.58-.03,1.08.08,1.5.35.42.26.71.64.87,1.12h.09c.15-.5.44-.9.87-1.21.44-.31.96-.49,1.58-.52.78-.04,1.44.17,1.95.64s.8,1.16.85,2.08l.31,5.65-2.33.13-.28-5.19c-.03-.47-.17-.81-.43-1.03-.26-.22-.58-.32-.95-.3-.42.02-.75.18-.97.46-.22.28-.32.64-.3,1.08l.28,5.13-2.26.12-.29-5.24c-.02-.41-.16-.73-.41-.97-.25-.23-.56-.34-.95-.32-.26.01-.49.09-.69.23-.2.14-.35.33-.46.57-.11.24-.15.51-.14.82l.28,5.05-2.33.13Z"/>
        <path class="cls-1" d="M314.35,84.87c-.75.09-1.41.07-1.97-.07-.56-.14-1.02-.36-1.38-.68-.36-.31-.61-.68-.76-1.11l2.11-.55c.09.16.21.3.37.43.16.13.36.22.61.28.24.06.54.07.87.03.5-.06.91-.24,1.2-.52.3-.29.41-.71.34-1.29l-.19-1.53h-.1c-.07.26-.2.5-.38.73-.18.23-.42.43-.72.6-.3.17-.68.28-1.12.34-.63.08-1.22,0-1.77-.23s-1.01-.63-1.39-1.19c-.38-.57-.62-1.31-.74-2.24-.12-.95-.06-1.76.17-2.43s.58-1.2,1.06-1.58c.47-.38,1.02-.61,1.63-.68.47-.06.87-.03,1.2.09s.61.28.84.49c.22.21.4.42.53.63h.09s-.17-1.41-.17-1.41l2.3-.28,1.04,8.44c.09.71-.01,1.33-.3,1.85-.29.52-.73.94-1.31,1.26-.58.32-1.28.52-2.07.62ZM313.76,79.69c.37-.05.68-.18.92-.4.24-.22.4-.51.5-.88.1-.37.11-.8.05-1.29s-.18-.91-.36-1.25c-.18-.34-.42-.6-.7-.77-.29-.17-.62-.23-.99-.18-.38.05-.69.19-.92.43-.24.24-.4.55-.49.92-.09.38-.1.81-.05,1.28.06.48.18.89.36,1.22.18.33.41.58.69.74.28.16.61.21,1,.17Z"/>
        <path class="cls-1" d="M323.16,80.39c-.84.14-1.6.08-2.27-.17s-1.23-.68-1.67-1.27-.73-1.31-.87-2.16c-.14-.86-.1-1.64.12-2.33s.61-1.28,1.16-1.74c.55-.46,1.25-.76,2.09-.9s1.6-.08,2.27.17c.67.26,1.23.68,1.67,1.27.44.59.73,1.31.87,2.17.14.85.1,1.63-.12,2.32s-.61,1.28-1.16,1.74c-.55.46-1.25.76-2.09.9ZM322.87,78.6c.38-.06.68-.23.9-.49.22-.26.36-.59.43-.99s.06-.84-.02-1.33c-.08-.48-.22-.9-.41-1.26-.19-.36-.44-.62-.73-.8-.29-.18-.63-.23-1.01-.17-.39.06-.69.23-.92.49-.22.26-.37.6-.44,1s-.06.84.02,1.33c.08.48.22.9.41,1.26.19.36.44.62.74.8.3.17.64.23,1.03.17Z"/>
        <path class="cls-1" d="M331.96,78.73c-.83.17-1.59.15-2.27-.08-.68-.23-1.25-.63-1.72-1.2-.46-.57-.78-1.28-.96-2.12-.18-.85-.17-1.63.02-2.34.2-.71.56-1.3,1.09-1.79.53-.48,1.21-.81,2.05-.99.83-.18,1.59-.15,2.27.08.68.23,1.25.63,1.72,1.2.46.57.78,1.28.96,2.13.18.84.17,1.62-.03,2.33-.2.71-.56,1.3-1.09,1.79-.53.48-1.21.81-2.05.99ZM331.6,76.96c.38-.08.67-.25.88-.52.21-.27.34-.61.39-1.01s.03-.84-.07-1.32-.26-.89-.46-1.24c-.21-.35-.46-.6-.76-.77-.3-.17-.64-.21-1.02-.13-.38.08-.68.26-.89.53-.21.27-.35.61-.4,1.01-.05.4-.03.84.07,1.32.1.48.26.89.46,1.24.21.35.47.6.77.77.3.16.65.2,1.03.12Z"/>
        <path class="cls-1" d="M340.04,76.85c-.62.16-1.22.14-1.8-.05s-1.1-.57-1.55-1.12c-.45-.55-.79-1.28-1.02-2.19-.24-.94-.28-1.75-.14-2.45.14-.7.43-1.27.85-1.7.42-.44.93-.73,1.53-.88.46-.12.86-.14,1.2-.06.35.08.64.2.89.38.25.18.45.37.6.56l.07-.02-1.04-4.09,2.26-.57,2.76,10.88-2.23.57-.33-1.31-.1.02c-.05.25-.14.52-.28.79-.14.27-.34.52-.61.74-.27.22-.62.39-1.06.5ZM340.3,74.87c.36-.09.65-.27.85-.54.2-.26.33-.59.37-.99.04-.4,0-.84-.12-1.32-.12-.49-.3-.89-.52-1.21-.23-.32-.49-.55-.79-.68-.3-.13-.64-.15-1-.06-.37.09-.66.27-.86.54-.2.27-.33.6-.37.99-.04.39,0,.82.12,1.29.12.47.29.88.52,1.21.22.33.49.56.79.7.3.14.64.16,1.02.07Z"/>
        <path class="cls-1" d="M347.27,74.92c-.35.1-.68.06-1-.12-.32-.18-.53-.44-.63-.79-.1-.34-.06-.67.12-.99.18-.32.44-.52.79-.62.34-.1.67-.06.99.12.32.17.53.43.63.78.07.23.07.46,0,.69-.06.23-.17.42-.33.59s-.35.29-.58.35Z"/>
        <path class="cls-1" d="M351.05,73.8c-.35.11-.68.07-1-.1-.32-.17-.54-.43-.64-.78-.1-.34-.07-.67.1-.99.17-.32.43-.53.78-.64.34-.1.67-.07.99.1.33.17.54.42.65.77.07.23.08.46.02.69-.06.23-.17.42-.32.6-.15.17-.34.29-.57.36Z"/>
        <path class="cls-1" d="M354.81,72.62c-.34.11-.68.08-1-.08-.32-.17-.54-.42-.65-.76-.11-.34-.08-.67.08-1s.42-.54.77-.65c.33-.11.67-.08.99.08.33.16.55.41.66.75.07.23.08.46.03.69-.06.23-.16.43-.31.6s-.34.3-.57.37Z"/>
      </g>
      <g>
        <path class="cls-1" d="M7.6,60.87c-3.57-1.94-1.95-6.19-.34-9.03,1-1.81,2.2-3.6,3.54-5.14,2.31-2.74,5.18-4.52,7.28-6.66,1.38-1.39,2.47-2.91,3.85-4.36,3.26-3.54,7.96-5.88,12.75-6.45,2.46-.34,5.08-.47,7.07.13,4.12,1.1,5.76,5.6,6.97,9.3.67,1.94,1.48,3.71,2.61,5.42,3.41,5.11,8.61,11.02,1.66,15.47-2.25,1.5-5.01,2.61-7.59,3.45-3.32,1.05-6.15,1.69-9.45.96-3.29-.68-6.95-2.72-5.83-6.45,1.09-4.21,7.31-9.96,8.71-12.17.24-.38.64-1.05-.01-1.13-.25-.03-.61.04-1.07.18-.97.31-2.32.96-3.66,1.95-3,2.15-5.24,5.73-7.11,8.91-2.71,4.68-4.26,6.83-9.89,6.92-3.01.03-6.88.04-9.46-1.27l-.04-.02Z"/>
        <path class="cls-1" d="M36.1,8.52c-2.99,2.27,4.03,11.75,5.87,14.23,6.34,8.56,18.02,19.04,22.17,17.33,3.86-1.59,1.64-13.91-6.71-22.23-6.93-6.91-18.49-11.48-21.34-9.32Z"/>
        <path class="cls-1" d="M29.67,8.51c-2.49-2.82-11.42,4.89-13.76,6.91C7.84,22.37-1.75,34.79.27,38.81c1.88,3.74,13.99.61,21.68-8.33,6.38-7.43,10.08-19.29,7.72-21.97Z"/>
      </g>
    </g>
  </g>
</svg>