<?xml version="1.0" encoding="UTF-8"?>
<svg id="Layer_2" data-name="Layer 2" xmlns="http://www.w3.org/2000/svg" viewBox="0 0 338.68 74.02">
  <defs>
    <style>
      .cls-1 {
        fill: #d6e513;
      }
    </style>
  </defs>
  <g id="text">
    <g>
      <g>
        <g>
          <path class="cls-1" d="M101.71,37.89c-1.6,6.67-5.51,9.68-11.67,9.68-1.73,0-3.08-.32-4.17-1.03-1.28-.83-2.05-1.22-2.31-1.28.71,1.99,1.22,3.97,1.67,6.6.06.77.13,1.28.13,1.6,0,4.3-3.21,6.86-7.57,6.86-1.86,0-3.4-.38-4.49-1.22-1.86-1.35-2.76-3.72-2.76-7.12,0-1.35.58-3.59,1.67-6.8,1.09-3.14,1.6-6.03,1.6-8.66,0-.96-.45-3.4-1.35-7.25-.45-1.99-.71-3.59-.71-4.68,0-2.56.58-4.49,1.73-5.77,1.03-1.09,2.44-1.67,4.17-1.67,1.54,0,2.76.26,3.59.77.71.58,1.41,1.22,2.12,1.8,2.76-1.22,5.71-2.44,7.5-2.44,4.17,0,7.31,1.6,9.43,4.74,1.73,2.63,2.63,5.83,2.63,9.68,0,1.8-1.03,5.58-1.22,6.16ZM94.21,30.78c0-1.47-.77-2.56-2.56-2.88-1.22-.26-3.72.32-3.72,2.18,0,1.35.32,2.37.96,3.08.51.58,1.15.9,1.86.9.77,0,1.54-.32,2.31-.9.26-.19.58-.45.9-.9.19-.45.26-1.03.26-1.48Z"/>
          <path class="cls-1" d="M127.35,47.51c-2.05,0-2.69-.26-4.04-2.12-1.6.83-2.76,1.35-3.46,1.67-1.28.58-2.63.83-4.04.83-4.3,0-7.44-1.15-9.49-3.4-1.8-1.99-2.69-4.81-2.69-8.4,0-6.22,3.85-14.36,8.98-17.44.83-.45,2.89-.9,3.91-.9,1.41,0,2.76.32,3.98,1.03.83.45,2.12,1.54,3.72,3.14l.96-2.56c.58-.96,1.54-1.47,3.01-1.47,2.37,0,3.78,2.95,3.78,6.73,0,2.31-.77,7.89-1.48,13.21,0,.9.26,1.92.83,3.14.58,1.22.83,2.12.83,2.69,0,1.86-1.92,3.85-4.81,3.85ZM111.52,31.29c0,1.09.32,2.05,1.09,2.63.58.58,1.35.83,2.24.83,1.8,0,4.17-1.09,4.17-3.85,0-2.12-1.54-3.66-3.53-3.66-.83,0-1.67.26-2.37.77-1.09.71-1.6,1.8-1.6,3.27Z"/>
          <path class="cls-1" d="M155.63,43.02c-1.09,2.88-3.4,4.36-6.92,4.36s-5.77-1.15-7.05-3.46c-.77-1.35-1.35-3.72-1.73-7.25-.45-3.53-2.12-6.92-5-10.19-1.28-1.48-1.92-3.01-1.92-4.68s.77-3.33,2.37-4.68c1.35-1.15,2.63-1.73,3.85-1.73,5.58,0,9.87,3.08,9.87,8.27,0,.71-.13,1.67-.45,2.88-.71,2.82-1.03,4.23-1.03,4.3,0,.32.19.71.51,1.03.19.19.38.32.58.32.9,0,1.47-.64,1.79-1.92.19-.71.26-1.47.26-2.31,0-1.03-.13-2.24-.32-3.66,0-.19-.06-.51-.13-.83l.13-1.41v-.26c0-1.8.9-3.4,2.76-4.81,1.54-1.22,2.95-1.79,4.23-1.79,5.45,0,9.1,3.14,9.1,8.46,0,.71-.13,1.67-.45,2.88-.71,2.82-1.03,4.23-1.03,4.3,0,.32.19.71.51,1.03.19.19.38.32.58.32.9,0,1.47-.64,1.8-1.92.19-.71.26-1.47.26-2.31,0-1.03-.13-2.24-.32-3.66,0-.19-.06-.51-.13-.83,0-4.55,3.72-8.08,7.57-8.08,3.4,0,6.22,2.63,6.22,6.22,0,2.56-.64,4.74-1.92,6.6-3.33,4.75-5.06,7.37-5.13,7.95-.83,4.49-1.28,6.86-1.35,7.05-1.15,2.76-3.46,4.17-6.99,4.17s-5.96-1.28-7.5-3.91c-1.15-1.99-1.73-4.55-1.73-7.76-.45,2.44-.83,4.87-1.28,7.31Z"/>
          <path class="cls-1" d="M207.36,22.12c-.71.26-1.92.38-3.72.38-.83.26-1.47.58-1.8.96-.58.71-.9,1.6-.9,2.76l-.19,5.32c0,2.5.64,4.55,1.99,6.09,1.28,1.6,1.92,2.95,1.92,4.04,0,1.79-.9,3.27-2.63,4.42-1.54,1.03-3.4,1.54-5.51,1.54-2.24,0-5.96-3.08-5.96-4.62-.19-.32-.32-.64-.38-.83-.26-.71-.38-1.28-.38-1.73,0-5.64,1.09-10.39,2.05-15-.06-.58-.13-.96-.19-1.22-.19-.83-.45-1.48-.77-1.86-.96.64-1.54,1.09-1.86,1.28-.58.38-1.28.58-2.24.58-3.53,0-5.45-2.63-5.45-6.41,0-2.89,1.86-5.39,4.36-5.39.51,0,1.09.19,1.67.51,1.8,1.03,2.82,1.54,3.08,1.6.19-.32.26-.71.26-1.15,0-1.15-.32-2.5-.9-4.04-.32-.77-.45-1.47-.45-2.18,0-3.59,2.12-7.18,4.62-7.18,3.59,0,6.67,2.95,6.67,6.09,0,1.15-.26,2.63-.71,4.36-.26.96-.38,1.8-.38,2.5,0,.45.32,2.05.51,2.37.51-.51,1.15-.9,1.86-1.22.96-.45,1.92-.64,2.76-.64,1.35,0,2.56.64,3.59,1.99.83,1.09,1.28,2.12,1.28,2.95,0,1.92-.71,3.14-2.18,3.72Z"/>
          <path class="cls-1" d="M233.33,47.51c-2.05,0-2.69-.26-4.04-2.12-1.6.83-2.76,1.35-3.46,1.67-1.28.58-2.63.83-4.04.83-4.3,0-7.44-1.15-9.49-3.4-1.8-1.99-2.69-4.81-2.69-8.4,0-6.22,3.85-14.36,8.98-17.44.83-.45,2.89-.9,3.91-.9,1.41,0,2.76.32,3.98,1.03.83.45,2.12,1.54,3.72,3.14l.96-2.56c.58-.96,1.54-1.47,3.01-1.47,2.37,0,3.78,2.95,3.78,6.73,0,2.31-.77,7.89-1.48,13.21,0,.9.26,1.92.83,3.14.58,1.22.83,2.12.83,2.69,0,1.86-1.92,3.85-4.81,3.85ZM217.49,31.29c0,1.09.32,2.05,1.09,2.63.58.58,1.35.83,2.24.83,1.8,0,4.17-1.09,4.17-3.85,0-2.12-1.54-3.66-3.53-3.66-.83,0-1.67.26-2.37.77-1.09.71-1.6,1.8-1.6,3.27Z"/>
          <path class="cls-1" d="M239.86,13.85c.19-2.37.45-4.81.71-7.25.45-1.99,1.22-3.33,2.37-4.1,1.54-1.09,4.23-1.99,5.77-1.99,1.09,0,1.99.38,2.69,1.09,1.03,1.09,1.54,2.76,1.54,5,0,4.94-2.82,11.03-2.82,14.75.13.83.19,1.35.19,1.6.06.83.19,1.86.9,1.86s1.35-.96,1.99-2.95c.45-1.22.9-2.12,1.35-2.69,1.09-1.35,3.08-2.05,5.83-2.05,1.47,0,2.69.26,3.78.77,1.73.83,2.63,2.18,2.63,4.04,0,1.67-1.35,3.21-4.1,4.55-2.76,1.35-4.1,2.56-4.1,3.53,0,.83.96,1.54,2.95,2.12,1.92.58,3.27,1.09,4.04,1.41,3.14,1.47,4.3,3.27,4.3,6.28,0,1.92-.83,3.65-2.44,5.26-1.47,1.41-2.76,2.12-3.91,2.12-1.86,0-3.59-1.22-5.19-3.59-1.35-2.57-2.12-4.04-2.31-4.36-.51-.71-.9-1.28-1.22-1.6-.96-1.09-1.79-1.6-2.56-1.6-.32,0-.9.83-.9,1.09.45,1.09.9,2.63.9,4.23,0,.71-1.47,4.23-2.24,4.23-.32.45-.71.83-1.03,1.03-1.03.71-2.44,1.03-4.17,1.03-2.31,0-3.91-1.03-4.81-3.08-.64-1.48-.96-3.53-.96-6.28.45-1.41.9-2.88,1.35-4.36.96-3.14,1.41-5.45,1.41-6.92,0-.45,0-.83-.06-1.03l-1.86-12.12Z"/>
          <path class="cls-1" d="M287.75,47.51c-1.22.19-2.76.38-4.74.38h-.9c-.38-.06-.64-.13-.83-.13-2.82-.45-4.94-1.15-6.28-2.12-3.14-2.31-5.13-7.5-5.13-13.14s1.54-9.81,4.62-12.82c2.89-2.82,6.73-4.23,11.54-4.23,6.41,0,11.03,3.78,11.03,9.49,0,3.33-4.3,6.8-10.26,6.8-1.86,0-3.08-.06-3.78-.26-1.15-.32-2.24-.96-3.27-2.05-.19.58-.51,1.67-.51,2.37s.26,1.54.71,2.5c.96,1.86,3.27,2.82,5.32,2.82.32,0,1.35-.58,3.08-1.79,1.73-1.22,3.14-1.79,4.1-1.79,3.33,0,5.26,1.6,5.26,5.13s-5.58,8.85-9.94,8.85ZM287.69,21.48c-.32-.06-.77-.06-1.41-.13-.83,0-1.99,1.03-1.8,2.56.13.32.26.51.38.64.38.45.96.64,1.67.64.45,0,.77-.06,1.03-.13.83-.19,1.28-.77,1.48-1.6,0-.13,0-.32.06-.58,0-.71-.45-1.22-1.41-1.41Z"/>
          <path class="cls-1" d="M318.14,29.05c-.64,0-1.41-.13-2.24-.38-.83-.26-1.47-.38-1.79-.38-2.12,0-3.4,1.86-3.4,4.49,0,.06.13,1.28.45,3.65.19,1.35.26,2.69.26,4.1,0,2.63-.71,4.55-2.18,5.77-1.09.9-2.5,1.35-4.23,1.35-3.01,0-7.37-3.46-7.37-6.48,0-.64.32-2.24,1.03-4.75.64-2.5.96-4.04.96-4.62,0-.64-.26-2.18-.83-4.55-.32-1.28-.45-2.24-.45-2.82,0-2.18.51-4.17,1.54-6.03,1.22-2.12,2.69-3.21,4.55-3.21,1.35,0,2.44.38,3.4,1.22.51.45,1.28,1.41,2.37,2.89.45-.19,1.92-1.09,4.3-2.63,1.73-1.09,3.33-1.67,4.94-1.67,5.19,0,7.82,1.73,7.82,5.26s-5.19,8.78-9.1,8.78Z"/>
        </g>
        <path class="cls-1" d="M338.68,7.52c0,2.9-1.92,5.08-4.82,5.08s-4.18-2.18-4.18-5.08,1.28-5.91,4.18-5.91,4.82,3.01,4.82,5.91Z"/>
      </g>
      <g>
        <path class="cls-1" d="M208.98,58.08l1.98.48-1.63,6.65c-.04.18-.05.33-.02.44.03.11.09.2.18.27.09.07.2.11.34.15.09.02.19.04.28.04.1,0,.17,0,.22.01l-.05,1.55c-.11,0-.25,0-.44,0-.19,0-.41-.03-.67-.08-.48-.1-.88-.26-1.2-.5-.32-.23-.54-.53-.67-.88-.12-.35-.13-.76,0-1.23l1.69-6.9ZM211.88,60.6l-.36,1.48-4.29-1.05.36-1.48,4.29,1.05Z"/>
        <path class="cls-1" d="M212.98,68.5c-.46-.1-.85-.26-1.17-.5-.32-.24-.56-.53-.7-.89-.14-.36-.16-.78-.06-1.25.08-.4.23-.72.43-.96s.45-.42.74-.53c.29-.11.6-.18.94-.19s.69,0,1.05.04c.43.04.77.07,1.04.09s.46,0,.59-.06.21-.16.25-.31v-.03c.07-.3.02-.54-.13-.75s-.4-.34-.74-.41c-.36-.08-.66-.06-.91.06-.25.11-.43.28-.54.5l-1.81-.54c.19-.42.45-.76.79-1.02.34-.26.75-.43,1.22-.51s.99-.06,1.57.06c.4.08.77.21,1.12.38.35.17.64.38.89.64.24.26.42.56.52.9.1.34.11.73.02,1.15l-1.02,4.84-1.89-.4.21-1h-.06c-.16.19-.36.35-.59.48-.23.13-.49.21-.78.25-.29.04-.61.02-.97-.05ZM213.84,67.24c.29.06.56.06.81-.01s.46-.19.63-.36c.17-.17.28-.38.33-.64l.16-.76c-.07.03-.16.05-.28.06-.11.01-.24.01-.38.01s-.28,0-.42-.01c-.14,0-.26-.02-.38-.02-.24-.01-.46,0-.65.03-.19.04-.35.11-.47.22-.12.11-.2.25-.24.44-.06.27,0,.5.17.68s.4.31.71.37Z"/>
        <path class="cls-1" d="M218.18,69.43l1.63-9.65,2.01.34-1.63,9.65-2.01-.34ZM220.35,67.65l.41-2.41.29.05,2.78-2.36,2.3.39-3.73,3.11-.48-.08-1.58,1.29ZM222.7,70.19l-1.6-3.51,1.58-1.19,2.37,5.1-2.35-.4Z"/>
        <path class="cls-1" d="M228.8,71.2c-.75-.09-1.37-.33-1.87-.7-.5-.37-.86-.86-1.08-1.46-.22-.6-.28-1.28-.18-2.05.09-.75.32-1.39.68-1.92.36-.53.83-.92,1.4-1.17.57-.25,1.21-.33,1.93-.24.48.06.92.19,1.31.4.4.21.73.48,1,.83.27.35.47.76.58,1.25.12.49.13,1.04.06,1.66l-.07.55-6.15-.77.16-1.25,4.25.54c.04-.29,0-.56-.09-.8s-.25-.44-.46-.59c-.21-.16-.46-.25-.75-.29-.31-.04-.59,0-.84.11-.25.11-.46.28-.62.49-.16.22-.26.47-.3.76l-.15,1.19c-.05.36-.02.68.08.96.1.28.27.5.49.68.23.17.51.28.85.32.22.03.43.02.63-.02.19-.04.37-.11.51-.22.15-.11.27-.25.36-.43l1.85.36c-.15.44-.39.8-.73,1.1-.33.3-.74.51-1.23.64s-1.02.15-1.63.08Z"/>
        <path class="cls-1" d="M239.96,64.76l-.12,1.52-4.41-.34.12-1.52,4.41.34ZM236.69,62.75l2.03.16-.53,6.82c-.01.19,0,.33.05.44s.12.19.22.24c.1.05.22.08.35.09.1,0,.19,0,.29,0,.1-.01.17-.02.22-.02l.2,1.53c-.1.02-.25.05-.44.08-.19.03-.41.04-.68.03-.49-.02-.91-.12-1.27-.29-.35-.18-.62-.43-.8-.76-.18-.33-.25-.74-.21-1.21l.55-7.09Z"/>
        <path class="cls-1" d="M242.47,68l-.18,4.24-2.03-.09.41-9.78,1.98.08-.16,3.74h.09c.18-.42.47-.75.85-.98.38-.23.85-.33,1.4-.31.51.02.95.15,1.32.39.37.24.65.57.85.99s.28.92.25,1.49l-.2,4.67-2.03-.09.18-4.31c.02-.45-.08-.81-.3-1.07-.22-.26-.54-.4-.95-.42-.28-.01-.52.04-.74.15-.22.11-.39.27-.52.49-.13.22-.2.49-.22.8Z"/>
        <path class="cls-1" d="M251.57,72.6c-.75,0-1.4-.15-1.95-.46-.54-.31-.96-.74-1.26-1.31-.29-.57-.44-1.24-.44-2.01,0-.75.15-1.42.44-1.99s.71-1.01,1.24-1.33c.53-.32,1.16-.48,1.88-.48.48,0,.94.08,1.35.23s.79.39,1.1.69.56.7.73,1.16c.18.47.26,1.01.26,1.64v.56h-6.2s0-1.26,0-1.26h4.28c0-.3-.06-.56-.19-.78-.13-.23-.3-.4-.53-.53s-.48-.19-.78-.19-.58.07-.82.21c-.24.14-.42.33-.56.57s-.2.5-.2.79v1.2c0,.36.07.68.2.94.14.26.33.47.58.61.25.14.54.21.88.21.23,0,.43-.03.62-.1.19-.06.35-.16.48-.29.13-.13.24-.28.31-.47l1.88.12c-.1.45-.29.85-.58,1.18s-.67.6-1.14.78c-.46.19-1,.28-1.6.28Z"/>
        <path class="cls-1" d="M255.92,72.48l-.4-7.33,1.94-.11.07,1.29h.09c.13-.44.37-.79.71-1.06.34-.27.76-.42,1.26-.44.5-.03.94.07,1.3.3s.62.56.76.98h.08c.13-.43.38-.78.76-1.06.38-.27.84-.43,1.38-.46.68-.04,1.25.15,1.7.56.45.41.7,1.01.74,1.81l.27,4.93-2.03.11-.25-4.53c-.02-.41-.15-.71-.37-.9-.23-.19-.5-.28-.83-.26-.37.02-.65.15-.84.4s-.28.56-.26.94l.24,4.47-1.97.11-.25-4.57c-.02-.36-.14-.64-.35-.84-.22-.2-.49-.29-.83-.28-.23.01-.43.08-.6.2-.17.12-.31.29-.4.5-.09.21-.13.45-.12.72l.24,4.4-2.03.11Z"/>
        <path class="cls-1" d="M274,73.97c-.65.08-1.23.06-1.71-.06s-.89-.32-1.2-.59c-.31-.27-.53-.59-.66-.97l1.84-.48c.08.14.18.26.32.37.14.11.31.19.53.25.21.05.47.06.76.02.44-.05.79-.21,1.05-.46.26-.25.36-.62.3-1.12l-.16-1.33h-.09c-.06.22-.17.43-.33.63s-.36.38-.63.53c-.26.15-.59.25-.97.29-.55.07-1.06,0-1.54-.2-.48-.2-.88-.55-1.21-1.04-.33-.49-.54-1.14-.64-1.95-.1-.83-.05-1.53.15-2.12.2-.59.51-1.04.92-1.38.41-.33.89-.53,1.42-.59.41-.05.76-.02,1.05.08s.54.25.73.43c.19.18.35.37.47.55h.08s-.15-1.23-.15-1.23l2.01-.25.91,7.35c.08.62-.01,1.16-.26,1.61-.25.45-.63.82-1.14,1.1-.51.28-1.11.46-1.81.54ZM273.49,69.46c.33-.04.59-.16.8-.35.21-.19.35-.45.43-.77s.1-.69.05-1.12-.16-.79-.32-1.09c-.16-.3-.36-.52-.61-.67s-.54-.2-.86-.16c-.33.04-.6.17-.81.37-.21.21-.35.48-.42.81-.08.33-.09.7-.04,1.12.05.42.16.78.31,1.07.16.29.36.5.6.64.25.14.54.19.87.15Z"/>
        <path class="cls-1" d="M281.7,70.06c-.73.12-1.39.07-1.98-.15-.58-.22-1.07-.59-1.45-1.1-.38-.51-.64-1.14-.76-1.88-.12-.75-.09-1.43.11-2.04.2-.61.53-1.12,1.01-1.52s1.09-.66,1.82-.79,1.39-.07,1.98.15,1.07.59,1.45,1.1.64,1.14.76,1.89c.12.74.09,1.42-.11,2.03-.2.61-.53,1.11-1.01,1.52-.48.4-1.09.66-1.82.79ZM281.45,68.51c.33-.06.6-.2.79-.42.19-.23.32-.52.38-.86s.05-.73-.02-1.16-.19-.79-.36-1.1c-.17-.31-.38-.54-.64-.7-.25-.15-.55-.2-.88-.15-.34.06-.6.2-.8.43s-.32.52-.38.87-.05.73.02,1.16c.07.42.19.79.36,1.1.17.31.38.54.64.69.26.15.56.2.89.14Z"/>
        <path class="cls-1" d="M289.4,68.61c-.73.15-1.39.13-1.98-.07-.59-.2-1.09-.55-1.5-1.04-.4-.5-.68-1.11-.84-1.85-.16-.74-.15-1.42.02-2.04.17-.62.49-1.14.95-1.56.46-.42,1.06-.71,1.78-.86.73-.15,1.39-.13,1.98.07.59.2,1.09.55,1.5,1.04s.68,1.12.84,1.86c.15.74.15,1.41-.02,2.03-.17.62-.49,1.14-.95,1.56-.46.42-1.06.71-1.78.86ZM289.09,67.06c.33-.07.59-.22.77-.46.18-.24.29-.53.34-.88.04-.35.02-.74-.06-1.15-.09-.42-.22-.78-.41-1.08-.18-.3-.4-.53-.67-.67s-.56-.18-.89-.11c-.33.07-.59.22-.78.46s-.3.53-.35.88c-.05.35-.02.74.06,1.15.09.42.22.78.41,1.08s.41.53.67.67c.27.14.56.18.9.11Z"/>
        <path class="cls-1" d="M296.44,66.97c-.54.14-1.06.12-1.57-.05-.51-.17-.96-.49-1.35-.97-.39-.48-.69-1.12-.89-1.91-.21-.81-.25-1.53-.12-2.13s.37-1.1.74-1.48.81-.64,1.33-.77c.4-.1.75-.12,1.05-.05.3.07.56.18.78.33s.39.32.53.49l.06-.02-.91-3.57,1.97-.5,2.41,9.48-1.94.5-.29-1.14-.08.02c-.04.22-.12.45-.24.69-.12.24-.3.45-.53.64-.23.2-.54.34-.93.44ZM296.67,65.24c.32-.08.57-.24.74-.47s.28-.52.32-.86c.04-.34,0-.73-.1-1.15-.11-.42-.26-.77-.46-1.06s-.43-.48-.69-.59c-.27-.11-.56-.13-.88-.05-.32.08-.58.24-.75.47-.18.23-.28.52-.32.86-.04.34,0,.72.1,1.13.11.41.26.76.45,1.05.2.29.43.49.69.61.27.12.56.14.88.06Z"/>
        <path class="cls-1" d="M302.77,65.27c-.3.09-.59.05-.87-.1s-.46-.38-.55-.69c-.09-.3-.05-.59.1-.86s.38-.46.69-.54c.29-.08.58-.05.86.1.28.15.47.38.55.68.06.2.06.4,0,.6-.06.2-.15.37-.29.51s-.3.25-.5.31Z"/>
        <path class="cls-1" d="M306.05,64.3c-.3.09-.59.06-.87-.08-.28-.15-.47-.38-.56-.68-.09-.3-.06-.59.09-.87.15-.28.38-.46.68-.56.29-.09.58-.06.87.09.28.15.47.37.56.67.06.2.07.4.02.6s-.14.37-.28.52c-.13.15-.3.25-.5.32Z"/>
        <path class="cls-1" d="M309.33,63.26c-.3.1-.59.07-.87-.07-.28-.14-.47-.37-.57-.67-.1-.3-.07-.59.07-.87s.37-.47.67-.57c.29-.09.58-.07.87.07.29.14.48.36.58.66.06.2.07.4.03.6s-.14.37-.27.52c-.13.15-.3.26-.49.32Z"/>
      </g>
      <g>
        <path class="cls-1" d="M6.63,53.06c-3.11-1.69-1.7-5.4-.29-7.87.87-1.58,1.92-3.14,3.09-4.48,2.01-2.38,4.51-3.94,6.34-5.8,1.2-1.21,2.15-2.54,3.35-3.8,2.84-3.09,6.94-5.12,11.12-5.62,2.14-.29,4.43-.41,6.16.11,3.59.96,5.02,4.88,6.07,8.11.58,1.69,1.29,3.23,2.27,4.72,2.97,4.46,7.51,9.6,1.44,13.49-1.96,1.3-4.37,2.28-6.61,3-2.89.92-5.36,1.47-8.24.84-2.87-.6-6.06-2.37-5.08-5.63.95-3.67,6.37-8.69,7.59-10.61.21-.33.56-.91-.01-.99-.21-.02-.53.03-.93.16-.85.27-2.02.84-3.19,1.7-2.61,1.88-4.57,4.99-6.2,7.76-2.36,4.08-3.72,5.95-8.62,6.03-2.62.03-6,.04-8.24-1.11l-.03-.02Z"/>
        <path class="cls-1" d="M31.47,7.43c-2.61,1.98,3.51,10.24,5.11,12.4,5.53,7.46,15.7,16.6,19.33,15.1,3.37-1.39,1.43-12.12-5.84-19.38-6.04-6.03-16.12-10-18.6-8.13Z"/>
        <path class="cls-1" d="M25.86,7.42c-2.17-2.46-9.95,4.26-11.99,6.02C6.84,19.5-1.52,30.33.24,33.83c1.64,3.26,12.19.53,18.89-7.26,5.56-6.47,8.78-16.82,6.73-19.15Z"/>
      </g>
    </g>
  </g>
</svg>