<?xml version="1.0" encoding="UTF-8"?>
<svg version="1.1" xmlns="http://www.w3.org/2000/svg" width="389" height="80">
<path d="M0 0 C3.51916568 5.27874852 2.09297457 11.42809507 0.93359375 17.390625 C0.71896484 18.43476562 0.71896484 18.43476562 0.5 19.5 C0.28537109 20.59054688 0.28537109 20.59054688 0.06640625 21.703125 C-0.28233698 23.47009071 -0.64019723 25.23525309 -1 27 C-0.34 27 0.32 27 1 27 C1.103125 26.236875 1.20625 25.47375 1.3125 24.6875 C2.07223413 21.71763022 2.62549323 20.85575191 5 19 C9.16424275 18.21776656 12.89439057 18.35281399 16.5625 20.5 C17.036875 20.995 17.51125 21.49 18 22 C17.9375 24.6875 17.9375 24.6875 17 28 C15.2620449 29.5415996 13.48339868 30.72229456 11.49609375 31.921875 C11.00238281 32.27765625 10.50867188 32.6334375 10 33 C10 33.66 10 34.32 10 35 C14.455 36.98 14.455 36.98 19 39 C19.14695312 38.14277344 19.29390625 37.28554688 19.4453125 36.40234375 C20.81646264 29.41263011 22.06956915 23.44099085 28 19 C33.24098907 16.42303528 38.26940773 16.43902335 44 17 C47.70633414 18.54430589 50.11479411 20.42803094 52 24 C52.5625 27.4375 52.5625 27.4375 52 31 C49.86168397 33.79169037 49.11625132 34.72491001 46 36 C41.95923225 36.45244118 38.04220152 36.44005304 34 36 C33.67 35.67 33.34 35.34 33 35 C33 36.65 33 38.3 33 40 C35.80764728 40.77426109 35.80764728 40.77426109 39 41 C39.61875 40.525625 40.2375 40.05125 40.875 39.5625 C44.25150196 37.07977797 46.87828605 37.60112446 51 38 C51.66 38.99 52.32 39.98 53 41 C53.9095243 35.5164492 53.9095243 35.5164492 53.375 30.0625 C52.83903759 25.68547366 54.10964709 21.95558429 56 18 C58.80915474 16.59542263 60.88810534 16.75104843 64 17 C66.375 18.5 66.375 18.5 68 20 C68.4846875 19.69964844 68.969375 19.39929688 69.46875 19.08984375 C74.85408799 16.03470008 77.96000248 15.56678025 84 17 C84.99 17.66 85.98 18.32 87 19 C87.51182889 22.32688777 87.72509359 24.79151069 85.9453125 27.7578125 C84.16285206 29.94106287 82.54010466 31.72994767 80 33 C78.45976004 33.06950541 76.91665012 33.08452357 75.375 33.0625 C74.14910156 33.04896484 74.14910156 33.04896484 72.8984375 33.03515625 C72.27195312 33.02355469 71.64546875 33.01195312 71 33 C68.54316985 38.10485331 68.96243214 42.49184604 69.22265625 48.0390625 C69 51 69 51 67.640625 52.84375 C65.34130174 54.46422544 63.82201936 54.86874329 61 55 C56.83601621 53.41768616 54.35673624 51.79696395 52 48 C51.54109375 48.42152344 51.0821875 48.84304687 50.609375 49.27734375 C49.99578125 49.82519531 49.3821875 50.37304688 48.75 50.9375 C48.14671875 51.48277344 47.5434375 52.02804688 46.921875 52.58984375 C42.63455057 55.73562448 37.11532969 55.6111605 32 55 C28.12277817 53.72520645 24.85317075 52.49373026 22.77734375 48.859375 C22.52082031 48.24578125 22.26429688 47.6321875 22 47 C21.566875 47.78375 21.13375 48.5675 20.6875 49.375 C19 52 19 52 16 54 C13.625 54.5 13.625 54.5 11 54 C8.22168239 51.15553197 6.31846914 48.54257705 4.3125 45.125 C3.6628125 44.073125 3.6628125 44.073125 3 43 C2.34 43 1.68 43 1 43 C1.0825 43.886875 1.165 44.77375 1.25 45.6875 C0.93909826 49.80694806 0.01905826 51.21928844 -3 54 C-6.13930378 54.98103243 -8.07898515 55.25583746 -11.25 54.375 C-13.75239577 52.40883189 -14.2698579 51.11969807 -15 48 C-14.88029146 44.27573416 -14.44314883 40.63027013 -13.46484375 37.03125 C-12.01351029 30.68928867 -12.99992217 23.71210638 -13.625 17.3125 C-14.05787412 11.95886561 -14.03655781 7.99882371 -12 3 C-8.31809905 -0.36630944 -4.86442093 -0.55068916 0 0 Z M39 24 C39 25.32 39 26.64 39 28 C39.99 27.67 40.98 27.34 42 27 C41.67 26.01 41.34 25.02 41 24 C40.34 24 39.68 24 39 24 Z " fill="#8C4A60" transform="translate(289,10)"/>
<path d="M0 0 C2.4375 1.9375 2.4375 1.9375 4 5 C4.02602121 8.40357367 3.59776076 11.65383924 3 15 C4.8871875 14.87625 4.8871875 14.87625 6.8125 14.75 C10.70287512 14.75689783 10.70287512 14.75689783 13.0625 16.6875 C14.25203613 19.62168913 14.08835706 21.04588797 13 24 C10.08235 25.9451 8.37462715 26.45276317 5 27 C4.91849256 29.06183633 4.8605806 31.12461349 4.8125 33.1875 C4.77769531 34.33605469 4.74289063 35.48460937 4.70703125 36.66796875 C5.02771699 40.31523454 6.05464748 41.97161482 8 45 C7.875 48.6875 7.875 48.6875 7 52 C3.71999971 54.18666686 1.90385466 54.76576872 -2 55 C-6.21297384 53.23642956 -8.042582 51.06891847 -10 47 C-10.109375 43.87890625 -10.109375 43.87890625 -9.75 40.5625 C-9.64171875 39.47066406 -9.5334375 38.37882812 -9.421875 37.25390625 C-9.01990424 34.15352069 -8.53876538 31.07932279 -8 28 C-8.99 28 -9.98 28 -11 28 C-16.6 27.2 -16.6 27.2 -19 26 C-19.04125 26.804375 -19.0825 27.60875 -19.125 28.4375 C-19.98373931 31.93379574 -20.88105283 33.46049298 -22.9375 36.3125 C-25.20355407 39.49897033 -26.43460203 41.96147277 -27.125 45.8125 C-27.6411432 48.62425154 -28.0407965 50.06690626 -29.5625 52.5625 C-33.30180924 54.76773366 -36.77292414 54.76102435 -41 54 C-44.49890004 51.88608123 -45.70578686 50.88263941 -47 47 C-47.45375 47.969375 -47.9075 48.93875 -48.375 49.9375 C-50 53 -50 53 -52 54 C-56.52610358 54.62245039 -59.91920673 54.65787416 -63.875 52.25 C-66.46151602 48.29415197 -67.14204883 44.71891666 -68.10546875 40.1328125 C-69.04836624 36.83061255 -70.35550059 34.53578187 -72.25 31.6875 C-74.44086297 28.29765729 -74.99214642 27.24738792 -75.125 23.0625 C-74 20 -74 20 -72.4375 18.0625 C-68.89190789 16.51698549 -65.74786607 16.28919781 -62 17 C-57.51382686 19.16297634 -57.51382686 19.16297634 -56 22 C-55.50174288 26.37830192 -55.65321972 30.6138717 -56 35 C-55.81229728 23.34536737 -55.81229728 23.34536737 -53 18.6875 C-48.86875239 16.36367322 -45.62658917 16.02113755 -41 17 C-37.9375 18.6875 -37.9375 18.6875 -36 22 C-35.59828682 26.36598796 -35.71204218 30.62944021 -36 35 C-35.13126024 32.0383872 -35.04256145 30.34029749 -35.25 27.125 C-35.27361629 23.97222578 -34.83723571 22.08437823 -33 19.5 C-29.98530096 16.9877508 -29.46294035 16.60638806 -25.8125 16.5 C-22 17 -22 17 -20 19 C-19.38125 17.7934375 -19.38125 17.7934375 -18.75 16.5625 C-17 14 -17 14 -15.0625 13.0625 C-12.52665842 12.98565632 -11.14522154 13.69754407 -9 15 C-9.165 14.484375 -9.33 13.96875 -9.5 13.4375 C-10.33215556 9.38074164 -10.56974883 5.5464611 -9.125 1.625 C-6.63988786 -1.96460642 -3.82507208 -1.07102018 0 0 Z " fill="#8C4A60" transform="translate(227,10)"/>
<path d="M0 0 C1.66666667 0.33333333 3.33333333 0.66666667 5 1 C5.99 0.67 6.98 0.34 8 0 C13.02042893 -0.37188362 15.99733424 -0.13722452 20 3 C22.54854752 5.83981009 24.35262694 8.58188233 26 12 C26.31453125 11.45730469 26.6290625 10.91460937 26.953125 10.35546875 C29.80466519 5.5885868 31.92281364 2.19668359 37.25 0.125 C41.24314429 -0.05650656 44.38571054 1.41258254 48 3 C48.66 2.34 49.32 1.68 50 1 C52.5 0.75 52.5 0.75 55 1 C57 3 57 3 57.21118164 5.35083008 C57.19434326 6.31400146 57.17750488 7.27717285 57.16015625 8.26953125 C57.1437207 9.85024414 57.1437207 9.85024414 57.12695312 11.46289062 C57.10568359 12.56826172 57.08441406 13.67363281 57.0625 14.8125 C57.02792491 16.98560839 56.99781866 19.15879349 56.97265625 21.33203125 C56.95468994 22.29858643 56.93672363 23.2651416 56.91821289 24.26098633 C56.92184151 27.01887068 56.92184151 27.01887068 57.56420898 29.7409668 C58 32 58 32 57 33.8125 C53.98959412 35.59992849 51.42516378 35.24910282 48 35 C47.01 34.505 47.01 34.505 46 34 C45.46375 34.309375 44.9275 34.61875 44.375 34.9375 C39.67161562 37.04164564 35.3466431 36.50816721 30.6875 34.75 C26.9227141 32.29851151 25.4110434 30.23313019 24 26 C23.4225 26.928125 22.845 27.85625 22.25 28.8125 C20.19350136 31.72587307 19.00385617 33.223071 16 35 C13.203125 35.29296875 13.203125 35.29296875 10.25 35.1875 C9.26515625 35.16042969 8.2803125 35.13335937 7.265625 35.10546875 C6.51796875 35.07066406 5.7703125 35.03585938 5 35 C5.05800781 35.66386719 5.11601563 36.32773438 5.17578125 37.01171875 C5.40888203 41.57383395 5.51487244 44.19551181 3 48.125 C-1.14242492 50.71401558 -3.16200259 50.61434888 -8 50 C-11.23613354 48.25746655 -11.82395315 47.52814056 -13 44 C-13.37910957 39.45068512 -12.8010994 36.1085369 -11.4375 31.75 C-9.9889853 26.78849871 -10.00872405 22.93468296 -10.66015625 17.84765625 C-11.03337019 14.72038083 -11.18558755 11.64863229 -11.25 8.5 C-11.27578125 7.5203125 -11.3015625 6.540625 -11.328125 5.53125 C-11 3 -11 3 -9.7265625 1.171875 C-6.7802205 -0.82790464 -3.40882131 -0.30018974 0 0 Z M34 14 C34.33 15.65 34.66 17.3 35 19 C36.83700789 19.77242269 36.83700789 19.77242269 39 20 C40.77190909 18.64555699 40.77190909 18.64555699 42 17 C41.34 15.35 40.68 13.7 40 12 C36.81509993 11.7226499 36.81509993 11.7226499 34 14 Z M9 13 C8.67 14.65 8.34 16.3 8 18 C11.04913228 19.01111093 11.04913228 19.01111093 14 18 C13.67 16.35 13.34 14.7 13 13 C11.68 13 10.36 13 9 13 Z " fill="#8C4A60" transform="translate(94,29)"/>
<path d="M0 0 C1.125 1.6640625 1.125 1.6640625 2 3.625 C2.49306641 4.69041016 2.49306641 4.69041016 2.99609375 5.77734375 C3.32738281 6.51082031 3.65867188 7.24429688 4 8 C4.68039794 9.39930897 5.36771111 10.79528043 6.0625 12.1875 C6.55169922 13.17943359 6.55169922 13.17943359 7.05078125 14.19140625 C8.05552078 16.18233042 8.05552078 16.18233042 9.75 18.625 C11.37686783 21.71604888 11.58602438 23.55710679 11 27 C6.8813846 31.36822846 1.91102815 33.75458258 -4.01171875 34.25390625 C-12.39169847 34.40553435 -12.39169847 34.40553435 -16 32 C-16.65788704 28.34507203 -16.59179603 25.98289602 -14.65234375 22.76171875 C-13.16233096 20.77855752 -11.63075768 18.8685765 -10 17 C-14.0515282 18.3505094 -14.75304793 20.35854793 -17 23.9375 C-20.68172485 29.78781656 -20.68172485 29.78781656 -24 32 C-27.25 32.30078125 -27.25 32.30078125 -31 32.3125 C-32.85625 32.33763672 -32.85625 32.33763672 -34.75 32.36328125 C-38 32 -38 32 -39.94140625 30.6875 C-41 29 -41 29 -40.9375 25.6875 C-39.12473704 18.55729904 -34.19712551 13.8577034 -29.125 8.8125 C-28.52558594 8.19697266 -27.92617188 7.58144531 -27.30859375 6.94726562 C-20.46257421 0.0938209 -9.33738704 -6.04984868 0 0 Z " fill="#8C4A60" transform="translate(46,40)"/>
<path d="M0 0 C0.99 0 1.98 0 3 0 C3.33 -0.33 3.66 -0.66 4 -1 C6.4375 -1.1875 6.4375 -1.1875 9 -1 C11 1 11 1 11.21118164 3.35083008 C11.18592407 4.79558716 11.18592407 4.79558716 11.16015625 6.26953125 C11.1437207 7.85024414 11.1437207 7.85024414 11.12695312 9.46289062 C11.10568359 10.56826172 11.08441406 11.67363281 11.0625 12.8125 C11.02792491 14.98560839 10.99781866 17.15879349 10.97265625 19.33203125 C10.95468994 20.29858643 10.93672363 21.2651416 10.91821289 22.26098633 C10.92184151 25.01887068 10.92184151 25.01887068 11.56420898 27.7409668 C12 30 12 30 11 31.8125 C7.98959412 33.59992849 5.42516378 33.24910282 2 33 C1.34 32.67 0.68 32.34 0 32 C-0.53625 32.309375 -1.0725 32.61875 -1.625 32.9375 C-6.32838438 35.04164564 -10.6533569 34.50816721 -15.3125 32.75 C-19.0772859 30.29851151 -20.5889566 28.23313019 -22 24 C-22.70298764 15.98594089 -20.49440449 8.96102214 -15.625 2.5 C-10.31329419 -2.55876744 -6.71358769 -2.28008638 0 0 Z M-12 12 C-11.67 13.65 -11.34 15.3 -11 17 C-9.16299211 17.77242269 -9.16299211 17.77242269 -7 18 C-5.22809091 16.64555699 -5.22809091 16.64555699 -4 15 C-4.66 13.35 -5.32 11.7 -6 10 C-9.18490007 9.7226499 -9.18490007 9.7226499 -12 12 Z " fill="#8C4A60" transform="translate(262,31)"/>
<path d="M0 0 C0.8917553 7.84744668 -2.28158791 14.89877283 -6.57421875 21.375 C-11.48221082 27.41560563 -17.28011278 31.16002547 -24.875 32.875 C-28 33 -28 33 -31 32 C-31.77981071 26.87552961 -30.89708435 24.33672115 -27.9375 20.0625 C-26.64655557 18.35845335 -25.33420958 16.67038837 -24 15 C-23.44828125 14.28328125 -22.8965625 13.5665625 -22.328125 12.828125 C-16.93465867 6.20186637 -8.92308198 -2.11336152 0 0 Z " fill="#8C4A60" transform="translate(31,18)"/>
<path d="M0 0 C9.4007604 0.14921842 16.06620433 4.03176301 22.875 10.375 C28.28848925 16.18428681 30.59940573 22.1216461 31 30 C30.67 30.99 30.34 31.98 30 33 C26.08102953 33.68156008 24.03808165 33.63092483 20.58984375 31.53515625 C11.86384746 24.72429361 3.49386167 16.2814108 -1 6 C-1.21875 3.265625 -1.21875 3.265625 -1 1 C-0.67 0.67 -0.34 0.34 0 0 Z " fill="#8C4A60" transform="translate(36,17)"/>
<path d="M0 0 C1.9375 1.5625 1.9375 1.5625 3 4 C2.67272727 10.32727273 2.67272727 10.32727273 0 13 C-3.07108055 13.3267107 -5.15050101 13.48138276 -7.875 11.9375 C-9.64273274 8.8930714 -9.36823916 6.4368988 -9 3 C-6.85106865 -0.70093733 -4.00059138 -0.58341958 0 0 Z " fill="#8C4A60" transform="translate(386,12)"/>
</svg>
