<?xml version="1.0" encoding="UTF-8"?>
<svg version="1.1" xmlns="http://www.w3.org/2000/svg" width="389" height="98">
<path d="M0 0 C3.51916568 5.27874852 2.09297457 11.42809507 0.93359375 17.390625 C0.71896484 18.43476562 0.71896484 18.43476562 0.5 19.5 C0.28537109 20.59054688 0.28537109 20.59054688 0.06640625 21.703125 C-0.28233698 23.47009071 -0.64019723 25.23525309 -1 27 C-0.34 27 0.32 27 1 27 C1.103125 26.236875 1.20625 25.47375 1.3125 24.6875 C2.07223413 21.71763022 2.62549323 20.85575191 5 19 C9.16424275 18.21776656 12.89439057 18.35281399 16.5625 20.5 C17.036875 20.995 17.51125 21.49 18 22 C17.9375 24.6875 17.9375 24.6875 17 28 C15.2620449 29.5415996 13.48339868 30.72229456 11.49609375 31.921875 C11.00238281 32.27765625 10.50867188 32.6334375 10 33 C10 33.66 10 34.32 10 35 C14.455 36.98 14.455 36.98 19 39 C19.14695312 38.14277344 19.29390625 37.28554688 19.4453125 36.40234375 C20.81646264 29.41263011 22.06956915 23.44099085 28 19 C33.24098907 16.42303528 38.26940773 16.43902335 44 17 C47.70633414 18.54430589 50.11479411 20.42803094 52 24 C52.5625 27.4375 52.5625 27.4375 52 31 C49.86168397 33.79169037 49.11625132 34.72491001 46 36 C41.95923225 36.45244118 38.04220152 36.44005304 34 36 C33.67 35.67 33.34 35.34 33 35 C33 36.65 33 38.3 33 40 C35.80764728 40.77426109 35.80764728 40.77426109 39 41 C39.61875 40.525625 40.2375 40.05125 40.875 39.5625 C44.25150196 37.07977797 46.87828605 37.60112446 51 38 C51.66 38.99 52.32 39.98 53 41 C53.9095243 35.5164492 53.9095243 35.5164492 53.375 30.0625 C52.83903759 25.68547366 54.10964709 21.95558429 56 18 C58.80915474 16.59542263 60.88810534 16.75104843 64 17 C66.375 18.5 66.375 18.5 68 20 C68.4846875 19.69964844 68.969375 19.39929688 69.46875 19.08984375 C74.85408799 16.03470008 77.96000248 15.56678025 84 17 C84.99 17.66 85.98 18.32 87 19 C87.51182889 22.32688777 87.72509359 24.79151069 85.9453125 27.7578125 C84.16285206 29.94106287 82.54010466 31.72994767 80 33 C78.45976004 33.06950541 76.91665012 33.08452357 75.375 33.0625 C74.14910156 33.04896484 74.14910156 33.04896484 72.8984375 33.03515625 C72.27195312 33.02355469 71.64546875 33.01195312 71 33 C68.54316985 38.10485331 68.96243214 42.49184604 69.22265625 48.0390625 C69 51 69 51 67.640625 52.84375 C65.34130174 54.46422544 63.82201936 54.86874329 61 55 C56.83601621 53.41768616 54.35673624 51.79696395 52 48 C51.54109375 48.42152344 51.0821875 48.84304687 50.609375 49.27734375 C49.99578125 49.82519531 49.3821875 50.37304688 48.75 50.9375 C48.14671875 51.48277344 47.5434375 52.02804688 46.921875 52.58984375 C42.63455057 55.73562448 37.11532969 55.6111605 32 55 C28.12277817 53.72520645 24.85317075 52.49373026 22.77734375 48.859375 C22.52082031 48.24578125 22.26429688 47.6321875 22 47 C21.566875 47.78375 21.13375 48.5675 20.6875 49.375 C19 52 19 52 16 54 C13.625 54.5 13.625 54.5 11 54 C8.22168239 51.15553197 6.31846914 48.54257705 4.3125 45.125 C3.6628125 44.073125 3.6628125 44.073125 3 43 C2.34 43 1.68 43 1 43 C1.0825 43.886875 1.165 44.77375 1.25 45.6875 C0.93909826 49.80694806 0.01905826 51.21928844 -3 54 C-6.13930378 54.98103243 -8.07898515 55.25583746 -11.25 54.375 C-13.75239577 52.40883189 -14.2698579 51.11969807 -15 48 C-14.88029146 44.27573416 -14.44314883 40.63027013 -13.46484375 37.03125 C-12.01351029 30.68928867 -12.99992217 23.71210638 -13.625 17.3125 C-14.05787412 11.95886561 -14.03655781 7.99882371 -12 3 C-8.31809905 -0.36630944 -4.86442093 -0.55068916 0 0 Z M39 24 C39 25.32 39 26.64 39 28 C39.99 27.67 40.98 27.34 42 27 C41.67 26.01 41.34 25.02 41 24 C40.34 24 39.68 24 39 24 Z " fill="#8C4A60" transform="translate(289,10)"/>
<path d="M0 0 C2.4375 1.9375 2.4375 1.9375 4 5 C4.02602121 8.40357367 3.59776076 11.65383924 3 15 C4.8871875 14.87625 4.8871875 14.87625 6.8125 14.75 C10.70287512 14.75689783 10.70287512 14.75689783 13.0625 16.6875 C14.25203613 19.62168913 14.08835706 21.04588797 13 24 C10.08235 25.9451 8.37462715 26.45276317 5 27 C4.91849256 29.06183633 4.8605806 31.12461349 4.8125 33.1875 C4.77769531 34.33605469 4.74289063 35.48460937 4.70703125 36.66796875 C5.02771699 40.31523454 6.05464748 41.97161482 8 45 C7.875 48.6875 7.875 48.6875 7 52 C3.71999971 54.18666686 1.90385466 54.76576872 -2 55 C-6.21297384 53.23642956 -8.042582 51.06891847 -10 47 C-10.109375 43.87890625 -10.109375 43.87890625 -9.75 40.5625 C-9.64171875 39.47066406 -9.5334375 38.37882812 -9.421875 37.25390625 C-9.01990424 34.15352069 -8.53876538 31.07932279 -8 28 C-8.99 28 -9.98 28 -11 28 C-16.6 27.2 -16.6 27.2 -19 26 C-19.04125 26.804375 -19.0825 27.60875 -19.125 28.4375 C-19.98373931 31.93379574 -20.88105283 33.46049298 -22.9375 36.3125 C-25.20355407 39.49897033 -26.43460203 41.96147277 -27.125 45.8125 C-27.6411432 48.62425154 -28.0407965 50.06690626 -29.5625 52.5625 C-33.30180924 54.76773366 -36.77292414 54.76102435 -41 54 C-44.49890004 51.88608123 -45.70578686 50.88263941 -47 47 C-47.45375 47.969375 -47.9075 48.93875 -48.375 49.9375 C-50 53 -50 53 -52 54 C-56.52610358 54.62245039 -59.91920673 54.65787416 -63.875 52.25 C-66.46151602 48.29415197 -67.14204883 44.71891666 -68.10546875 40.1328125 C-69.04836624 36.83061255 -70.35550059 34.53578187 -72.25 31.6875 C-74.44086297 28.29765729 -74.99214642 27.24738792 -75.125 23.0625 C-74 20 -74 20 -72.4375 18.0625 C-68.89190789 16.51698549 -65.74786607 16.28919781 -62 17 C-57.51382686 19.16297634 -57.51382686 19.16297634 -56 22 C-55.50174288 26.37830192 -55.65321972 30.6138717 -56 35 C-55.81229728 23.34536737 -55.81229728 23.34536737 -53 18.6875 C-48.86875239 16.36367322 -45.62658917 16.02113755 -41 17 C-37.9375 18.6875 -37.9375 18.6875 -36 22 C-35.59828682 26.36598796 -35.71204218 30.62944021 -36 35 C-35.13126024 32.0383872 -35.04256145 30.34029749 -35.25 27.125 C-35.27361629 23.97222578 -34.83723571 22.08437823 -33 19.5 C-29.98530096 16.9877508 -29.46294035 16.60638806 -25.8125 16.5 C-22 17 -22 17 -20 19 C-19.38125 17.7934375 -19.38125 17.7934375 -18.75 16.5625 C-17 14 -17 14 -15.0625 13.0625 C-12.52665842 12.98565632 -11.14522154 13.69754407 -9 15 C-9.165 14.484375 -9.33 13.96875 -9.5 13.4375 C-10.33215556 9.38074164 -10.56974883 5.5464611 -9.125 1.625 C-6.63988786 -1.96460642 -3.82507208 -1.07102018 0 0 Z " fill="#8C4A60" transform="translate(227,10)"/>
<path d="M0 0 C1.66666667 0.33333333 3.33333333 0.66666667 5 1 C5.99 0.67 6.98 0.34 8 0 C13.02042893 -0.37188362 15.99733424 -0.13722452 20 3 C23.23093363 6.41555841 24.73999295 9.48497475 26 14 C26.30292969 13.39671875 26.60585937 12.7934375 26.91796875 12.171875 C29.83124468 6.61424091 32.26786334 2.51302837 38.3125 0.0625 C42.25649279 -0.02922076 45.42826164 1.43127124 49 3 C49.66 2.34 50.32 1.68 51 1 C53.5 0.75 53.5 0.75 56 1 C58 3 58 3 58.21118164 5.35083008 C58.19434326 6.31400146 58.17750488 7.27717285 58.16015625 8.26953125 C58.1437207 9.85024414 58.1437207 9.85024414 58.12695312 11.46289062 C58.10568359 12.56826172 58.08441406 13.67363281 58.0625 14.8125 C58.02792491 16.98560839 57.99781866 19.15879349 57.97265625 21.33203125 C57.95468994 22.29858643 57.93672363 23.2651416 57.91821289 24.26098633 C57.92184151 27.01887068 57.92184151 27.01887068 58.56420898 29.7409668 C59 32 59 32 58 33.8125 C54.98959412 35.59992849 52.42516378 35.24910282 49 35 C48.01 34.505 48.01 34.505 47 34 C46.46375 34.309375 45.9275 34.61875 45.375 34.9375 C40.67161562 37.04164564 36.3466431 36.50816721 31.6875 34.75 C27.72846867 32.17202611 25.95948596 29.2204313 24 25 C23.4121875 26.36125 23.4121875 26.36125 22.8125 27.75 C20.77622823 31.40124593 19.68116842 33.00603377 16 35 C12.30807316 35.32284833 8.6953623 35.23298256 5 35 C5.05800781 35.66386719 5.11601563 36.32773438 5.17578125 37.01171875 C5.40888203 41.57383395 5.51487244 44.19551181 3 48.125 C-1.14242492 50.71401558 -3.16200259 50.61434888 -8 50 C-11.23613354 48.25746655 -11.82395315 47.52814056 -13 44 C-13.37910957 39.45068512 -12.8010994 36.1085369 -11.4375 31.75 C-9.9889853 26.78849871 -10.00872405 22.93468296 -10.66015625 17.84765625 C-11.03337019 14.72038083 -11.18558755 11.64863229 -11.25 8.5 C-11.27578125 7.5203125 -11.3015625 6.540625 -11.328125 5.53125 C-11 3 -11 3 -9.7265625 1.171875 C-6.7802205 -0.82790464 -3.40882131 -0.30018974 0 0 Z M35 14 C35.33 15.65 35.66 17.3 36 19 C37.83700789 19.77242269 37.83700789 19.77242269 40 20 C41.77190909 18.64555699 41.77190909 18.64555699 43 17 C42.34 15.35 41.68 13.7 41 12 C37.81509993 11.7226499 37.81509993 11.7226499 35 14 Z M9 13 C8.67 14.65 8.34 16.3 8 18 C11.04913228 19.01111093 11.04913228 19.01111093 14 18 C13.67 16.35 13.34 14.7 13 13 C11.68 13 10.36 13 9 13 Z " fill="#8C4A60" transform="translate(93,29)"/>
<path d="M0 0 C3.15987479 3.30189163 5.10091763 6.89898513 7.0625 11 C8.49715885 13.98348153 9.91700934 16.86469769 11.6484375 19.6875 C13.45649493 22.78105491 13.6607487 24.47600692 13 28 C8.84962881 32.57605029 4.06484466 34.8728167 -2 36 C-6.65340398 36.18643445 -9.88313738 35.8989382 -13.5625 32.9375 C-14.036875 32.298125 -14.51125 31.65875 -15 31 C-13.74875245 25.31251115 -11.95897432 22.27152492 -8 18 C-12.70802539 21.47497112 -15.4741735 24.94821227 -18.41015625 30.01171875 C-20.38615762 32.48293422 -21.99392685 33.10793502 -25 34 C-30.61304755 34.51972662 -34.06573475 33.41678298 -39 31 C-39.84511275 25.50676714 -37.84218033 22.47646785 -34.77734375 18.1640625 C-32.64969874 15.57347934 -30.34671936 13.54307088 -27.72265625 11.47265625 C-25.87648773 9.89441241 -24.45265888 8.2074376 -22.9375 6.3125 C-17.38226339 -0.38037815 -8.28590141 -2.81631712 0 0 Z " fill="#8C4A60" transform="translate(44,39)"/>
<path d="M0 0 C0.99 0 1.98 0 3 0 C3.33 -0.33 3.66 -0.66 4 -1 C6.4375 -1.1875 6.4375 -1.1875 9 -1 C11 1 11 1 11.21118164 3.35083008 C11.18592407 4.79558716 11.18592407 4.79558716 11.16015625 6.26953125 C11.1437207 7.85024414 11.1437207 7.85024414 11.12695312 9.46289062 C11.10568359 10.56826172 11.08441406 11.67363281 11.0625 12.8125 C11.02792491 14.98560839 10.99781866 17.15879349 10.97265625 19.33203125 C10.95468994 20.29858643 10.93672363 21.2651416 10.91821289 22.26098633 C10.92184151 25.01887068 10.92184151 25.01887068 11.56420898 27.7409668 C12 30 12 30 11 31.8125 C7.98959412 33.59992849 5.42516378 33.24910282 2 33 C1.34 32.67 0.68 32.34 0 32 C-0.53625 32.309375 -1.0725 32.61875 -1.625 32.9375 C-6.32838438 35.04164564 -10.6533569 34.50816721 -15.3125 32.75 C-19.0772859 30.29851151 -20.5889566 28.23313019 -22 24 C-22.70298764 15.98594089 -20.49440449 8.96102214 -15.625 2.5 C-10.31329419 -2.55876744 -6.71358769 -2.28008638 0 0 Z M-12 12 C-11.67 13.65 -11.34 15.3 -11 17 C-9.16299211 17.77242269 -9.16299211 17.77242269 -7 18 C-5.22809091 16.64555699 -5.22809091 16.64555699 -4 15 C-4.66 13.35 -5.32 11.7 -6 10 C-9.18490007 9.7226499 -9.18490007 9.7226499 -12 12 Z " fill="#8C4A60" transform="translate(262,31)"/>
<path d="M0 0 C8.34727916 4.52754469 15.51848924 11.02136698 19 20 C19.85680701 23.67713008 20.42249709 26.87334111 19.0625 30.5 C18.711875 30.995 18.36125 31.49 18 32 C9.58380231 31.57919012 3.5465581 25.03567851 -2.0390625 19.2734375 C-7.20374058 13.28570315 -11.81985933 7.10633003 -12 -1 C-8.16605723 -2.91697139 -3.90386852 -1.28129763 0 0 Z " fill="#8C4A60" transform="translate(47,19)"/>
<path d="M0 0 C0.77908815 8.95951378 -2.95797048 16.44513507 -8.5078125 23.3203125 C-12.74301988 28.08769254 -17.89647814 31.18038105 -24 33 C-26.57469003 33.0329485 -28.47922628 32.6436018 -31 32 C-31.7535463 27.04812432 -30.986293 24.42153432 -28.1875 20.25 C-9.88598349 -4.01618079 -9.88598349 -4.01618079 0 0 Z " fill="#8C4A60" transform="translate(31,18)"/>
<path d="M0 0 C0.66 0.33 1.32 0.66 2 1 C2.40729228 3.32156597 2.74438677 5.6568787 3 8 C4.11375 7.67 5.2275 7.34 6.375 7 C10 6 10 6 12 6 C12.99 5.67 13.98 5.34 15 5 C15.495 6.485 15.495 6.485 16 8 C14.54293274 8.50367757 13.08429904 9.00282556 11.625 9.5 C10.81289063 9.7784375 10.00078125 10.056875 9.1640625 10.34375 C7 11 7 11 5 11 C4.67 11.66 4.34 12.32 4 13 C0.25801961 13.70603404 -3.18792739 14 -7 14 C-8.66965451 14.31802943 -10.33678518 14.64984951 -12 15 C-12.66 15 -13.32 15 -14 15 C-14.66 15.66 -15.32 16.32 -16 17 C-17.2065625 16.938125 -17.2065625 16.938125 -18.4375 16.875 C-19.7059375 16.936875 -19.7059375 16.936875 -21 17 C-21.7115625 17.99 -21.7115625 17.99 -22.4375 19 C-22.953125 19.66 -23.46875 20.32 -24 21 C-27.1875 21.25 -27.1875 21.25 -30 21 C-31.80230168 17.17010894 -32.19622241 14.21878192 -32 10 C-28.46222536 8.38273159 -25.86942352 7.89251601 -22 8 C-21.67 7.67 -21.34 7.34 -21 7 C-19.865625 7.020625 -18.73125 7.04125 -17.5625 7.0625 C-13.94857727 7.41164028 -13.94857727 7.41164028 -12 5 C-11.05125 5.185625 -10.1025 5.37125 -9.125 5.5625 C-6.01241256 6.31708102 -6.01241256 6.31708102 -3.625 4.6875 C-1.7687861 3.15034461 -1.7687861 3.15034461 -2 1 C-1.34 0.67 -0.68 0.34 0 0 Z M-2 7 C-2 7.99 -2 8.98 -2 10 C-1.34 10 -0.68 10 0 10 C0 9.01 0 8.02 0 7 C-0.66 7 -1.32 7 -2 7 Z M-11 8 C-11 9.32 -11 10.64 -11 12 C-10.34 12 -9.68 12 -9 12 C-9 10.68 -9 9.36 -9 8 C-9.66 8 -10.32 8 -11 8 Z M-19 10 C-19 11.32 -19 12.64 -19 14 C-18.34 13.67 -17.68 13.34 -17 13 C-17.33 12.01 -17.66 11.02 -18 10 C-18.33 10 -18.66 10 -19 10 Z M-28 11 C-28 12.32 -28 13.64 -28 15 C-27.34 14.34 -26.68 13.68 -26 13 C-26.66 12.34 -27.32 11.68 -28 11 Z " fill="#8C4A60" transform="translate(341,74)"/>
<path d="M0 0 C0.99 0 1.98 0 3 0 C3 0.66 3 1.32 3 2 C3.66 2 4.32 2 5 2 C5 1.34 5 0.68 5 0 C5.99 0 6.98 0 8 0 C8 0.99 8 1.98 8 3 C9.9914056 3.38133299 11.99279077 3.71325582 14 4 C14.33 3.67 14.66 3.34 15 3 C16.66611905 2.957279 18.33382885 2.95936168 20 3 C23.50409076 3 26.98671633 2.49220523 30.46875 2.12109375 C33 2 33 2 35 3 C35.59355614 5.64860427 35.74209269 8.29197322 36 11 C34.68 11.33 33.36 11.66 32 12 C32 10.02 32 8.04 32 6 C31.34 6 30.68 6 30 6 C30.33 7.98 30.66 9.96 31 12 C29.68 12 28.36 12 27 12 C27 10.02 27 8.04 27 6 C26.34 6 25.68 6 25 6 C25.33 7.98 25.66 9.96 26 12 C22.58591991 13.1380267 20.57922745 13.11091589 17.0625 12.4375 C14.2236233 12.03194619 12.66113518 12.07883782 10 13 C10 10.69 10 8.38 10 6 C9.34 6 8.68 6 8 6 C8 7.98 8 9.96 8 12 C5 13 5 13 2.375 12.375 C0 11 0 11 -0.875 8.75 C-1.01416413 5.68838924 -0.62666014 2.99404289 0 0 Z M3 5 C4 9 4 9 4 9 Z " fill="#8C4A60" transform="translate(271,81)"/>
<path d="M0 0 C1.32 0 2.64 0 4 0 C4.33 0.99 4.66 1.98 5 3 C8.00847418 4.22520264 8.00847418 4.22520264 11 5 C11.99 3.68 12.98 2.36 14 1 C14.66 1.33 15.32 1.66 16 2 C16.33 2.99 16.66 3.98 17 5 C18.32 5 19.64 5 21 5 C21 5.66 21 6.32 21 7 C22.423125 6.938125 22.423125 6.938125 23.875 6.875 C27 7 27 7 29 9 C28.43181818 14.56818182 28.43181818 14.56818182 27 16 C25.14227838 15.91015699 23.28752015 15.75388139 21.4375 15.5625 C20.42558594 15.46066406 19.41367187 15.35882813 18.37109375 15.25390625 C17.58863281 15.17011719 16.80617187 15.08632812 16 15 C16 14.34 16 13.68 16 13 C15.01 13.495 15.01 13.495 14 14 C8.0960874 14.40026526 4.17402552 13.95658601 -1 11 C-2.78130034 7.77139314 -1.77487697 4.48694637 -1 1 C-0.67 0.67 -0.34 0.34 0 0 Z M3 5 C2.67 6.32 2.34 7.64 2 9 C2.66 8.67 3.32 8.34 4 8 C3.67 7.01 3.34 6.02 3 5 Z M19 8 C18.67 8.99 18.34 9.98 18 11 C18.66 11 19.32 11 20 11 C19.67 10.01 19.34 9.02 19 8 Z " fill="#8C4A60" transform="translate(239,76)"/>
<path d="M0 0 C1.9375 1.5625 1.9375 1.5625 3 4 C2.67272727 10.32727273 2.67272727 10.32727273 0 13 C-3.07108055 13.3267107 -5.15050101 13.48138276 -7.875 11.9375 C-9.64273274 8.8930714 -9.36823916 6.4368988 -9 3 C-6.85106865 -0.70093733 -4.00059138 -0.58341958 0 0 Z " fill="#8C4A60" transform="translate(386,12)"/>
</svg>
